%TF.GenerationSoftware,KiCad,Pcbnew,8.0.6*%
%TF.CreationDate,2025-06-17T18:16:51-05:00*%
%TF.ProjectId,ESP32_Devkitv4_WLED_Controller,45535033-325f-4446-9576-6b697476345f,rev?*%
%TF.SameCoordinates,Original*%
%TF.FileFunction,Legend,Bot*%
%TF.FilePolarity,Positive*%
%FSLAX46Y46*%
G04 Gerber Fmt 4.6, Leading zero omitted, Abs format (unit mm)*
G04 Created by KiCad (PCBNEW 8.0.6) date 2025-06-17 18:16:51*
%MOMM*%
%LPD*%
G01*
G04 APERTURE LIST*
%ADD10C,0.150000*%
G04 APERTURE END LIST*
D10*
X130163220Y-67626121D02*
X129829887Y-67626121D01*
X129687030Y-68149931D02*
X130163220Y-68149931D01*
X130163220Y-68149931D02*
X130163220Y-67149931D01*
X130163220Y-67149931D02*
X129687030Y-67149931D01*
X129306077Y-68102312D02*
X129163220Y-68149931D01*
X129163220Y-68149931D02*
X128925125Y-68149931D01*
X128925125Y-68149931D02*
X128829887Y-68102312D01*
X128829887Y-68102312D02*
X128782268Y-68054692D01*
X128782268Y-68054692D02*
X128734649Y-67959454D01*
X128734649Y-67959454D02*
X128734649Y-67864216D01*
X128734649Y-67864216D02*
X128782268Y-67768978D01*
X128782268Y-67768978D02*
X128829887Y-67721359D01*
X128829887Y-67721359D02*
X128925125Y-67673740D01*
X128925125Y-67673740D02*
X129115601Y-67626121D01*
X129115601Y-67626121D02*
X129210839Y-67578502D01*
X129210839Y-67578502D02*
X129258458Y-67530883D01*
X129258458Y-67530883D02*
X129306077Y-67435645D01*
X129306077Y-67435645D02*
X129306077Y-67340407D01*
X129306077Y-67340407D02*
X129258458Y-67245169D01*
X129258458Y-67245169D02*
X129210839Y-67197550D01*
X129210839Y-67197550D02*
X129115601Y-67149931D01*
X129115601Y-67149931D02*
X128877506Y-67149931D01*
X128877506Y-67149931D02*
X128734649Y-67197550D01*
X128306077Y-68149931D02*
X128306077Y-67149931D01*
X128306077Y-67149931D02*
X127925125Y-67149931D01*
X127925125Y-67149931D02*
X127829887Y-67197550D01*
X127829887Y-67197550D02*
X127782268Y-67245169D01*
X127782268Y-67245169D02*
X127734649Y-67340407D01*
X127734649Y-67340407D02*
X127734649Y-67483264D01*
X127734649Y-67483264D02*
X127782268Y-67578502D01*
X127782268Y-67578502D02*
X127829887Y-67626121D01*
X127829887Y-67626121D02*
X127925125Y-67673740D01*
X127925125Y-67673740D02*
X128306077Y-67673740D01*
X127401315Y-67149931D02*
X126782268Y-67149931D01*
X126782268Y-67149931D02*
X127115601Y-67530883D01*
X127115601Y-67530883D02*
X126972744Y-67530883D01*
X126972744Y-67530883D02*
X126877506Y-67578502D01*
X126877506Y-67578502D02*
X126829887Y-67626121D01*
X126829887Y-67626121D02*
X126782268Y-67721359D01*
X126782268Y-67721359D02*
X126782268Y-67959454D01*
X126782268Y-67959454D02*
X126829887Y-68054692D01*
X126829887Y-68054692D02*
X126877506Y-68102312D01*
X126877506Y-68102312D02*
X126972744Y-68149931D01*
X126972744Y-68149931D02*
X127258458Y-68149931D01*
X127258458Y-68149931D02*
X127353696Y-68102312D01*
X127353696Y-68102312D02*
X127401315Y-68054692D01*
X126401315Y-67245169D02*
X126353696Y-67197550D01*
X126353696Y-67197550D02*
X126258458Y-67149931D01*
X126258458Y-67149931D02*
X126020363Y-67149931D01*
X126020363Y-67149931D02*
X125925125Y-67197550D01*
X125925125Y-67197550D02*
X125877506Y-67245169D01*
X125877506Y-67245169D02*
X125829887Y-67340407D01*
X125829887Y-67340407D02*
X125829887Y-67435645D01*
X125829887Y-67435645D02*
X125877506Y-67578502D01*
X125877506Y-67578502D02*
X126448934Y-68149931D01*
X126448934Y-68149931D02*
X125829887Y-68149931D01*
X124639410Y-68149931D02*
X124639410Y-67149931D01*
X124639410Y-67149931D02*
X124401315Y-67149931D01*
X124401315Y-67149931D02*
X124258458Y-67197550D01*
X124258458Y-67197550D02*
X124163220Y-67292788D01*
X124163220Y-67292788D02*
X124115601Y-67388026D01*
X124115601Y-67388026D02*
X124067982Y-67578502D01*
X124067982Y-67578502D02*
X124067982Y-67721359D01*
X124067982Y-67721359D02*
X124115601Y-67911835D01*
X124115601Y-67911835D02*
X124163220Y-68007073D01*
X124163220Y-68007073D02*
X124258458Y-68102312D01*
X124258458Y-68102312D02*
X124401315Y-68149931D01*
X124401315Y-68149931D02*
X124639410Y-68149931D01*
X123258458Y-68102312D02*
X123353696Y-68149931D01*
X123353696Y-68149931D02*
X123544172Y-68149931D01*
X123544172Y-68149931D02*
X123639410Y-68102312D01*
X123639410Y-68102312D02*
X123687029Y-68007073D01*
X123687029Y-68007073D02*
X123687029Y-67626121D01*
X123687029Y-67626121D02*
X123639410Y-67530883D01*
X123639410Y-67530883D02*
X123544172Y-67483264D01*
X123544172Y-67483264D02*
X123353696Y-67483264D01*
X123353696Y-67483264D02*
X123258458Y-67530883D01*
X123258458Y-67530883D02*
X123210839Y-67626121D01*
X123210839Y-67626121D02*
X123210839Y-67721359D01*
X123210839Y-67721359D02*
X123687029Y-67816597D01*
X122877505Y-67483264D02*
X122639410Y-68149931D01*
X122639410Y-68149931D02*
X122401315Y-67483264D01*
X122020362Y-68149931D02*
X122020362Y-67149931D01*
X121925124Y-67768978D02*
X121639410Y-68149931D01*
X121639410Y-67483264D02*
X122020362Y-67864216D01*
X121210838Y-68149931D02*
X121210838Y-67483264D01*
X121210838Y-67149931D02*
X121258457Y-67197550D01*
X121258457Y-67197550D02*
X121210838Y-67245169D01*
X121210838Y-67245169D02*
X121163219Y-67197550D01*
X121163219Y-67197550D02*
X121210838Y-67149931D01*
X121210838Y-67149931D02*
X121210838Y-67245169D01*
X120877505Y-67483264D02*
X120496553Y-67483264D01*
X120734648Y-67149931D02*
X120734648Y-68007073D01*
X120734648Y-68007073D02*
X120687029Y-68102312D01*
X120687029Y-68102312D02*
X120591791Y-68149931D01*
X120591791Y-68149931D02*
X120496553Y-68149931D01*
X120258457Y-67483264D02*
X120020362Y-68149931D01*
X120020362Y-68149931D02*
X119782267Y-67483264D01*
X118972743Y-67483264D02*
X118972743Y-68149931D01*
X119210838Y-67102312D02*
X119448933Y-67816597D01*
X119448933Y-67816597D02*
X118829886Y-67816597D01*
X130258458Y-68759875D02*
X130020363Y-69759875D01*
X130020363Y-69759875D02*
X129829887Y-69045589D01*
X129829887Y-69045589D02*
X129639411Y-69759875D01*
X129639411Y-69759875D02*
X129401316Y-68759875D01*
X128544173Y-69759875D02*
X129020363Y-69759875D01*
X129020363Y-69759875D02*
X129020363Y-68759875D01*
X128210839Y-69236065D02*
X127877506Y-69236065D01*
X127734649Y-69759875D02*
X128210839Y-69759875D01*
X128210839Y-69759875D02*
X128210839Y-68759875D01*
X128210839Y-68759875D02*
X127734649Y-68759875D01*
X127306077Y-69759875D02*
X127306077Y-68759875D01*
X127306077Y-68759875D02*
X127067982Y-68759875D01*
X127067982Y-68759875D02*
X126925125Y-68807494D01*
X126925125Y-68807494D02*
X126829887Y-68902732D01*
X126829887Y-68902732D02*
X126782268Y-68997970D01*
X126782268Y-68997970D02*
X126734649Y-69188446D01*
X126734649Y-69188446D02*
X126734649Y-69331303D01*
X126734649Y-69331303D02*
X126782268Y-69521779D01*
X126782268Y-69521779D02*
X126829887Y-69617017D01*
X126829887Y-69617017D02*
X126925125Y-69712256D01*
X126925125Y-69712256D02*
X127067982Y-69759875D01*
X127067982Y-69759875D02*
X127306077Y-69759875D01*
X124972744Y-69664636D02*
X125020363Y-69712256D01*
X125020363Y-69712256D02*
X125163220Y-69759875D01*
X125163220Y-69759875D02*
X125258458Y-69759875D01*
X125258458Y-69759875D02*
X125401315Y-69712256D01*
X125401315Y-69712256D02*
X125496553Y-69617017D01*
X125496553Y-69617017D02*
X125544172Y-69521779D01*
X125544172Y-69521779D02*
X125591791Y-69331303D01*
X125591791Y-69331303D02*
X125591791Y-69188446D01*
X125591791Y-69188446D02*
X125544172Y-68997970D01*
X125544172Y-68997970D02*
X125496553Y-68902732D01*
X125496553Y-68902732D02*
X125401315Y-68807494D01*
X125401315Y-68807494D02*
X125258458Y-68759875D01*
X125258458Y-68759875D02*
X125163220Y-68759875D01*
X125163220Y-68759875D02*
X125020363Y-68807494D01*
X125020363Y-68807494D02*
X124972744Y-68855113D01*
X124401315Y-69759875D02*
X124496553Y-69712256D01*
X124496553Y-69712256D02*
X124544172Y-69664636D01*
X124544172Y-69664636D02*
X124591791Y-69569398D01*
X124591791Y-69569398D02*
X124591791Y-69283684D01*
X124591791Y-69283684D02*
X124544172Y-69188446D01*
X124544172Y-69188446D02*
X124496553Y-69140827D01*
X124496553Y-69140827D02*
X124401315Y-69093208D01*
X124401315Y-69093208D02*
X124258458Y-69093208D01*
X124258458Y-69093208D02*
X124163220Y-69140827D01*
X124163220Y-69140827D02*
X124115601Y-69188446D01*
X124115601Y-69188446D02*
X124067982Y-69283684D01*
X124067982Y-69283684D02*
X124067982Y-69569398D01*
X124067982Y-69569398D02*
X124115601Y-69664636D01*
X124115601Y-69664636D02*
X124163220Y-69712256D01*
X124163220Y-69712256D02*
X124258458Y-69759875D01*
X124258458Y-69759875D02*
X124401315Y-69759875D01*
X123639410Y-69093208D02*
X123639410Y-69759875D01*
X123639410Y-69188446D02*
X123591791Y-69140827D01*
X123591791Y-69140827D02*
X123496553Y-69093208D01*
X123496553Y-69093208D02*
X123353696Y-69093208D01*
X123353696Y-69093208D02*
X123258458Y-69140827D01*
X123258458Y-69140827D02*
X123210839Y-69236065D01*
X123210839Y-69236065D02*
X123210839Y-69759875D01*
X122877505Y-69093208D02*
X122496553Y-69093208D01*
X122734648Y-68759875D02*
X122734648Y-69617017D01*
X122734648Y-69617017D02*
X122687029Y-69712256D01*
X122687029Y-69712256D02*
X122591791Y-69759875D01*
X122591791Y-69759875D02*
X122496553Y-69759875D01*
X122163219Y-69759875D02*
X122163219Y-69093208D01*
X122163219Y-69283684D02*
X122115600Y-69188446D01*
X122115600Y-69188446D02*
X122067981Y-69140827D01*
X122067981Y-69140827D02*
X121972743Y-69093208D01*
X121972743Y-69093208D02*
X121877505Y-69093208D01*
X121401314Y-69759875D02*
X121496552Y-69712256D01*
X121496552Y-69712256D02*
X121544171Y-69664636D01*
X121544171Y-69664636D02*
X121591790Y-69569398D01*
X121591790Y-69569398D02*
X121591790Y-69283684D01*
X121591790Y-69283684D02*
X121544171Y-69188446D01*
X121544171Y-69188446D02*
X121496552Y-69140827D01*
X121496552Y-69140827D02*
X121401314Y-69093208D01*
X121401314Y-69093208D02*
X121258457Y-69093208D01*
X121258457Y-69093208D02*
X121163219Y-69140827D01*
X121163219Y-69140827D02*
X121115600Y-69188446D01*
X121115600Y-69188446D02*
X121067981Y-69283684D01*
X121067981Y-69283684D02*
X121067981Y-69569398D01*
X121067981Y-69569398D02*
X121115600Y-69664636D01*
X121115600Y-69664636D02*
X121163219Y-69712256D01*
X121163219Y-69712256D02*
X121258457Y-69759875D01*
X121258457Y-69759875D02*
X121401314Y-69759875D01*
X120496552Y-69759875D02*
X120591790Y-69712256D01*
X120591790Y-69712256D02*
X120639409Y-69617017D01*
X120639409Y-69617017D02*
X120639409Y-68759875D01*
X119972742Y-69759875D02*
X120067980Y-69712256D01*
X120067980Y-69712256D02*
X120115599Y-69617017D01*
X120115599Y-69617017D02*
X120115599Y-68759875D01*
X119210837Y-69712256D02*
X119306075Y-69759875D01*
X119306075Y-69759875D02*
X119496551Y-69759875D01*
X119496551Y-69759875D02*
X119591789Y-69712256D01*
X119591789Y-69712256D02*
X119639408Y-69617017D01*
X119639408Y-69617017D02*
X119639408Y-69236065D01*
X119639408Y-69236065D02*
X119591789Y-69140827D01*
X119591789Y-69140827D02*
X119496551Y-69093208D01*
X119496551Y-69093208D02*
X119306075Y-69093208D01*
X119306075Y-69093208D02*
X119210837Y-69140827D01*
X119210837Y-69140827D02*
X119163218Y-69236065D01*
X119163218Y-69236065D02*
X119163218Y-69331303D01*
X119163218Y-69331303D02*
X119639408Y-69426541D01*
X118734646Y-69759875D02*
X118734646Y-69093208D01*
X118734646Y-69283684D02*
X118687027Y-69188446D01*
X118687027Y-69188446D02*
X118639408Y-69140827D01*
X118639408Y-69140827D02*
X118544170Y-69093208D01*
X118544170Y-69093208D02*
X118448932Y-69093208D01*
X130258458Y-70703152D02*
X130020363Y-71369819D01*
X130020363Y-71369819D02*
X129782268Y-70703152D01*
X128877506Y-71369819D02*
X129448934Y-71369819D01*
X129163220Y-71369819D02*
X129163220Y-70369819D01*
X129163220Y-70369819D02*
X129258458Y-70512676D01*
X129258458Y-70512676D02*
X129353696Y-70607914D01*
X129353696Y-70607914D02*
X129448934Y-70655533D01*
X128448934Y-71274580D02*
X128401315Y-71322200D01*
X128401315Y-71322200D02*
X128448934Y-71369819D01*
X128448934Y-71369819D02*
X128496553Y-71322200D01*
X128496553Y-71322200D02*
X128448934Y-71274580D01*
X128448934Y-71274580D02*
X128448934Y-71369819D01*
X127782268Y-70369819D02*
X127687030Y-70369819D01*
X127687030Y-70369819D02*
X127591792Y-70417438D01*
X127591792Y-70417438D02*
X127544173Y-70465057D01*
X127544173Y-70465057D02*
X127496554Y-70560295D01*
X127496554Y-70560295D02*
X127448935Y-70750771D01*
X127448935Y-70750771D02*
X127448935Y-70988866D01*
X127448935Y-70988866D02*
X127496554Y-71179342D01*
X127496554Y-71179342D02*
X127544173Y-71274580D01*
X127544173Y-71274580D02*
X127591792Y-71322200D01*
X127591792Y-71322200D02*
X127687030Y-71369819D01*
X127687030Y-71369819D02*
X127782268Y-71369819D01*
X127782268Y-71369819D02*
X127877506Y-71322200D01*
X127877506Y-71322200D02*
X127925125Y-71274580D01*
X127925125Y-71274580D02*
X127972744Y-71179342D01*
X127972744Y-71179342D02*
X128020363Y-70988866D01*
X128020363Y-70988866D02*
X128020363Y-70750771D01*
X128020363Y-70750771D02*
X127972744Y-70560295D01*
X127972744Y-70560295D02*
X127925125Y-70465057D01*
X127925125Y-70465057D02*
X127877506Y-70417438D01*
X127877506Y-70417438D02*
X127782268Y-70369819D01*
X127020363Y-71274580D02*
X126972744Y-71322200D01*
X126972744Y-71322200D02*
X127020363Y-71369819D01*
X127020363Y-71369819D02*
X127067982Y-71322200D01*
X127067982Y-71322200D02*
X127020363Y-71274580D01*
X127020363Y-71274580D02*
X127020363Y-71369819D01*
X126353697Y-70369819D02*
X126258459Y-70369819D01*
X126258459Y-70369819D02*
X126163221Y-70417438D01*
X126163221Y-70417438D02*
X126115602Y-70465057D01*
X126115602Y-70465057D02*
X126067983Y-70560295D01*
X126067983Y-70560295D02*
X126020364Y-70750771D01*
X126020364Y-70750771D02*
X126020364Y-70988866D01*
X126020364Y-70988866D02*
X126067983Y-71179342D01*
X126067983Y-71179342D02*
X126115602Y-71274580D01*
X126115602Y-71274580D02*
X126163221Y-71322200D01*
X126163221Y-71322200D02*
X126258459Y-71369819D01*
X126258459Y-71369819D02*
X126353697Y-71369819D01*
X126353697Y-71369819D02*
X126448935Y-71322200D01*
X126448935Y-71322200D02*
X126496554Y-71274580D01*
X126496554Y-71274580D02*
X126544173Y-71179342D01*
X126544173Y-71179342D02*
X126591792Y-70988866D01*
X126591792Y-70988866D02*
X126591792Y-70750771D01*
X126591792Y-70750771D02*
X126544173Y-70560295D01*
X126544173Y-70560295D02*
X126496554Y-70465057D01*
X126496554Y-70465057D02*
X126448935Y-70417438D01*
X126448935Y-70417438D02*
X126353697Y-70369819D01*
M02*
