M48
; DRILL file {KiCad 8.0.6} date 2025-06-17T18:17:15-0500
; FORMAT={-:-/ absolute / inch / decimal}
; #@! TF.CreationDate,2025-06-17T18:17:15-05:00
; #@! TF.GenerationSoftware,Kicad,Pcbnew,8.0.6
; #@! TF.FileFunction,Plated,1,2,PTH
FMAT,2
INCH
; #@! TA.AperFunction,Plated,PTH,ViaDrill
T1C0.0118
; #@! TA.AperFunction,Plated,PTH,ComponentDrill
T2C0.0315
; #@! TA.AperFunction,Plated,PTH,ComponentDrill
T3C0.0394
; #@! TA.AperFunction,Plated,PTH,ComponentDrill
T4C0.0409
%
G90
G05
T1
X4.9803Y-3.6614
X5.0Y-3.3465
X5.0779Y-3.5193
X5.2953Y-3.2087
X5.374Y-3.5236
X5.374Y-3.7205
T2
X4.2Y-2.2535
X4.2Y-2.352
X4.2Y-4.0516
X4.2Y-4.15
X4.7244Y-2.9677
X4.7244Y-3.5677
X4.9228Y-2.8911
X4.9228Y-3.4911
T3
X4.2Y-2.6124
X4.2Y-2.7124
X4.2Y-2.8124
X4.2Y-3.0848
X4.2Y-3.1848
X4.2Y-3.2848
X4.2Y-3.6402
X4.2Y-3.7402
T4
X4.474Y-2.352
X4.474Y-2.452
X4.474Y-2.552
X4.474Y-2.652
X4.474Y-2.752
X4.474Y-2.852
X4.474Y-2.952
X4.474Y-3.052
X4.474Y-3.152
X4.474Y-3.252
X4.474Y-3.352
X4.474Y-3.452
X4.474Y-3.552
X4.474Y-3.652
X4.474Y-3.752
X4.474Y-3.852
X4.474Y-3.952
X4.474Y-4.052
X4.474Y-4.152
X5.474Y-2.352
X5.474Y-2.452
X5.474Y-2.552
X5.474Y-2.652
X5.474Y-2.752
X5.474Y-2.852
X5.474Y-2.952
X5.474Y-3.052
X5.474Y-3.152
X5.474Y-3.252
X5.474Y-3.352
X5.474Y-3.452
X5.474Y-3.552
X5.474Y-3.652
X5.474Y-3.752
X5.474Y-3.852
X5.474Y-3.952
X5.474Y-4.052
X5.474Y-4.152
M30
