%TF.GenerationSoftware,KiCad,Pcbnew,8.0.6*%
%TF.CreationDate,2025-06-17T18:16:51-05:00*%
%TF.ProjectId,ESP32_Devkitv4_WLED_Controller,45535033-325f-4446-9576-6b697476345f,rev?*%
%TF.SameCoordinates,Original*%
%TF.FileFunction,Copper,L2,Bot*%
%TF.FilePolarity,Positive*%
%FSLAX46Y46*%
G04 Gerber Fmt 4.6, Leading zero omitted, Abs format (unit mm)*
G04 Created by KiCad (PCBNEW 8.0.6) date 2025-06-17 18:16:51*
%MOMM*%
%LPD*%
G01*
G04 APERTURE LIST*
%TA.AperFunction,ComponentPad*%
%ADD10R,1.560000X1.560000*%
%TD*%
%TA.AperFunction,ComponentPad*%
%ADD11C,1.560000*%
%TD*%
%TA.AperFunction,ComponentPad*%
%ADD12O,1.600000X1.600000*%
%TD*%
%TA.AperFunction,ComponentPad*%
%ADD13C,1.600000*%
%TD*%
%TA.AperFunction,ComponentPad*%
%ADD14O,1.700000X1.700000*%
%TD*%
%TA.AperFunction,ComponentPad*%
%ADD15R,1.700000X1.700000*%
%TD*%
%TA.AperFunction,ComponentPad*%
%ADD16R,1.600000X1.600000*%
%TD*%
%TA.AperFunction,ViaPad*%
%ADD17C,0.600000*%
%TD*%
%TA.AperFunction,Conductor*%
%ADD18C,0.500000*%
%TD*%
G04 APERTURE END LIST*
D10*
%TO.P,U1,J2-1,3V3*%
%TO.N,+3.3V*%
X113640000Y-59740000D03*
D11*
%TO.P,U1,J2-2,EN*%
%TO.N,unconnected-(U1-EN-PadJ2-2)*%
X113640000Y-62280000D03*
%TO.P,U1,J2-3,SENSOR_VP*%
%TO.N,unconnected-(U1-SENSOR_VP-PadJ2-3)*%
X113640000Y-64820000D03*
%TO.P,U1,J2-4,SENSOR_VN*%
%TO.N,unconnected-(U1-SENSOR_VN-PadJ2-4)*%
X113640000Y-67360000D03*
%TO.P,U1,J2-5,IO34*%
%TO.N,unconnected-(U1-IO34-PadJ2-5)*%
X113640000Y-69900000D03*
%TO.P,U1,J2-6,IO35*%
%TO.N,unconnected-(U1-IO35-PadJ2-6)*%
X113640000Y-72440000D03*
%TO.P,U1,J2-7,IO32*%
%TO.N,unconnected-(U1-IO32-PadJ2-7)*%
X113640000Y-74980000D03*
%TO.P,U1,J2-8,IO33*%
%TO.N,unconnected-(U1-IO33-PadJ2-8)*%
X113640000Y-77520000D03*
%TO.P,U1,J2-9,IO25*%
%TO.N,unconnected-(U1-IO25-PadJ2-9)*%
X113640000Y-80060000D03*
%TO.P,U1,J2-10,IO26*%
%TO.N,unconnected-(U1-IO26-PadJ2-10)*%
X113640000Y-82600000D03*
%TO.P,U1,J2-11,IO27*%
%TO.N,unconnected-(U1-IO27-PadJ2-11)*%
X113640000Y-85140000D03*
%TO.P,U1,J2-12,IO14*%
%TO.N,unconnected-(U1-IO14-PadJ2-12)*%
X113640000Y-87680000D03*
%TO.P,U1,J2-13,IO12*%
%TO.N,unconnected-(U1-IO12-PadJ2-13)*%
X113640000Y-90220000D03*
%TO.P,U1,J2-14,GND1*%
%TO.N,GND*%
X113640000Y-92760000D03*
%TO.P,U1,J2-15,IO13*%
%TO.N,unconnected-(U1-IO13-PadJ2-15)*%
X113640000Y-95300000D03*
%TO.P,U1,J2-16,SD2*%
%TO.N,unconnected-(U1-SD2-PadJ2-16)*%
X113640000Y-97840000D03*
%TO.P,U1,J2-17,SD3*%
%TO.N,unconnected-(U1-SD3-PadJ2-17)*%
X113640000Y-100380000D03*
%TO.P,U1,J2-18,CMD*%
%TO.N,unconnected-(U1-CMD-PadJ2-18)*%
X113640000Y-102920000D03*
%TO.P,U1,J2-19,EXT_5V*%
%TO.N,+5V*%
X113640000Y-105460000D03*
%TO.P,U1,J3-1,GND3*%
%TO.N,GND*%
X139040000Y-59740000D03*
%TO.P,U1,J3-2,IO23*%
%TO.N,unconnected-(U1-IO23-PadJ3-2)*%
X139040000Y-62280000D03*
%TO.P,U1,J3-3,IO22*%
%TO.N,unconnected-(U1-IO22-PadJ3-3)*%
X139040000Y-64820000D03*
%TO.P,U1,J3-4,TXD0*%
%TO.N,unconnected-(U1-TXD0-PadJ3-4)*%
X139040000Y-67360000D03*
%TO.P,U1,J3-5,RXD0*%
%TO.N,unconnected-(U1-RXD0-PadJ3-5)*%
X139040000Y-69900000D03*
%TO.P,U1,J3-6,IO21*%
%TO.N,unconnected-(U1-IO21-PadJ3-6)*%
X139040000Y-72440000D03*
%TO.P,U1,J3-7,GND2*%
%TO.N,GND*%
X139040000Y-74980000D03*
%TO.P,U1,J3-8,IO19*%
%TO.N,unconnected-(U1-IO19-PadJ3-8)*%
X139040000Y-77520000D03*
%TO.P,U1,J3-9,IO18*%
%TO.N,unconnected-(U1-IO18-PadJ3-9)*%
X139040000Y-80060000D03*
%TO.P,U1,J3-10,IO5*%
%TO.N,unconnected-(U1-IO5-PadJ3-10)*%
X139040000Y-82600000D03*
%TO.P,U1,J3-11,IO17*%
%TO.N,unconnected-(U1-IO17-PadJ3-11)*%
X139040000Y-85140000D03*
%TO.P,U1,J3-12,IO16*%
%TO.N,D0_uC*%
X139040000Y-87680000D03*
%TO.P,U1,J3-13,IO4*%
%TO.N,D1_uC*%
X139040000Y-90220000D03*
%TO.P,U1,J3-14,IO0*%
%TO.N,unconnected-(U1-IO0-PadJ3-14)*%
X139040000Y-92760000D03*
%TO.P,U1,J3-15,IO2*%
%TO.N,unconnected-(U1-IO2-PadJ3-15)*%
X139040000Y-95300000D03*
%TO.P,U1,J3-16,IO15*%
%TO.N,unconnected-(U1-IO15-PadJ3-16)*%
X139040000Y-97840000D03*
%TO.P,U1,J3-17,SD1*%
%TO.N,unconnected-(U1-SD1-PadJ3-17)*%
X139040000Y-100380000D03*
%TO.P,U1,J3-18,SD0*%
%TO.N,unconnected-(U1-SD0-PadJ3-18)*%
X139040000Y-102920000D03*
%TO.P,U1,J3-19,CLK*%
%TO.N,unconnected-(U1-CLK-PadJ3-19)*%
X139040000Y-105460000D03*
%TD*%
D12*
%TO.P,R3,2*%
%TO.N,D1*%
X120000000Y-75380000D03*
D13*
%TO.P,R3,1*%
%TO.N,Net-(R3-Pad1)*%
X120000000Y-90620000D03*
%TD*%
D12*
%TO.P,R1,2*%
%TO.N,D0*%
X125040000Y-73435000D03*
D13*
%TO.P,R1,1*%
%TO.N,Net-(R1-Pad1)*%
X125040000Y-88675000D03*
%TD*%
D14*
%TO.P,J3,3,Pin_3*%
%TO.N,GND*%
X106680000Y-78354000D03*
%TO.P,J3,2,Pin_2*%
%TO.N,D1*%
X106680000Y-80894000D03*
D15*
%TO.P,J3,1,Pin_1*%
%TO.N,+5V*%
X106680000Y-83434000D03*
%TD*%
D14*
%TO.P,J2,3,Pin_3*%
%TO.N,GND*%
X106680000Y-66354000D03*
%TO.P,J2,2,Pin_2*%
%TO.N,D0*%
X106680000Y-68894000D03*
D15*
%TO.P,J2,1,Pin_1*%
%TO.N,+5V*%
X106680000Y-71434000D03*
%TD*%
D14*
%TO.P,J1,2,Pin_2*%
%TO.N,GND*%
X106680000Y-95000000D03*
D15*
%TO.P,J1,1,Pin_1*%
%TO.N,+5V*%
X106680000Y-92460000D03*
%TD*%
D13*
%TO.P,C4,2*%
%TO.N,GND*%
X106680000Y-57240000D03*
D16*
%TO.P,C4,1*%
%TO.N,+3.3V*%
X106680000Y-59740000D03*
%TD*%
D13*
%TO.P,C1,2*%
%TO.N,GND*%
X106680000Y-102910000D03*
D16*
%TO.P,C1,1*%
%TO.N,+5V*%
X106680000Y-105410000D03*
%TD*%
D17*
%TO.N,+5V*%
X136500000Y-94500000D03*
X136500000Y-89500000D03*
%TO.N,GND*%
X126500000Y-93000000D03*
X128979727Y-89390000D03*
X134500000Y-81500000D03*
X127000000Y-85000000D03*
%TD*%
D18*
%TO.N,+5V*%
X136500000Y-89500000D02*
X136500000Y-94500000D01*
%TD*%
%TA.AperFunction,Conductor*%
%TO.N,GND*%
G36*
X141442539Y-50520185D02*
G01*
X141488294Y-50572989D01*
X141499500Y-50624500D01*
X141499500Y-109375500D01*
X141479815Y-109442539D01*
X141427011Y-109488294D01*
X141375500Y-109499500D01*
X100624500Y-109499500D01*
X100557461Y-109479815D01*
X100511706Y-109427011D01*
X100500500Y-109375500D01*
X100500500Y-102909997D01*
X105375034Y-102909997D01*
X105375034Y-102910002D01*
X105394858Y-103136599D01*
X105394860Y-103136610D01*
X105453730Y-103356317D01*
X105453735Y-103356331D01*
X105549863Y-103562478D01*
X105600974Y-103635472D01*
X106280000Y-102956446D01*
X106280000Y-102962661D01*
X106307259Y-103064394D01*
X106359920Y-103155606D01*
X106434394Y-103230080D01*
X106525606Y-103282741D01*
X106627339Y-103310000D01*
X106633553Y-103310000D01*
X105949352Y-103994199D01*
X105939506Y-104043194D01*
X105890890Y-104093377D01*
X105835367Y-104108049D01*
X105835423Y-104109099D01*
X105835429Y-104109146D01*
X105835426Y-104109146D01*
X105835436Y-104109324D01*
X105832123Y-104109501D01*
X105772516Y-104115908D01*
X105637671Y-104166202D01*
X105637664Y-104166206D01*
X105522455Y-104252452D01*
X105522452Y-104252455D01*
X105436206Y-104367664D01*
X105436202Y-104367671D01*
X105385908Y-104502517D01*
X105379501Y-104562116D01*
X105379501Y-104562123D01*
X105379500Y-104562135D01*
X105379500Y-106257870D01*
X105379501Y-106257876D01*
X105385908Y-106317483D01*
X105436202Y-106452328D01*
X105436206Y-106452335D01*
X105522452Y-106567544D01*
X105522455Y-106567547D01*
X105637664Y-106653793D01*
X105637671Y-106653797D01*
X105772517Y-106704091D01*
X105772516Y-106704091D01*
X105779444Y-106704835D01*
X105832127Y-106710500D01*
X107527872Y-106710499D01*
X107587483Y-106704091D01*
X107722331Y-106653796D01*
X107837546Y-106567546D01*
X107923796Y-106452331D01*
X107974091Y-106317483D01*
X107980500Y-106257873D01*
X107980499Y-104562128D01*
X107974091Y-104502517D01*
X107963952Y-104475334D01*
X107923797Y-104367671D01*
X107923793Y-104367664D01*
X107837547Y-104252455D01*
X107837544Y-104252452D01*
X107722335Y-104166206D01*
X107722328Y-104166202D01*
X107587482Y-104115908D01*
X107587483Y-104115908D01*
X107527883Y-104109501D01*
X107527881Y-104109500D01*
X107527873Y-104109500D01*
X107527864Y-104109500D01*
X107524548Y-104109322D01*
X107524627Y-104107847D01*
X107463215Y-104089815D01*
X107417460Y-104037011D01*
X107409969Y-103993522D01*
X106726447Y-103310000D01*
X106732661Y-103310000D01*
X106834394Y-103282741D01*
X106925606Y-103230080D01*
X107000080Y-103155606D01*
X107052741Y-103064394D01*
X107080000Y-102962661D01*
X107080000Y-102956447D01*
X107759024Y-103635471D01*
X107810136Y-103562478D01*
X107906264Y-103356331D01*
X107906269Y-103356317D01*
X107965139Y-103136610D01*
X107965141Y-103136599D01*
X107984966Y-102910002D01*
X107984966Y-102909997D01*
X107965141Y-102683400D01*
X107965139Y-102683389D01*
X107906269Y-102463682D01*
X107906264Y-102463668D01*
X107810136Y-102257521D01*
X107810132Y-102257513D01*
X107759025Y-102184526D01*
X107080000Y-102863551D01*
X107080000Y-102857339D01*
X107052741Y-102755606D01*
X107000080Y-102664394D01*
X106925606Y-102589920D01*
X106834394Y-102537259D01*
X106732661Y-102510000D01*
X106726448Y-102510000D01*
X107405472Y-101830974D01*
X107332478Y-101779863D01*
X107126331Y-101683735D01*
X107126317Y-101683730D01*
X106906610Y-101624860D01*
X106906599Y-101624858D01*
X106680002Y-101605034D01*
X106679998Y-101605034D01*
X106453400Y-101624858D01*
X106453389Y-101624860D01*
X106233682Y-101683730D01*
X106233673Y-101683734D01*
X106027516Y-101779866D01*
X106027512Y-101779868D01*
X105954526Y-101830973D01*
X105954526Y-101830974D01*
X106633553Y-102510000D01*
X106627339Y-102510000D01*
X106525606Y-102537259D01*
X106434394Y-102589920D01*
X106359920Y-102664394D01*
X106307259Y-102755606D01*
X106280000Y-102857339D01*
X106280000Y-102863552D01*
X105600974Y-102184526D01*
X105600973Y-102184526D01*
X105549868Y-102257512D01*
X105549866Y-102257516D01*
X105453734Y-102463673D01*
X105453730Y-102463682D01*
X105394860Y-102683389D01*
X105394858Y-102683400D01*
X105375034Y-102909997D01*
X100500500Y-102909997D01*
X100500500Y-91562135D01*
X105329500Y-91562135D01*
X105329500Y-93357870D01*
X105329501Y-93357876D01*
X105335908Y-93417483D01*
X105386202Y-93552328D01*
X105386206Y-93552335D01*
X105472452Y-93667544D01*
X105472455Y-93667547D01*
X105587664Y-93753793D01*
X105587671Y-93753797D01*
X105587674Y-93753798D01*
X105719598Y-93803002D01*
X105775531Y-93844873D01*
X105799949Y-93910337D01*
X105785098Y-93978610D01*
X105763947Y-94006865D01*
X105641886Y-94128926D01*
X105506400Y-94322420D01*
X105506399Y-94322422D01*
X105406570Y-94536507D01*
X105406567Y-94536513D01*
X105349364Y-94749999D01*
X105349364Y-94750000D01*
X106246988Y-94750000D01*
X106214075Y-94807007D01*
X106180000Y-94934174D01*
X106180000Y-95065826D01*
X106214075Y-95192993D01*
X106246988Y-95250000D01*
X105349364Y-95250000D01*
X105406567Y-95463486D01*
X105406570Y-95463492D01*
X105506399Y-95677578D01*
X105641894Y-95871082D01*
X105808917Y-96038105D01*
X106002421Y-96173600D01*
X106216507Y-96273429D01*
X106216516Y-96273433D01*
X106430000Y-96330634D01*
X106430000Y-95433012D01*
X106487007Y-95465925D01*
X106614174Y-95500000D01*
X106745826Y-95500000D01*
X106872993Y-95465925D01*
X106930000Y-95433012D01*
X106930000Y-96330633D01*
X107143483Y-96273433D01*
X107143492Y-96273429D01*
X107357578Y-96173600D01*
X107551082Y-96038105D01*
X107718105Y-95871082D01*
X107853600Y-95677578D01*
X107953429Y-95463492D01*
X107953432Y-95463486D01*
X108010636Y-95250000D01*
X107113012Y-95250000D01*
X107145925Y-95192993D01*
X107180000Y-95065826D01*
X107180000Y-94934174D01*
X107145925Y-94807007D01*
X107113012Y-94750000D01*
X108010636Y-94750000D01*
X108010635Y-94749999D01*
X107953432Y-94536513D01*
X107953429Y-94536507D01*
X107853600Y-94322422D01*
X107853599Y-94322420D01*
X107718113Y-94128926D01*
X107718108Y-94128920D01*
X107596053Y-94006865D01*
X107562568Y-93945542D01*
X107567552Y-93875850D01*
X107609424Y-93819917D01*
X107640400Y-93803002D01*
X107772331Y-93753796D01*
X107887546Y-93667546D01*
X107973796Y-93552331D01*
X108024091Y-93417483D01*
X108030500Y-93357873D01*
X108030499Y-91562128D01*
X108024091Y-91502517D01*
X108020965Y-91494137D01*
X107973797Y-91367671D01*
X107973793Y-91367664D01*
X107887547Y-91252455D01*
X107887544Y-91252452D01*
X107772335Y-91166206D01*
X107772328Y-91166202D01*
X107637482Y-91115908D01*
X107637483Y-91115908D01*
X107577883Y-91109501D01*
X107577881Y-91109500D01*
X107577873Y-91109500D01*
X107577864Y-91109500D01*
X105782129Y-91109500D01*
X105782123Y-91109501D01*
X105722516Y-91115908D01*
X105587671Y-91166202D01*
X105587664Y-91166206D01*
X105472455Y-91252452D01*
X105472452Y-91252455D01*
X105386206Y-91367664D01*
X105386202Y-91367671D01*
X105335908Y-91502517D01*
X105329958Y-91557865D01*
X105329501Y-91562123D01*
X105329500Y-91562135D01*
X100500500Y-91562135D01*
X100500500Y-80893999D01*
X105324341Y-80893999D01*
X105324341Y-80894000D01*
X105344936Y-81129403D01*
X105344938Y-81129413D01*
X105406094Y-81357655D01*
X105406096Y-81357659D01*
X105406097Y-81357663D01*
X105466323Y-81486817D01*
X105505965Y-81571830D01*
X105505967Y-81571834D01*
X105614281Y-81726521D01*
X105641501Y-81765396D01*
X105641506Y-81765402D01*
X105763430Y-81887326D01*
X105796915Y-81948649D01*
X105791931Y-82018341D01*
X105750059Y-82074274D01*
X105719083Y-82091189D01*
X105587669Y-82140203D01*
X105587664Y-82140206D01*
X105472455Y-82226452D01*
X105472452Y-82226455D01*
X105386206Y-82341664D01*
X105386202Y-82341671D01*
X105335908Y-82476517D01*
X105329501Y-82536116D01*
X105329501Y-82536123D01*
X105329500Y-82536135D01*
X105329500Y-84331870D01*
X105329501Y-84331876D01*
X105335908Y-84391483D01*
X105386202Y-84526328D01*
X105386206Y-84526335D01*
X105472452Y-84641544D01*
X105472455Y-84641547D01*
X105587664Y-84727793D01*
X105587671Y-84727797D01*
X105722517Y-84778091D01*
X105722516Y-84778091D01*
X105729444Y-84778835D01*
X105782127Y-84784500D01*
X107577872Y-84784499D01*
X107637483Y-84778091D01*
X107772331Y-84727796D01*
X107887546Y-84641546D01*
X107973796Y-84526331D01*
X108024091Y-84391483D01*
X108030500Y-84331873D01*
X108030499Y-82536128D01*
X108024091Y-82476517D01*
X107973796Y-82341669D01*
X107973795Y-82341668D01*
X107973793Y-82341664D01*
X107887547Y-82226455D01*
X107887544Y-82226452D01*
X107772335Y-82140206D01*
X107772328Y-82140202D01*
X107640917Y-82091189D01*
X107584983Y-82049318D01*
X107560566Y-81983853D01*
X107575418Y-81915580D01*
X107596563Y-81887332D01*
X107718495Y-81765401D01*
X107854035Y-81571830D01*
X107953903Y-81357663D01*
X108015063Y-81129408D01*
X108035659Y-80894000D01*
X108034979Y-80886233D01*
X108018922Y-80702700D01*
X108015063Y-80658592D01*
X107953903Y-80430337D01*
X107854035Y-80216171D01*
X107744684Y-80060000D01*
X107718494Y-80022597D01*
X107551402Y-79855506D01*
X107551401Y-79855505D01*
X107365405Y-79725269D01*
X107321781Y-79670692D01*
X107314588Y-79601193D01*
X107346110Y-79538839D01*
X107365405Y-79522119D01*
X107551082Y-79392105D01*
X107718105Y-79225082D01*
X107853600Y-79031578D01*
X107953429Y-78817492D01*
X107953432Y-78817486D01*
X108010636Y-78604000D01*
X107113012Y-78604000D01*
X107145925Y-78546993D01*
X107180000Y-78419826D01*
X107180000Y-78288174D01*
X107145925Y-78161007D01*
X107113012Y-78104000D01*
X108010636Y-78104000D01*
X108010635Y-78103999D01*
X107953432Y-77890513D01*
X107953429Y-77890507D01*
X107853600Y-77676422D01*
X107853599Y-77676420D01*
X107718113Y-77482926D01*
X107718108Y-77482920D01*
X107551082Y-77315894D01*
X107357578Y-77180399D01*
X107143492Y-77080570D01*
X107143486Y-77080567D01*
X106930000Y-77023364D01*
X106930000Y-77920988D01*
X106872993Y-77888075D01*
X106745826Y-77854000D01*
X106614174Y-77854000D01*
X106487007Y-77888075D01*
X106430000Y-77920988D01*
X106430000Y-77023364D01*
X106429999Y-77023364D01*
X106216513Y-77080567D01*
X106216507Y-77080570D01*
X106002422Y-77180399D01*
X106002420Y-77180400D01*
X105808926Y-77315886D01*
X105808920Y-77315891D01*
X105641891Y-77482920D01*
X105641886Y-77482926D01*
X105506400Y-77676420D01*
X105506399Y-77676422D01*
X105406570Y-77890507D01*
X105406567Y-77890513D01*
X105349364Y-78103999D01*
X105349364Y-78104000D01*
X106246988Y-78104000D01*
X106214075Y-78161007D01*
X106180000Y-78288174D01*
X106180000Y-78419826D01*
X106214075Y-78546993D01*
X106246988Y-78604000D01*
X105349364Y-78604000D01*
X105406567Y-78817486D01*
X105406570Y-78817492D01*
X105506399Y-79031578D01*
X105641894Y-79225082D01*
X105808917Y-79392105D01*
X105994595Y-79522119D01*
X106038219Y-79576696D01*
X106045412Y-79646195D01*
X106013890Y-79708549D01*
X105994595Y-79725269D01*
X105808594Y-79855508D01*
X105641505Y-80022597D01*
X105505965Y-80216169D01*
X105505964Y-80216171D01*
X105406098Y-80430335D01*
X105406094Y-80430344D01*
X105344938Y-80658586D01*
X105344936Y-80658596D01*
X105324341Y-80893999D01*
X100500500Y-80893999D01*
X100500500Y-68893999D01*
X105324341Y-68893999D01*
X105324341Y-68894000D01*
X105344936Y-69129403D01*
X105344938Y-69129413D01*
X105406094Y-69357655D01*
X105406096Y-69357659D01*
X105406097Y-69357663D01*
X105453990Y-69460370D01*
X105505965Y-69571830D01*
X105505967Y-69571834D01*
X105579465Y-69676799D01*
X105641501Y-69765396D01*
X105641506Y-69765402D01*
X105763430Y-69887326D01*
X105796915Y-69948649D01*
X105791931Y-70018341D01*
X105750059Y-70074274D01*
X105719083Y-70091189D01*
X105587669Y-70140203D01*
X105587664Y-70140206D01*
X105472455Y-70226452D01*
X105472452Y-70226455D01*
X105386206Y-70341664D01*
X105386202Y-70341671D01*
X105335908Y-70476517D01*
X105329501Y-70536116D01*
X105329501Y-70536123D01*
X105329500Y-70536135D01*
X105329500Y-72331870D01*
X105329501Y-72331876D01*
X105335908Y-72391483D01*
X105386202Y-72526328D01*
X105386206Y-72526335D01*
X105472452Y-72641544D01*
X105472455Y-72641547D01*
X105587664Y-72727793D01*
X105587671Y-72727797D01*
X105722517Y-72778091D01*
X105722516Y-72778091D01*
X105729444Y-72778835D01*
X105782127Y-72784500D01*
X107577872Y-72784499D01*
X107637483Y-72778091D01*
X107772331Y-72727796D01*
X107887546Y-72641546D01*
X107973796Y-72526331D01*
X108024091Y-72391483D01*
X108030500Y-72331873D01*
X108030499Y-70536128D01*
X108024091Y-70476517D01*
X107973796Y-70341669D01*
X107973795Y-70341668D01*
X107973793Y-70341664D01*
X107887547Y-70226455D01*
X107887544Y-70226452D01*
X107772335Y-70140206D01*
X107772328Y-70140202D01*
X107640917Y-70091189D01*
X107584983Y-70049318D01*
X107560566Y-69983853D01*
X107575418Y-69915580D01*
X107596563Y-69887332D01*
X107718495Y-69765401D01*
X107854035Y-69571830D01*
X107953903Y-69357663D01*
X108015063Y-69129408D01*
X108035659Y-68894000D01*
X108015063Y-68658592D01*
X107953903Y-68430337D01*
X107854035Y-68216171D01*
X107833073Y-68186233D01*
X107718494Y-68022597D01*
X107551402Y-67855506D01*
X107551401Y-67855505D01*
X107365405Y-67725269D01*
X107321781Y-67670692D01*
X107314588Y-67601193D01*
X107346110Y-67538839D01*
X107365405Y-67522119D01*
X107551082Y-67392105D01*
X107718105Y-67225082D01*
X107853600Y-67031578D01*
X107953429Y-66817492D01*
X107953432Y-66817486D01*
X108010636Y-66604000D01*
X107113012Y-66604000D01*
X107145925Y-66546993D01*
X107180000Y-66419826D01*
X107180000Y-66288174D01*
X107145925Y-66161007D01*
X107113012Y-66104000D01*
X108010636Y-66104000D01*
X108010635Y-66103999D01*
X107953432Y-65890513D01*
X107953429Y-65890507D01*
X107853600Y-65676422D01*
X107853599Y-65676420D01*
X107718113Y-65482926D01*
X107718108Y-65482920D01*
X107551082Y-65315894D01*
X107357578Y-65180399D01*
X107143492Y-65080570D01*
X107143486Y-65080567D01*
X106930000Y-65023364D01*
X106930000Y-65920988D01*
X106872993Y-65888075D01*
X106745826Y-65854000D01*
X106614174Y-65854000D01*
X106487007Y-65888075D01*
X106430000Y-65920988D01*
X106430000Y-65023364D01*
X106429999Y-65023364D01*
X106216513Y-65080567D01*
X106216507Y-65080570D01*
X106002422Y-65180399D01*
X106002420Y-65180400D01*
X105808926Y-65315886D01*
X105808920Y-65315891D01*
X105641891Y-65482920D01*
X105641886Y-65482926D01*
X105506400Y-65676420D01*
X105506399Y-65676422D01*
X105406570Y-65890507D01*
X105406567Y-65890513D01*
X105349364Y-66103999D01*
X105349364Y-66104000D01*
X106246988Y-66104000D01*
X106214075Y-66161007D01*
X106180000Y-66288174D01*
X106180000Y-66419826D01*
X106214075Y-66546993D01*
X106246988Y-66604000D01*
X105349364Y-66604000D01*
X105406567Y-66817486D01*
X105406570Y-66817492D01*
X105506399Y-67031578D01*
X105641894Y-67225082D01*
X105808917Y-67392105D01*
X105994595Y-67522119D01*
X106038219Y-67576696D01*
X106045412Y-67646195D01*
X106013890Y-67708549D01*
X105994595Y-67725269D01*
X105808594Y-67855508D01*
X105641505Y-68022597D01*
X105505965Y-68216169D01*
X105505964Y-68216171D01*
X105406098Y-68430335D01*
X105406094Y-68430344D01*
X105344938Y-68658586D01*
X105344936Y-68658596D01*
X105324341Y-68893999D01*
X100500500Y-68893999D01*
X100500500Y-62279998D01*
X112354609Y-62279998D01*
X112354609Y-62280001D01*
X112374136Y-62503200D01*
X112374137Y-62503208D01*
X112432126Y-62719625D01*
X112432127Y-62719627D01*
X112432128Y-62719630D01*
X112526819Y-62922696D01*
X112526821Y-62922700D01*
X112655329Y-63106228D01*
X112655334Y-63106234D01*
X112813765Y-63264665D01*
X112813771Y-63264670D01*
X112997299Y-63393178D01*
X112997301Y-63393179D01*
X112997304Y-63393181D01*
X113092600Y-63437618D01*
X113145039Y-63483790D01*
X113164191Y-63550984D01*
X113143975Y-63617865D01*
X113092600Y-63662382D01*
X112997306Y-63706818D01*
X112997304Y-63706819D01*
X112813764Y-63835334D01*
X112655334Y-63993764D01*
X112526819Y-64177304D01*
X112526818Y-64177306D01*
X112432129Y-64380368D01*
X112432126Y-64380374D01*
X112374137Y-64596791D01*
X112374136Y-64596799D01*
X112354609Y-64819998D01*
X112354609Y-64820001D01*
X112374136Y-65043200D01*
X112374137Y-65043208D01*
X112432126Y-65259625D01*
X112432127Y-65259627D01*
X112432128Y-65259630D01*
X112526819Y-65462696D01*
X112526821Y-65462700D01*
X112655329Y-65646228D01*
X112655334Y-65646234D01*
X112813765Y-65804665D01*
X112813771Y-65804670D01*
X112997299Y-65933178D01*
X112997301Y-65933179D01*
X112997304Y-65933181D01*
X113092600Y-65977618D01*
X113145039Y-66023790D01*
X113164191Y-66090984D01*
X113143975Y-66157865D01*
X113092600Y-66202382D01*
X112997306Y-66246818D01*
X112997304Y-66246819D01*
X112813764Y-66375334D01*
X112655334Y-66533764D01*
X112526819Y-66717304D01*
X112526818Y-66717306D01*
X112432129Y-66920368D01*
X112432126Y-66920374D01*
X112374137Y-67136791D01*
X112374136Y-67136799D01*
X112354609Y-67359998D01*
X112354609Y-67360001D01*
X112374136Y-67583200D01*
X112374137Y-67583208D01*
X112432126Y-67799625D01*
X112432127Y-67799627D01*
X112432128Y-67799630D01*
X112526819Y-68002696D01*
X112526821Y-68002700D01*
X112655329Y-68186228D01*
X112655334Y-68186234D01*
X112813765Y-68344665D01*
X112813771Y-68344670D01*
X112997299Y-68473178D01*
X112997301Y-68473179D01*
X112997304Y-68473181D01*
X113092600Y-68517618D01*
X113145039Y-68563790D01*
X113164191Y-68630984D01*
X113143975Y-68697865D01*
X113092600Y-68742382D01*
X112997306Y-68786818D01*
X112997304Y-68786819D01*
X112813764Y-68915334D01*
X112655334Y-69073764D01*
X112526819Y-69257304D01*
X112526818Y-69257306D01*
X112432129Y-69460368D01*
X112432126Y-69460374D01*
X112374137Y-69676791D01*
X112374136Y-69676799D01*
X112354609Y-69899998D01*
X112354609Y-69900001D01*
X112374136Y-70123200D01*
X112374137Y-70123208D01*
X112432126Y-70339625D01*
X112432127Y-70339627D01*
X112432128Y-70339630D01*
X112433079Y-70341669D01*
X112526819Y-70542696D01*
X112526821Y-70542700D01*
X112655329Y-70726228D01*
X112655334Y-70726234D01*
X112813765Y-70884665D01*
X112813771Y-70884670D01*
X112997299Y-71013178D01*
X112997301Y-71013179D01*
X112997304Y-71013181D01*
X113092600Y-71057618D01*
X113145039Y-71103790D01*
X113164191Y-71170984D01*
X113143975Y-71237865D01*
X113092600Y-71282382D01*
X112997306Y-71326818D01*
X112997304Y-71326819D01*
X112813764Y-71455334D01*
X112655334Y-71613764D01*
X112526819Y-71797304D01*
X112526818Y-71797306D01*
X112432129Y-72000368D01*
X112432126Y-72000374D01*
X112374137Y-72216791D01*
X112374136Y-72216799D01*
X112354609Y-72439998D01*
X112354609Y-72440001D01*
X112374136Y-72663200D01*
X112374137Y-72663208D01*
X112432126Y-72879625D01*
X112432127Y-72879627D01*
X112432128Y-72879630D01*
X112482896Y-72988502D01*
X112526819Y-73082696D01*
X112526821Y-73082700D01*
X112655329Y-73266228D01*
X112655334Y-73266234D01*
X112813765Y-73424665D01*
X112813771Y-73424670D01*
X112997299Y-73553178D01*
X112997301Y-73553179D01*
X112997304Y-73553181D01*
X113092600Y-73597618D01*
X113145039Y-73643790D01*
X113164191Y-73710984D01*
X113143975Y-73777865D01*
X113092600Y-73822382D01*
X112997306Y-73866818D01*
X112997304Y-73866819D01*
X112813764Y-73995334D01*
X112655334Y-74153764D01*
X112526819Y-74337304D01*
X112526818Y-74337306D01*
X112432129Y-74540368D01*
X112432126Y-74540374D01*
X112374137Y-74756791D01*
X112374136Y-74756799D01*
X112354609Y-74979998D01*
X112354609Y-74980001D01*
X112374136Y-75203200D01*
X112374137Y-75203208D01*
X112432126Y-75419625D01*
X112432127Y-75419627D01*
X112432128Y-75419630D01*
X112453081Y-75464563D01*
X112526819Y-75622696D01*
X112526821Y-75622700D01*
X112655329Y-75806228D01*
X112655334Y-75806234D01*
X112813765Y-75964665D01*
X112813771Y-75964670D01*
X112997299Y-76093178D01*
X112997301Y-76093179D01*
X112997304Y-76093181D01*
X113092006Y-76137341D01*
X113092600Y-76137618D01*
X113145039Y-76183790D01*
X113164191Y-76250984D01*
X113143975Y-76317865D01*
X113092600Y-76362382D01*
X112997306Y-76406818D01*
X112997304Y-76406819D01*
X112813764Y-76535334D01*
X112655334Y-76693764D01*
X112526819Y-76877304D01*
X112526818Y-76877306D01*
X112432129Y-77080368D01*
X112432126Y-77080374D01*
X112374137Y-77296791D01*
X112374136Y-77296799D01*
X112354609Y-77519998D01*
X112354609Y-77520001D01*
X112374136Y-77743200D01*
X112374137Y-77743208D01*
X112432126Y-77959625D01*
X112432127Y-77959627D01*
X112432128Y-77959630D01*
X112472866Y-78046993D01*
X112526819Y-78162696D01*
X112526821Y-78162700D01*
X112655329Y-78346228D01*
X112655334Y-78346234D01*
X112813765Y-78504665D01*
X112813771Y-78504670D01*
X112997299Y-78633178D01*
X112997301Y-78633179D01*
X112997304Y-78633181D01*
X113092600Y-78677618D01*
X113145039Y-78723790D01*
X113164191Y-78790984D01*
X113143975Y-78857865D01*
X113092600Y-78902382D01*
X112997306Y-78946818D01*
X112997304Y-78946819D01*
X112813764Y-79075334D01*
X112655334Y-79233764D01*
X112526819Y-79417304D01*
X112526818Y-79417306D01*
X112432129Y-79620368D01*
X112432126Y-79620374D01*
X112374137Y-79836791D01*
X112374136Y-79836799D01*
X112354609Y-80059998D01*
X112354609Y-80060001D01*
X112374136Y-80283200D01*
X112374137Y-80283208D01*
X112432126Y-80499625D01*
X112432127Y-80499627D01*
X112432128Y-80499630D01*
X112506250Y-80658586D01*
X112526819Y-80702696D01*
X112526821Y-80702700D01*
X112655329Y-80886228D01*
X112655334Y-80886234D01*
X112813765Y-81044665D01*
X112813771Y-81044670D01*
X112997299Y-81173178D01*
X112997301Y-81173179D01*
X112997304Y-81173181D01*
X113092600Y-81217618D01*
X113145039Y-81263790D01*
X113164191Y-81330984D01*
X113143975Y-81397865D01*
X113092600Y-81442382D01*
X112997306Y-81486818D01*
X112997304Y-81486819D01*
X112813764Y-81615334D01*
X112655334Y-81773764D01*
X112526819Y-81957304D01*
X112526818Y-81957306D01*
X112432129Y-82160368D01*
X112432126Y-82160374D01*
X112374137Y-82376791D01*
X112374136Y-82376799D01*
X112354609Y-82599998D01*
X112354609Y-82600001D01*
X112374136Y-82823200D01*
X112374137Y-82823208D01*
X112432126Y-83039625D01*
X112432127Y-83039627D01*
X112432128Y-83039630D01*
X112526819Y-83242696D01*
X112526821Y-83242700D01*
X112655329Y-83426228D01*
X112655334Y-83426234D01*
X112813765Y-83584665D01*
X112813771Y-83584670D01*
X112997299Y-83713178D01*
X112997301Y-83713179D01*
X112997304Y-83713181D01*
X113092600Y-83757618D01*
X113145039Y-83803790D01*
X113164191Y-83870984D01*
X113143975Y-83937865D01*
X113092600Y-83982382D01*
X112997306Y-84026818D01*
X112997304Y-84026819D01*
X112813764Y-84155334D01*
X112655334Y-84313764D01*
X112526819Y-84497304D01*
X112526818Y-84497306D01*
X112432129Y-84700368D01*
X112432126Y-84700374D01*
X112374137Y-84916791D01*
X112374136Y-84916799D01*
X112354609Y-85139998D01*
X112354609Y-85140001D01*
X112374136Y-85363200D01*
X112374137Y-85363208D01*
X112432126Y-85579625D01*
X112432127Y-85579627D01*
X112432128Y-85579630D01*
X112526819Y-85782696D01*
X112526821Y-85782700D01*
X112655329Y-85966228D01*
X112655334Y-85966234D01*
X112813765Y-86124665D01*
X112813771Y-86124670D01*
X112997299Y-86253178D01*
X112997301Y-86253179D01*
X112997304Y-86253181D01*
X113092600Y-86297618D01*
X113145039Y-86343790D01*
X113164191Y-86410984D01*
X113143975Y-86477865D01*
X113092600Y-86522382D01*
X112997306Y-86566818D01*
X112997304Y-86566819D01*
X112813764Y-86695334D01*
X112655334Y-86853764D01*
X112526819Y-87037304D01*
X112526818Y-87037306D01*
X112432129Y-87240368D01*
X112432126Y-87240374D01*
X112374137Y-87456791D01*
X112374136Y-87456799D01*
X112354609Y-87679998D01*
X112354609Y-87680001D01*
X112374136Y-87903200D01*
X112374137Y-87903208D01*
X112432126Y-88119625D01*
X112432127Y-88119627D01*
X112432128Y-88119630D01*
X112482896Y-88228502D01*
X112526819Y-88322696D01*
X112526821Y-88322700D01*
X112655329Y-88506228D01*
X112655334Y-88506234D01*
X112813765Y-88664665D01*
X112813771Y-88664670D01*
X112997299Y-88793178D01*
X112997301Y-88793179D01*
X112997304Y-88793181D01*
X113092600Y-88837618D01*
X113145039Y-88883790D01*
X113164191Y-88950984D01*
X113143975Y-89017865D01*
X113092600Y-89062382D01*
X112997306Y-89106818D01*
X112997304Y-89106819D01*
X112813764Y-89235334D01*
X112655334Y-89393764D01*
X112526819Y-89577304D01*
X112526818Y-89577306D01*
X112432129Y-89780368D01*
X112432126Y-89780374D01*
X112374137Y-89996791D01*
X112374136Y-89996799D01*
X112354609Y-90219998D01*
X112354609Y-90220001D01*
X112374136Y-90443200D01*
X112374137Y-90443208D01*
X112432126Y-90659625D01*
X112432127Y-90659627D01*
X112432128Y-90659630D01*
X112519353Y-90846686D01*
X112526819Y-90862696D01*
X112526821Y-90862700D01*
X112655329Y-91046228D01*
X112655334Y-91046234D01*
X112813765Y-91204665D01*
X112813771Y-91204670D01*
X112997299Y-91333178D01*
X112997301Y-91333179D01*
X112997304Y-91333181D01*
X113093190Y-91377893D01*
X113145630Y-91424065D01*
X113164782Y-91491258D01*
X113144567Y-91558139D01*
X113093192Y-91602657D01*
X112997554Y-91647254D01*
X112928887Y-91695334D01*
X113494260Y-92260707D01*
X113439288Y-92275437D01*
X113320713Y-92343896D01*
X113223896Y-92440713D01*
X113155437Y-92559288D01*
X113140707Y-92614260D01*
X112575334Y-92048887D01*
X112527253Y-92117556D01*
X112432600Y-92320540D01*
X112432596Y-92320549D01*
X112374632Y-92536875D01*
X112374630Y-92536886D01*
X112355111Y-92759997D01*
X112355111Y-92760002D01*
X112374630Y-92983113D01*
X112374632Y-92983124D01*
X112432596Y-93199450D01*
X112432600Y-93199459D01*
X112527252Y-93402443D01*
X112527253Y-93402445D01*
X112575334Y-93471112D01*
X113140707Y-92905739D01*
X113155437Y-92960712D01*
X113223896Y-93079287D01*
X113320713Y-93176104D01*
X113439288Y-93244563D01*
X113494259Y-93259292D01*
X112928886Y-93824664D01*
X112997556Y-93872747D01*
X112997558Y-93872748D01*
X113093190Y-93917342D01*
X113145630Y-93963514D01*
X113164782Y-94030707D01*
X113144567Y-94097588D01*
X113093192Y-94142106D01*
X112997303Y-94186820D01*
X112813764Y-94315334D01*
X112655334Y-94473764D01*
X112526819Y-94657304D01*
X112526818Y-94657306D01*
X112432129Y-94860368D01*
X112432126Y-94860374D01*
X112374137Y-95076791D01*
X112374136Y-95076799D01*
X112354609Y-95299998D01*
X112354609Y-95300001D01*
X112374136Y-95523200D01*
X112374137Y-95523208D01*
X112432126Y-95739625D01*
X112432127Y-95739627D01*
X112432128Y-95739630D01*
X112493425Y-95871082D01*
X112526819Y-95942696D01*
X112526821Y-95942700D01*
X112655329Y-96126228D01*
X112655334Y-96126234D01*
X112813765Y-96284665D01*
X112813771Y-96284670D01*
X112997299Y-96413178D01*
X112997301Y-96413179D01*
X112997304Y-96413181D01*
X113092600Y-96457618D01*
X113145039Y-96503790D01*
X113164191Y-96570984D01*
X113143975Y-96637865D01*
X113092600Y-96682382D01*
X112997306Y-96726818D01*
X112997304Y-96726819D01*
X112813764Y-96855334D01*
X112655334Y-97013764D01*
X112526819Y-97197304D01*
X112526818Y-97197306D01*
X112432129Y-97400368D01*
X112432126Y-97400374D01*
X112374137Y-97616791D01*
X112374136Y-97616799D01*
X112354609Y-97839998D01*
X112354609Y-97840001D01*
X112374136Y-98063200D01*
X112374137Y-98063208D01*
X112432126Y-98279625D01*
X112432127Y-98279627D01*
X112432128Y-98279630D01*
X112526819Y-98482696D01*
X112526821Y-98482700D01*
X112655329Y-98666228D01*
X112655334Y-98666234D01*
X112813765Y-98824665D01*
X112813771Y-98824670D01*
X112997299Y-98953178D01*
X112997301Y-98953179D01*
X112997304Y-98953181D01*
X113033137Y-98969890D01*
X113092600Y-98997618D01*
X113145039Y-99043790D01*
X113164191Y-99110984D01*
X113143975Y-99177865D01*
X113092600Y-99222382D01*
X112997306Y-99266818D01*
X112997304Y-99266819D01*
X112813764Y-99395334D01*
X112655334Y-99553764D01*
X112526819Y-99737304D01*
X112526818Y-99737306D01*
X112432129Y-99940368D01*
X112432126Y-99940374D01*
X112374137Y-100156791D01*
X112374136Y-100156799D01*
X112354609Y-100379998D01*
X112354609Y-100380001D01*
X112374136Y-100603200D01*
X112374137Y-100603208D01*
X112432126Y-100819625D01*
X112432127Y-100819627D01*
X112432128Y-100819630D01*
X112460182Y-100879792D01*
X112526819Y-101022696D01*
X112526821Y-101022700D01*
X112655329Y-101206228D01*
X112655334Y-101206234D01*
X112813765Y-101364665D01*
X112813771Y-101364670D01*
X112997299Y-101493178D01*
X112997301Y-101493179D01*
X112997304Y-101493181D01*
X113092600Y-101537618D01*
X113145039Y-101583790D01*
X113164191Y-101650984D01*
X113143975Y-101717865D01*
X113092600Y-101762382D01*
X112997306Y-101806818D01*
X112997304Y-101806819D01*
X112813764Y-101935334D01*
X112655334Y-102093764D01*
X112526819Y-102277304D01*
X112526818Y-102277306D01*
X112432129Y-102480368D01*
X112432126Y-102480374D01*
X112374137Y-102696791D01*
X112374136Y-102696799D01*
X112354609Y-102919998D01*
X112354609Y-102920001D01*
X112374136Y-103143200D01*
X112374137Y-103143208D01*
X112432126Y-103359625D01*
X112432127Y-103359627D01*
X112432128Y-103359630D01*
X112526717Y-103562478D01*
X112526819Y-103562696D01*
X112526821Y-103562700D01*
X112655329Y-103746228D01*
X112655334Y-103746234D01*
X112813765Y-103904665D01*
X112813771Y-103904670D01*
X112997299Y-104033178D01*
X112997301Y-104033179D01*
X112997304Y-104033181D01*
X113092600Y-104077618D01*
X113145039Y-104123790D01*
X113164191Y-104190984D01*
X113143975Y-104257865D01*
X113092600Y-104302382D01*
X112997306Y-104346818D01*
X112997304Y-104346819D01*
X112813764Y-104475334D01*
X112655334Y-104633764D01*
X112526819Y-104817304D01*
X112526818Y-104817306D01*
X112432129Y-105020368D01*
X112432126Y-105020374D01*
X112374137Y-105236791D01*
X112374136Y-105236799D01*
X112354609Y-105459998D01*
X112354609Y-105460001D01*
X112374136Y-105683200D01*
X112374137Y-105683208D01*
X112432126Y-105899625D01*
X112432127Y-105899627D01*
X112432128Y-105899630D01*
X112526819Y-106102696D01*
X112526821Y-106102700D01*
X112655329Y-106286228D01*
X112655334Y-106286234D01*
X112813765Y-106444665D01*
X112813771Y-106444670D01*
X112997299Y-106573178D01*
X112997301Y-106573179D01*
X112997304Y-106573181D01*
X113200370Y-106667872D01*
X113416794Y-106725863D01*
X113576226Y-106739811D01*
X113639998Y-106745391D01*
X113640000Y-106745391D01*
X113640002Y-106745391D01*
X113695801Y-106740509D01*
X113863206Y-106725863D01*
X114079630Y-106667872D01*
X114282696Y-106573181D01*
X114466233Y-106444667D01*
X114624667Y-106286233D01*
X114753181Y-106102696D01*
X114847872Y-105899630D01*
X114905863Y-105683206D01*
X114925391Y-105460000D01*
X114905863Y-105236794D01*
X114847872Y-105020370D01*
X114753181Y-104817305D01*
X114624667Y-104633767D01*
X114466233Y-104475333D01*
X114466229Y-104475330D01*
X114466228Y-104475329D01*
X114282700Y-104346821D01*
X114282692Y-104346817D01*
X114187400Y-104302382D01*
X114134960Y-104256210D01*
X114115808Y-104189017D01*
X114136023Y-104122135D01*
X114187400Y-104077618D01*
X114282696Y-104033181D01*
X114466233Y-103904667D01*
X114624667Y-103746233D01*
X114753181Y-103562696D01*
X114847872Y-103359630D01*
X114905863Y-103143206D01*
X114925391Y-102920000D01*
X114905863Y-102696794D01*
X114847872Y-102480370D01*
X114753181Y-102277305D01*
X114624667Y-102093767D01*
X114466233Y-101935333D01*
X114466229Y-101935330D01*
X114466228Y-101935329D01*
X114282700Y-101806821D01*
X114282692Y-101806817D01*
X114224895Y-101779866D01*
X114187399Y-101762381D01*
X114134960Y-101716210D01*
X114115808Y-101649017D01*
X114136023Y-101582135D01*
X114187400Y-101537618D01*
X114282696Y-101493181D01*
X114466233Y-101364667D01*
X114624667Y-101206233D01*
X114753181Y-101022696D01*
X114847872Y-100819630D01*
X114905863Y-100603206D01*
X114925391Y-100380000D01*
X114905863Y-100156794D01*
X114847872Y-99940370D01*
X114826115Y-99893713D01*
X123649500Y-99893713D01*
X123649500Y-100106287D01*
X123682754Y-100316243D01*
X123703470Y-100380001D01*
X123748444Y-100518414D01*
X123844951Y-100707820D01*
X123969890Y-100879786D01*
X124120213Y-101030109D01*
X124292179Y-101155048D01*
X124292181Y-101155049D01*
X124292184Y-101155051D01*
X124481588Y-101251557D01*
X124683757Y-101317246D01*
X124893713Y-101350500D01*
X124893714Y-101350500D01*
X125106286Y-101350500D01*
X125106287Y-101350500D01*
X125316243Y-101317246D01*
X125518412Y-101251557D01*
X125707816Y-101155051D01*
X125729789Y-101139086D01*
X125879786Y-101030109D01*
X125879788Y-101030106D01*
X125879792Y-101030104D01*
X126030104Y-100879792D01*
X126030106Y-100879788D01*
X126030109Y-100879786D01*
X126155048Y-100707820D01*
X126155047Y-100707820D01*
X126155051Y-100707816D01*
X126251557Y-100518412D01*
X126317246Y-100316243D01*
X126350500Y-100106287D01*
X126350500Y-99893713D01*
X126317246Y-99683757D01*
X126251557Y-99481588D01*
X126155051Y-99292184D01*
X126155049Y-99292181D01*
X126155048Y-99292179D01*
X126030109Y-99120213D01*
X125879786Y-98969890D01*
X125707820Y-98844951D01*
X125518414Y-98748444D01*
X125518413Y-98748443D01*
X125518412Y-98748443D01*
X125316243Y-98682754D01*
X125316241Y-98682753D01*
X125316240Y-98682753D01*
X125154957Y-98657208D01*
X125106287Y-98649500D01*
X124893713Y-98649500D01*
X124845042Y-98657208D01*
X124683760Y-98682753D01*
X124481585Y-98748444D01*
X124292179Y-98844951D01*
X124120213Y-98969890D01*
X123969890Y-99120213D01*
X123844951Y-99292179D01*
X123748444Y-99481585D01*
X123682753Y-99683760D01*
X123649500Y-99893713D01*
X114826115Y-99893713D01*
X114753181Y-99737305D01*
X114624667Y-99553767D01*
X114466233Y-99395333D01*
X114466229Y-99395330D01*
X114466228Y-99395329D01*
X114282700Y-99266821D01*
X114282692Y-99266817D01*
X114187400Y-99222382D01*
X114134960Y-99176210D01*
X114115808Y-99109017D01*
X114136023Y-99042135D01*
X114187400Y-98997618D01*
X114282696Y-98953181D01*
X114466233Y-98824667D01*
X114624667Y-98666233D01*
X114753181Y-98482696D01*
X114847872Y-98279630D01*
X114905863Y-98063206D01*
X114925391Y-97840000D01*
X114905863Y-97616794D01*
X114847872Y-97400370D01*
X114753181Y-97197305D01*
X114624667Y-97013767D01*
X114466233Y-96855333D01*
X114466229Y-96855330D01*
X114466228Y-96855329D01*
X114282700Y-96726821D01*
X114282692Y-96726817D01*
X114187400Y-96682382D01*
X114134960Y-96636210D01*
X114115808Y-96569017D01*
X114136023Y-96502135D01*
X114187400Y-96457618D01*
X114282696Y-96413181D01*
X114466233Y-96284667D01*
X114624667Y-96126233D01*
X114753181Y-95942696D01*
X114847872Y-95739630D01*
X114905863Y-95523206D01*
X114925391Y-95300000D01*
X114905863Y-95076794D01*
X114847872Y-94860370D01*
X114753181Y-94657305D01*
X114643038Y-94500003D01*
X114624668Y-94473768D01*
X114624664Y-94473764D01*
X114466233Y-94315333D01*
X114466229Y-94315330D01*
X114466228Y-94315329D01*
X114282700Y-94186821D01*
X114282696Y-94186819D01*
X114186808Y-94142106D01*
X114134369Y-94095934D01*
X114115217Y-94028740D01*
X114135433Y-93961859D01*
X114186809Y-93917341D01*
X114282450Y-93872743D01*
X114282451Y-93872742D01*
X114351112Y-93824665D01*
X113785739Y-93259292D01*
X113840712Y-93244563D01*
X113959287Y-93176104D01*
X114056104Y-93079287D01*
X114124563Y-92960712D01*
X114139292Y-92905739D01*
X114704665Y-93471112D01*
X114752742Y-93402451D01*
X114752746Y-93402445D01*
X114847399Y-93199459D01*
X114847403Y-93199450D01*
X114905367Y-92983124D01*
X114905369Y-92983113D01*
X114924889Y-92760002D01*
X114924889Y-92759997D01*
X114905369Y-92536886D01*
X114905367Y-92536875D01*
X114847403Y-92320549D01*
X114847399Y-92320540D01*
X114752747Y-92117557D01*
X114752746Y-92117555D01*
X114704664Y-92048887D01*
X114704664Y-92048886D01*
X114139292Y-92614259D01*
X114124563Y-92559288D01*
X114056104Y-92440713D01*
X113959287Y-92343896D01*
X113840712Y-92275437D01*
X113785740Y-92260707D01*
X114351112Y-91695334D01*
X114351112Y-91695333D01*
X114282445Y-91647253D01*
X114282443Y-91647252D01*
X114186808Y-91602657D01*
X114134369Y-91556485D01*
X114115217Y-91489291D01*
X114135433Y-91422410D01*
X114186804Y-91377895D01*
X114282696Y-91333181D01*
X114466233Y-91204667D01*
X114624667Y-91046233D01*
X114753181Y-90862696D01*
X114847872Y-90659630D01*
X114858491Y-90619998D01*
X118694532Y-90619998D01*
X118694532Y-90620001D01*
X118714364Y-90846686D01*
X118714366Y-90846697D01*
X118773258Y-91066488D01*
X118773261Y-91066497D01*
X118869431Y-91272732D01*
X118869432Y-91272734D01*
X118999954Y-91459141D01*
X119160858Y-91620045D01*
X119160861Y-91620047D01*
X119347266Y-91750568D01*
X119553504Y-91846739D01*
X119773308Y-91905635D01*
X119935230Y-91919801D01*
X119999998Y-91925468D01*
X120000000Y-91925468D01*
X120000002Y-91925468D01*
X120056673Y-91920509D01*
X120226692Y-91905635D01*
X120446496Y-91846739D01*
X120652734Y-91750568D01*
X120839139Y-91620047D01*
X121000047Y-91459139D01*
X121130568Y-91272734D01*
X121226739Y-91066496D01*
X121285635Y-90846692D01*
X121305468Y-90620000D01*
X121285635Y-90393308D01*
X121226739Y-90173504D01*
X121130568Y-89967266D01*
X121000047Y-89780861D01*
X121000045Y-89780858D01*
X120839141Y-89619954D01*
X120652734Y-89489432D01*
X120652732Y-89489431D01*
X120446497Y-89393261D01*
X120446488Y-89393258D01*
X120226697Y-89334366D01*
X120226693Y-89334365D01*
X120226692Y-89334365D01*
X120226691Y-89334364D01*
X120226686Y-89334364D01*
X120000002Y-89314532D01*
X119999998Y-89314532D01*
X119773313Y-89334364D01*
X119773302Y-89334366D01*
X119553511Y-89393258D01*
X119553502Y-89393261D01*
X119347267Y-89489431D01*
X119347265Y-89489432D01*
X119160858Y-89619954D01*
X118999954Y-89780858D01*
X118869432Y-89967265D01*
X118869431Y-89967267D01*
X118773261Y-90173502D01*
X118773258Y-90173511D01*
X118714366Y-90393302D01*
X118714364Y-90393313D01*
X118694532Y-90619998D01*
X114858491Y-90619998D01*
X114905863Y-90443206D01*
X114925391Y-90220000D01*
X114905863Y-89996794D01*
X114847872Y-89780370D01*
X114753181Y-89577305D01*
X114624667Y-89393767D01*
X114466233Y-89235333D01*
X114466229Y-89235330D01*
X114466228Y-89235329D01*
X114282700Y-89106821D01*
X114282692Y-89106817D01*
X114187400Y-89062382D01*
X114134960Y-89016210D01*
X114115808Y-88949017D01*
X114136023Y-88882135D01*
X114187400Y-88837618D01*
X114282696Y-88793181D01*
X114451479Y-88674998D01*
X123734532Y-88674998D01*
X123734532Y-88675001D01*
X123754364Y-88901686D01*
X123754366Y-88901697D01*
X123813258Y-89121488D01*
X123813261Y-89121497D01*
X123909431Y-89327732D01*
X123909432Y-89327734D01*
X124039954Y-89514141D01*
X124200858Y-89675045D01*
X124200861Y-89675047D01*
X124387266Y-89805568D01*
X124593504Y-89901739D01*
X124813308Y-89960635D01*
X124975230Y-89974801D01*
X125039998Y-89980468D01*
X125040000Y-89980468D01*
X125040002Y-89980468D01*
X125096673Y-89975509D01*
X125266692Y-89960635D01*
X125486496Y-89901739D01*
X125692734Y-89805568D01*
X125879139Y-89675047D01*
X126040047Y-89514139D01*
X126049950Y-89499996D01*
X135694435Y-89499996D01*
X135694435Y-89500003D01*
X135714630Y-89679249D01*
X135714631Y-89679254D01*
X135742542Y-89759017D01*
X135749500Y-89799972D01*
X135749500Y-94200028D01*
X135742542Y-94240982D01*
X135714631Y-94320747D01*
X135694435Y-94499996D01*
X135694435Y-94500003D01*
X135714630Y-94679249D01*
X135714631Y-94679254D01*
X135774211Y-94849523D01*
X135827401Y-94934174D01*
X135870184Y-95002262D01*
X135997738Y-95129816D01*
X136088080Y-95186582D01*
X136098283Y-95192993D01*
X136150478Y-95225789D01*
X136320745Y-95285368D01*
X136320750Y-95285369D01*
X136499996Y-95305565D01*
X136500000Y-95305565D01*
X136500004Y-95305565D01*
X136679249Y-95285369D01*
X136679252Y-95285368D01*
X136679255Y-95285368D01*
X136849522Y-95225789D01*
X137002262Y-95129816D01*
X137129816Y-95002262D01*
X137225789Y-94849522D01*
X137285368Y-94679255D01*
X137287841Y-94657305D01*
X137305565Y-94500003D01*
X137305565Y-94499996D01*
X137285368Y-94320747D01*
X137285368Y-94320745D01*
X137257458Y-94240982D01*
X137250500Y-94200028D01*
X137250500Y-89799972D01*
X137257458Y-89759017D01*
X137285368Y-89679254D01*
X137285369Y-89679249D01*
X137305565Y-89500003D01*
X137305565Y-89499996D01*
X137285369Y-89320750D01*
X137285368Y-89320745D01*
X137255481Y-89235333D01*
X137225789Y-89150478D01*
X137207578Y-89121496D01*
X137186582Y-89088080D01*
X137129816Y-88997738D01*
X137002262Y-88870184D01*
X136950434Y-88837618D01*
X136849523Y-88774211D01*
X136679254Y-88714631D01*
X136679249Y-88714630D01*
X136500004Y-88694435D01*
X136499996Y-88694435D01*
X136320750Y-88714630D01*
X136320745Y-88714631D01*
X136150476Y-88774211D01*
X135997737Y-88870184D01*
X135870184Y-88997737D01*
X135774211Y-89150476D01*
X135714631Y-89320745D01*
X135714630Y-89320750D01*
X135694435Y-89499996D01*
X126049950Y-89499996D01*
X126170568Y-89327734D01*
X126266739Y-89121496D01*
X126325635Y-88901692D01*
X126345468Y-88675000D01*
X126325635Y-88448308D01*
X126266739Y-88228504D01*
X126170568Y-88022266D01*
X126040047Y-87835861D01*
X126040045Y-87835858D01*
X125879141Y-87674954D01*
X125692734Y-87544432D01*
X125692732Y-87544431D01*
X125486497Y-87448261D01*
X125486488Y-87448258D01*
X125266697Y-87389366D01*
X125266693Y-87389365D01*
X125266692Y-87389365D01*
X125266691Y-87389364D01*
X125266686Y-87389364D01*
X125040002Y-87369532D01*
X125039998Y-87369532D01*
X124813313Y-87389364D01*
X124813302Y-87389366D01*
X124593511Y-87448258D01*
X124593502Y-87448261D01*
X124387267Y-87544431D01*
X124387265Y-87544432D01*
X124200858Y-87674954D01*
X124039954Y-87835858D01*
X123909432Y-88022265D01*
X123909431Y-88022267D01*
X123813261Y-88228502D01*
X123813258Y-88228511D01*
X123754366Y-88448302D01*
X123754364Y-88448313D01*
X123734532Y-88674998D01*
X114451479Y-88674998D01*
X114466233Y-88664667D01*
X114624667Y-88506233D01*
X114753181Y-88322696D01*
X114847872Y-88119630D01*
X114905863Y-87903206D01*
X114925391Y-87680000D01*
X114924949Y-87674953D01*
X114905863Y-87456799D01*
X114905863Y-87456794D01*
X114847872Y-87240370D01*
X114753181Y-87037305D01*
X114624667Y-86853767D01*
X114466233Y-86695333D01*
X114466229Y-86695330D01*
X114466228Y-86695329D01*
X114282700Y-86566821D01*
X114282692Y-86566817D01*
X114187400Y-86522382D01*
X114134960Y-86476210D01*
X114115808Y-86409017D01*
X114136023Y-86342135D01*
X114187400Y-86297618D01*
X114282696Y-86253181D01*
X114466233Y-86124667D01*
X114624667Y-85966233D01*
X114753181Y-85782696D01*
X114847872Y-85579630D01*
X114905863Y-85363206D01*
X114925391Y-85140000D01*
X114905863Y-84916794D01*
X114847872Y-84700370D01*
X114753181Y-84497305D01*
X114624667Y-84313767D01*
X114466233Y-84155333D01*
X114466229Y-84155330D01*
X114466228Y-84155329D01*
X114282700Y-84026821D01*
X114282692Y-84026817D01*
X114187400Y-83982382D01*
X114134960Y-83936210D01*
X114115808Y-83869017D01*
X114136023Y-83802135D01*
X114187400Y-83757618D01*
X114282696Y-83713181D01*
X114466233Y-83584667D01*
X114624667Y-83426233D01*
X114753181Y-83242696D01*
X114847872Y-83039630D01*
X114905863Y-82823206D01*
X114925391Y-82600000D01*
X114905863Y-82376794D01*
X114847872Y-82160370D01*
X114753181Y-81957305D01*
X114624667Y-81773767D01*
X114466233Y-81615333D01*
X114466229Y-81615330D01*
X114466228Y-81615329D01*
X114282700Y-81486821D01*
X114282692Y-81486817D01*
X114187400Y-81442382D01*
X114134960Y-81396210D01*
X114115808Y-81329017D01*
X114136023Y-81262135D01*
X114187400Y-81217618D01*
X114282696Y-81173181D01*
X114466233Y-81044667D01*
X114624667Y-80886233D01*
X114753181Y-80702696D01*
X114847872Y-80499630D01*
X114905863Y-80283206D01*
X114925391Y-80060000D01*
X114905863Y-79836794D01*
X114847872Y-79620370D01*
X114753181Y-79417305D01*
X114624667Y-79233767D01*
X114466233Y-79075333D01*
X114466229Y-79075330D01*
X114466228Y-79075329D01*
X114282700Y-78946821D01*
X114282692Y-78946817D01*
X114187400Y-78902382D01*
X114134960Y-78856210D01*
X114115808Y-78789017D01*
X114136023Y-78722135D01*
X114187400Y-78677618D01*
X114282696Y-78633181D01*
X114466233Y-78504667D01*
X114624667Y-78346233D01*
X114753181Y-78162696D01*
X114847872Y-77959630D01*
X114905863Y-77743206D01*
X114925391Y-77520000D01*
X114922147Y-77482926D01*
X114907534Y-77315894D01*
X114905863Y-77296794D01*
X114847872Y-77080370D01*
X114753181Y-76877305D01*
X114624667Y-76693767D01*
X114466233Y-76535333D01*
X114466229Y-76535330D01*
X114466228Y-76535329D01*
X114282700Y-76406821D01*
X114282692Y-76406817D01*
X114187400Y-76362382D01*
X114134960Y-76316210D01*
X114115808Y-76249017D01*
X114136023Y-76182135D01*
X114187400Y-76137618D01*
X114187994Y-76137341D01*
X114282696Y-76093181D01*
X114466233Y-75964667D01*
X114624667Y-75806233D01*
X114753181Y-75622696D01*
X114847872Y-75419630D01*
X114858491Y-75379998D01*
X118694532Y-75379998D01*
X118694532Y-75380001D01*
X118714364Y-75606686D01*
X118714366Y-75606697D01*
X118773258Y-75826488D01*
X118773261Y-75826497D01*
X118869431Y-76032732D01*
X118869432Y-76032734D01*
X118999954Y-76219141D01*
X119160858Y-76380045D01*
X119160861Y-76380047D01*
X119347266Y-76510568D01*
X119553504Y-76606739D01*
X119773308Y-76665635D01*
X119935230Y-76679801D01*
X119999998Y-76685468D01*
X120000000Y-76685468D01*
X120000002Y-76685468D01*
X120056673Y-76680509D01*
X120226692Y-76665635D01*
X120446496Y-76606739D01*
X120652734Y-76510568D01*
X120839139Y-76380047D01*
X121000047Y-76219139D01*
X121130568Y-76032734D01*
X121226739Y-75826496D01*
X121285635Y-75606692D01*
X121305468Y-75380000D01*
X121285635Y-75153308D01*
X121226739Y-74933504D01*
X121130568Y-74727266D01*
X121000047Y-74540861D01*
X121000045Y-74540858D01*
X120839141Y-74379954D01*
X120652734Y-74249432D01*
X120652732Y-74249431D01*
X120446497Y-74153261D01*
X120446488Y-74153258D01*
X120226697Y-74094366D01*
X120226693Y-74094365D01*
X120226692Y-74094365D01*
X120226691Y-74094364D01*
X120226686Y-74094364D01*
X120000002Y-74074532D01*
X119999998Y-74074532D01*
X119773313Y-74094364D01*
X119773302Y-74094366D01*
X119553511Y-74153258D01*
X119553502Y-74153261D01*
X119347267Y-74249431D01*
X119347265Y-74249432D01*
X119160858Y-74379954D01*
X118999954Y-74540858D01*
X118869432Y-74727265D01*
X118869431Y-74727267D01*
X118773261Y-74933502D01*
X118773258Y-74933511D01*
X118714366Y-75153302D01*
X118714364Y-75153313D01*
X118694532Y-75379998D01*
X114858491Y-75379998D01*
X114905863Y-75203206D01*
X114925391Y-74980000D01*
X114905863Y-74756794D01*
X114847872Y-74540370D01*
X114753181Y-74337305D01*
X114624667Y-74153767D01*
X114466233Y-73995333D01*
X114466229Y-73995330D01*
X114466228Y-73995329D01*
X114282700Y-73866821D01*
X114282692Y-73866817D01*
X114187400Y-73822382D01*
X114134960Y-73776210D01*
X114115808Y-73709017D01*
X114136023Y-73642135D01*
X114187400Y-73597618D01*
X114282696Y-73553181D01*
X114451479Y-73434998D01*
X123734532Y-73434998D01*
X123734532Y-73435001D01*
X123754364Y-73661686D01*
X123754366Y-73661697D01*
X123813258Y-73881488D01*
X123813261Y-73881497D01*
X123909431Y-74087732D01*
X123909432Y-74087734D01*
X124039954Y-74274141D01*
X124200858Y-74435045D01*
X124200861Y-74435047D01*
X124387266Y-74565568D01*
X124593504Y-74661739D01*
X124813308Y-74720635D01*
X124975230Y-74734801D01*
X125039998Y-74740468D01*
X125040000Y-74740468D01*
X125040002Y-74740468D01*
X125096673Y-74735509D01*
X125266692Y-74720635D01*
X125486496Y-74661739D01*
X125692734Y-74565568D01*
X125879139Y-74435047D01*
X126040047Y-74274139D01*
X126170568Y-74087734D01*
X126266739Y-73881496D01*
X126325635Y-73661692D01*
X126345468Y-73435000D01*
X126325635Y-73208308D01*
X126266739Y-72988504D01*
X126170568Y-72782266D01*
X126040047Y-72595861D01*
X126040045Y-72595858D01*
X125879141Y-72434954D01*
X125692734Y-72304432D01*
X125692732Y-72304431D01*
X125486497Y-72208261D01*
X125486488Y-72208258D01*
X125266697Y-72149366D01*
X125266693Y-72149365D01*
X125266692Y-72149365D01*
X125266691Y-72149364D01*
X125266686Y-72149364D01*
X125040002Y-72129532D01*
X125039998Y-72129532D01*
X124813313Y-72149364D01*
X124813302Y-72149366D01*
X124593511Y-72208258D01*
X124593502Y-72208261D01*
X124387267Y-72304431D01*
X124387265Y-72304432D01*
X124200858Y-72434954D01*
X124039954Y-72595858D01*
X123909432Y-72782265D01*
X123909431Y-72782267D01*
X123813261Y-72988502D01*
X123813258Y-72988511D01*
X123754366Y-73208302D01*
X123754364Y-73208313D01*
X123734532Y-73434998D01*
X114451479Y-73434998D01*
X114466233Y-73424667D01*
X114624667Y-73266233D01*
X114753181Y-73082696D01*
X114847872Y-72879630D01*
X114905863Y-72663206D01*
X114925391Y-72440000D01*
X114924949Y-72434953D01*
X114905863Y-72216799D01*
X114905863Y-72216794D01*
X114847872Y-72000370D01*
X114753181Y-71797305D01*
X114624667Y-71613767D01*
X114466233Y-71455333D01*
X114466229Y-71455330D01*
X114466228Y-71455329D01*
X114282700Y-71326821D01*
X114282692Y-71326817D01*
X114187400Y-71282382D01*
X114134960Y-71236210D01*
X114115808Y-71169017D01*
X114136023Y-71102135D01*
X114187400Y-71057618D01*
X114282696Y-71013181D01*
X114466233Y-70884667D01*
X114624667Y-70726233D01*
X114753181Y-70542696D01*
X114847872Y-70339630D01*
X114905863Y-70123206D01*
X114925391Y-69900000D01*
X114905863Y-69676794D01*
X114847872Y-69460370D01*
X114753181Y-69257305D01*
X114624667Y-69073767D01*
X114466233Y-68915333D01*
X114466229Y-68915330D01*
X114466228Y-68915329D01*
X114282700Y-68786821D01*
X114282692Y-68786817D01*
X114187400Y-68742382D01*
X114134960Y-68696210D01*
X114115808Y-68629017D01*
X114136023Y-68562135D01*
X114187400Y-68517618D01*
X114282696Y-68473181D01*
X114466233Y-68344667D01*
X114624667Y-68186233D01*
X114753181Y-68002696D01*
X114847872Y-67799630D01*
X114905863Y-67583206D01*
X114925391Y-67360000D01*
X114905863Y-67136794D01*
X114847872Y-66920370D01*
X114753181Y-66717305D01*
X114624667Y-66533767D01*
X114466233Y-66375333D01*
X114466229Y-66375330D01*
X114466228Y-66375329D01*
X114282700Y-66246821D01*
X114282692Y-66246817D01*
X114187400Y-66202382D01*
X114134960Y-66156210D01*
X114115808Y-66089017D01*
X114136023Y-66022135D01*
X114187400Y-65977618D01*
X114282696Y-65933181D01*
X114466233Y-65804667D01*
X114624667Y-65646233D01*
X114753181Y-65462696D01*
X114847872Y-65259630D01*
X114905863Y-65043206D01*
X114925391Y-64820000D01*
X114905863Y-64596794D01*
X114847872Y-64380370D01*
X114753181Y-64177305D01*
X114624667Y-63993767D01*
X114466233Y-63835333D01*
X114466229Y-63835330D01*
X114466228Y-63835329D01*
X114282700Y-63706821D01*
X114282692Y-63706817D01*
X114187400Y-63662382D01*
X114134960Y-63616210D01*
X114115808Y-63549017D01*
X114136023Y-63482135D01*
X114187400Y-63437618D01*
X114282696Y-63393181D01*
X114466233Y-63264667D01*
X114624667Y-63106233D01*
X114753181Y-62922696D01*
X114847872Y-62719630D01*
X114905863Y-62503206D01*
X114925391Y-62280000D01*
X114925391Y-62279998D01*
X137754609Y-62279998D01*
X137754609Y-62280001D01*
X137774136Y-62503200D01*
X137774137Y-62503208D01*
X137832126Y-62719625D01*
X137832127Y-62719627D01*
X137832128Y-62719630D01*
X137926819Y-62922696D01*
X137926821Y-62922700D01*
X138055329Y-63106228D01*
X138055334Y-63106234D01*
X138213765Y-63264665D01*
X138213771Y-63264670D01*
X138397299Y-63393178D01*
X138397301Y-63393179D01*
X138397304Y-63393181D01*
X138492600Y-63437618D01*
X138545039Y-63483790D01*
X138564191Y-63550984D01*
X138543975Y-63617865D01*
X138492600Y-63662382D01*
X138397306Y-63706818D01*
X138397304Y-63706819D01*
X138213764Y-63835334D01*
X138055334Y-63993764D01*
X137926819Y-64177304D01*
X137926818Y-64177306D01*
X137832129Y-64380368D01*
X137832126Y-64380374D01*
X137774137Y-64596791D01*
X137774136Y-64596799D01*
X137754609Y-64819998D01*
X137754609Y-64820001D01*
X137774136Y-65043200D01*
X137774137Y-65043208D01*
X137832126Y-65259625D01*
X137832127Y-65259627D01*
X137832128Y-65259630D01*
X137926819Y-65462696D01*
X137926821Y-65462700D01*
X138055329Y-65646228D01*
X138055334Y-65646234D01*
X138213765Y-65804665D01*
X138213771Y-65804670D01*
X138397299Y-65933178D01*
X138397301Y-65933179D01*
X138397304Y-65933181D01*
X138492600Y-65977618D01*
X138545039Y-66023790D01*
X138564191Y-66090984D01*
X138543975Y-66157865D01*
X138492600Y-66202382D01*
X138397306Y-66246818D01*
X138397304Y-66246819D01*
X138213764Y-66375334D01*
X138055334Y-66533764D01*
X137926819Y-66717304D01*
X137926818Y-66717306D01*
X137832129Y-66920368D01*
X137832126Y-66920374D01*
X137774137Y-67136791D01*
X137774136Y-67136799D01*
X137754609Y-67359998D01*
X137754609Y-67360001D01*
X137774136Y-67583200D01*
X137774137Y-67583208D01*
X137832126Y-67799625D01*
X137832127Y-67799627D01*
X137832128Y-67799630D01*
X137926819Y-68002696D01*
X137926821Y-68002700D01*
X138055329Y-68186228D01*
X138055334Y-68186234D01*
X138213765Y-68344665D01*
X138213771Y-68344670D01*
X138397299Y-68473178D01*
X138397301Y-68473179D01*
X138397304Y-68473181D01*
X138492600Y-68517618D01*
X138545039Y-68563790D01*
X138564191Y-68630984D01*
X138543975Y-68697865D01*
X138492600Y-68742382D01*
X138397306Y-68786818D01*
X138397304Y-68786819D01*
X138213764Y-68915334D01*
X138055334Y-69073764D01*
X137926819Y-69257304D01*
X137926818Y-69257306D01*
X137832129Y-69460368D01*
X137832126Y-69460374D01*
X137774137Y-69676791D01*
X137774136Y-69676799D01*
X137754609Y-69899998D01*
X137754609Y-69900001D01*
X137774136Y-70123200D01*
X137774137Y-70123208D01*
X137832126Y-70339625D01*
X137832127Y-70339627D01*
X137832128Y-70339630D01*
X137833079Y-70341669D01*
X137926819Y-70542696D01*
X137926821Y-70542700D01*
X138055329Y-70726228D01*
X138055334Y-70726234D01*
X138213765Y-70884665D01*
X138213771Y-70884670D01*
X138397299Y-71013178D01*
X138397301Y-71013179D01*
X138397304Y-71013181D01*
X138492600Y-71057618D01*
X138545039Y-71103790D01*
X138564191Y-71170984D01*
X138543975Y-71237865D01*
X138492600Y-71282382D01*
X138397306Y-71326818D01*
X138397304Y-71326819D01*
X138213764Y-71455334D01*
X138055334Y-71613764D01*
X137926819Y-71797304D01*
X137926818Y-71797306D01*
X137832129Y-72000368D01*
X137832126Y-72000374D01*
X137774137Y-72216791D01*
X137774136Y-72216799D01*
X137754609Y-72439998D01*
X137754609Y-72440001D01*
X137774136Y-72663200D01*
X137774137Y-72663208D01*
X137832126Y-72879625D01*
X137832127Y-72879627D01*
X137832128Y-72879630D01*
X137882896Y-72988502D01*
X137926819Y-73082696D01*
X137926821Y-73082700D01*
X138055329Y-73266228D01*
X138055334Y-73266234D01*
X138213765Y-73424665D01*
X138213771Y-73424670D01*
X138397299Y-73553178D01*
X138397301Y-73553179D01*
X138397304Y-73553181D01*
X138493190Y-73597893D01*
X138545630Y-73644065D01*
X138564782Y-73711258D01*
X138544567Y-73778139D01*
X138493192Y-73822657D01*
X138397554Y-73867254D01*
X138328887Y-73915334D01*
X138894260Y-74480707D01*
X138839288Y-74495437D01*
X138720713Y-74563896D01*
X138623896Y-74660713D01*
X138555437Y-74779288D01*
X138540707Y-74834260D01*
X137975334Y-74268887D01*
X137927253Y-74337556D01*
X137832600Y-74540540D01*
X137832596Y-74540549D01*
X137774632Y-74756875D01*
X137774630Y-74756886D01*
X137755111Y-74979997D01*
X137755111Y-74980002D01*
X137774630Y-75203113D01*
X137774632Y-75203124D01*
X137832596Y-75419450D01*
X137832600Y-75419459D01*
X137927252Y-75622443D01*
X137927253Y-75622445D01*
X137975334Y-75691112D01*
X138540707Y-75125739D01*
X138555437Y-75180712D01*
X138623896Y-75299287D01*
X138720713Y-75396104D01*
X138839288Y-75464563D01*
X138894259Y-75479292D01*
X138328886Y-76044664D01*
X138397556Y-76092747D01*
X138397558Y-76092748D01*
X138493190Y-76137342D01*
X138545630Y-76183514D01*
X138564782Y-76250707D01*
X138544567Y-76317588D01*
X138493192Y-76362106D01*
X138397303Y-76406820D01*
X138213764Y-76535334D01*
X138055334Y-76693764D01*
X137926819Y-76877304D01*
X137926818Y-76877306D01*
X137832129Y-77080368D01*
X137832126Y-77080374D01*
X137774137Y-77296791D01*
X137774136Y-77296799D01*
X137754609Y-77519998D01*
X137754609Y-77520001D01*
X137774136Y-77743200D01*
X137774137Y-77743208D01*
X137832126Y-77959625D01*
X137832127Y-77959627D01*
X137832128Y-77959630D01*
X137872866Y-78046993D01*
X137926819Y-78162696D01*
X137926821Y-78162700D01*
X138055329Y-78346228D01*
X138055334Y-78346234D01*
X138213765Y-78504665D01*
X138213771Y-78504670D01*
X138397299Y-78633178D01*
X138397301Y-78633179D01*
X138397304Y-78633181D01*
X138492600Y-78677618D01*
X138545039Y-78723790D01*
X138564191Y-78790984D01*
X138543975Y-78857865D01*
X138492600Y-78902382D01*
X138397306Y-78946818D01*
X138397304Y-78946819D01*
X138213764Y-79075334D01*
X138055334Y-79233764D01*
X137926819Y-79417304D01*
X137926818Y-79417306D01*
X137832129Y-79620368D01*
X137832126Y-79620374D01*
X137774137Y-79836791D01*
X137774136Y-79836799D01*
X137754609Y-80059998D01*
X137754609Y-80060001D01*
X137774136Y-80283200D01*
X137774137Y-80283208D01*
X137832126Y-80499625D01*
X137832127Y-80499627D01*
X137832128Y-80499630D01*
X137906250Y-80658586D01*
X137926819Y-80702696D01*
X137926821Y-80702700D01*
X138055329Y-80886228D01*
X138055334Y-80886234D01*
X138213765Y-81044665D01*
X138213771Y-81044670D01*
X138397299Y-81173178D01*
X138397301Y-81173179D01*
X138397304Y-81173181D01*
X138492600Y-81217618D01*
X138545039Y-81263790D01*
X138564191Y-81330984D01*
X138543975Y-81397865D01*
X138492600Y-81442382D01*
X138397306Y-81486818D01*
X138397304Y-81486819D01*
X138213764Y-81615334D01*
X138055334Y-81773764D01*
X137926819Y-81957304D01*
X137926818Y-81957306D01*
X137832129Y-82160368D01*
X137832126Y-82160374D01*
X137774137Y-82376791D01*
X137774136Y-82376799D01*
X137754609Y-82599998D01*
X137754609Y-82600001D01*
X137774136Y-82823200D01*
X137774137Y-82823208D01*
X137832126Y-83039625D01*
X137832127Y-83039627D01*
X137832128Y-83039630D01*
X137926819Y-83242696D01*
X137926821Y-83242700D01*
X138055329Y-83426228D01*
X138055334Y-83426234D01*
X138213765Y-83584665D01*
X138213771Y-83584670D01*
X138397299Y-83713178D01*
X138397301Y-83713179D01*
X138397304Y-83713181D01*
X138492600Y-83757618D01*
X138545039Y-83803790D01*
X138564191Y-83870984D01*
X138543975Y-83937865D01*
X138492600Y-83982382D01*
X138397306Y-84026818D01*
X138397304Y-84026819D01*
X138213764Y-84155334D01*
X138055334Y-84313764D01*
X137926819Y-84497304D01*
X137926818Y-84497306D01*
X137832129Y-84700368D01*
X137832126Y-84700374D01*
X137774137Y-84916791D01*
X137774136Y-84916799D01*
X137754609Y-85139998D01*
X137754609Y-85140001D01*
X137774136Y-85363200D01*
X137774137Y-85363208D01*
X137832126Y-85579625D01*
X137832127Y-85579627D01*
X137832128Y-85579630D01*
X137926819Y-85782696D01*
X137926821Y-85782700D01*
X138055329Y-85966228D01*
X138055334Y-85966234D01*
X138213765Y-86124665D01*
X138213771Y-86124670D01*
X138397299Y-86253178D01*
X138397301Y-86253179D01*
X138397304Y-86253181D01*
X138492600Y-86297618D01*
X138545039Y-86343790D01*
X138564191Y-86410984D01*
X138543975Y-86477865D01*
X138492600Y-86522382D01*
X138397306Y-86566818D01*
X138397304Y-86566819D01*
X138213764Y-86695334D01*
X138055334Y-86853764D01*
X137926819Y-87037304D01*
X137926818Y-87037306D01*
X137832129Y-87240368D01*
X137832126Y-87240374D01*
X137774137Y-87456791D01*
X137774136Y-87456799D01*
X137754609Y-87679998D01*
X137754609Y-87680001D01*
X137774136Y-87903200D01*
X137774137Y-87903208D01*
X137832126Y-88119625D01*
X137832127Y-88119627D01*
X137832128Y-88119630D01*
X137882896Y-88228502D01*
X137926819Y-88322696D01*
X137926821Y-88322700D01*
X138055329Y-88506228D01*
X138055334Y-88506234D01*
X138213765Y-88664665D01*
X138213771Y-88664670D01*
X138397299Y-88793178D01*
X138397301Y-88793179D01*
X138397304Y-88793181D01*
X138492600Y-88837618D01*
X138545039Y-88883790D01*
X138564191Y-88950984D01*
X138543975Y-89017865D01*
X138492600Y-89062382D01*
X138397306Y-89106818D01*
X138397304Y-89106819D01*
X138213764Y-89235334D01*
X138055334Y-89393764D01*
X137926819Y-89577304D01*
X137926818Y-89577306D01*
X137832129Y-89780368D01*
X137832126Y-89780374D01*
X137774137Y-89996791D01*
X137774136Y-89996799D01*
X137754609Y-90219998D01*
X137754609Y-90220001D01*
X137774136Y-90443200D01*
X137774137Y-90443208D01*
X137832126Y-90659625D01*
X137832127Y-90659627D01*
X137832128Y-90659630D01*
X137919353Y-90846686D01*
X137926819Y-90862696D01*
X137926821Y-90862700D01*
X138055329Y-91046228D01*
X138055334Y-91046234D01*
X138213765Y-91204665D01*
X138213771Y-91204670D01*
X138397299Y-91333178D01*
X138397301Y-91333179D01*
X138397304Y-91333181D01*
X138492600Y-91377618D01*
X138545039Y-91423790D01*
X138564191Y-91490984D01*
X138543975Y-91557865D01*
X138492600Y-91602382D01*
X138397306Y-91646818D01*
X138397304Y-91646819D01*
X138213764Y-91775334D01*
X138055334Y-91933764D01*
X137926819Y-92117304D01*
X137926818Y-92117306D01*
X137832129Y-92320368D01*
X137832126Y-92320374D01*
X137774137Y-92536791D01*
X137774136Y-92536799D01*
X137754609Y-92759998D01*
X137754609Y-92760001D01*
X137774136Y-92983200D01*
X137774137Y-92983208D01*
X137832126Y-93199625D01*
X137832127Y-93199627D01*
X137832128Y-93199630D01*
X137926701Y-93402443D01*
X137926819Y-93402696D01*
X137926821Y-93402700D01*
X138055329Y-93586228D01*
X138055334Y-93586234D01*
X138213765Y-93744665D01*
X138213771Y-93744670D01*
X138397299Y-93873178D01*
X138397301Y-93873179D01*
X138397304Y-93873181D01*
X138492006Y-93917341D01*
X138492600Y-93917618D01*
X138545039Y-93963790D01*
X138564191Y-94030984D01*
X138543975Y-94097865D01*
X138492600Y-94142382D01*
X138397306Y-94186818D01*
X138397304Y-94186819D01*
X138213764Y-94315334D01*
X138055334Y-94473764D01*
X137926819Y-94657304D01*
X137926818Y-94657306D01*
X137832129Y-94860368D01*
X137832126Y-94860374D01*
X137774137Y-95076791D01*
X137774136Y-95076799D01*
X137754609Y-95299998D01*
X137754609Y-95300001D01*
X137774136Y-95523200D01*
X137774137Y-95523208D01*
X137832126Y-95739625D01*
X137832127Y-95739627D01*
X137832128Y-95739630D01*
X137893425Y-95871082D01*
X137926819Y-95942696D01*
X137926821Y-95942700D01*
X138055329Y-96126228D01*
X138055334Y-96126234D01*
X138213765Y-96284665D01*
X138213771Y-96284670D01*
X138397299Y-96413178D01*
X138397301Y-96413179D01*
X138397304Y-96413181D01*
X138492600Y-96457618D01*
X138545039Y-96503790D01*
X138564191Y-96570984D01*
X138543975Y-96637865D01*
X138492600Y-96682382D01*
X138397306Y-96726818D01*
X138397304Y-96726819D01*
X138213764Y-96855334D01*
X138055334Y-97013764D01*
X137926819Y-97197304D01*
X137926818Y-97197306D01*
X137832129Y-97400368D01*
X137832126Y-97400374D01*
X137774137Y-97616791D01*
X137774136Y-97616799D01*
X137754609Y-97839998D01*
X137754609Y-97840001D01*
X137774136Y-98063200D01*
X137774137Y-98063208D01*
X137832126Y-98279625D01*
X137832127Y-98279627D01*
X137832128Y-98279630D01*
X137926819Y-98482696D01*
X137926821Y-98482700D01*
X138055329Y-98666228D01*
X138055334Y-98666234D01*
X138213765Y-98824665D01*
X138213771Y-98824670D01*
X138397299Y-98953178D01*
X138397301Y-98953179D01*
X138397304Y-98953181D01*
X138433137Y-98969890D01*
X138492600Y-98997618D01*
X138545039Y-99043790D01*
X138564191Y-99110984D01*
X138543975Y-99177865D01*
X138492600Y-99222382D01*
X138397306Y-99266818D01*
X138397304Y-99266819D01*
X138213764Y-99395334D01*
X138055334Y-99553764D01*
X137926819Y-99737304D01*
X137926818Y-99737306D01*
X137832129Y-99940368D01*
X137832126Y-99940374D01*
X137774137Y-100156791D01*
X137774136Y-100156799D01*
X137754609Y-100379998D01*
X137754609Y-100380001D01*
X137774136Y-100603200D01*
X137774137Y-100603208D01*
X137832126Y-100819625D01*
X137832127Y-100819627D01*
X137832128Y-100819630D01*
X137860182Y-100879792D01*
X137926819Y-101022696D01*
X137926821Y-101022700D01*
X138055329Y-101206228D01*
X138055334Y-101206234D01*
X138213765Y-101364665D01*
X138213771Y-101364670D01*
X138397299Y-101493178D01*
X138397301Y-101493179D01*
X138397304Y-101493181D01*
X138492600Y-101537618D01*
X138545039Y-101583790D01*
X138564191Y-101650984D01*
X138543975Y-101717865D01*
X138492600Y-101762382D01*
X138397306Y-101806818D01*
X138397304Y-101806819D01*
X138213764Y-101935334D01*
X138055334Y-102093764D01*
X137926819Y-102277304D01*
X137926818Y-102277306D01*
X137832129Y-102480368D01*
X137832126Y-102480374D01*
X137774137Y-102696791D01*
X137774136Y-102696799D01*
X137754609Y-102919998D01*
X137754609Y-102920001D01*
X137774136Y-103143200D01*
X137774137Y-103143208D01*
X137832126Y-103359625D01*
X137832127Y-103359627D01*
X137832128Y-103359630D01*
X137926717Y-103562478D01*
X137926819Y-103562696D01*
X137926821Y-103562700D01*
X138055329Y-103746228D01*
X138055334Y-103746234D01*
X138213765Y-103904665D01*
X138213771Y-103904670D01*
X138397299Y-104033178D01*
X138397301Y-104033179D01*
X138397304Y-104033181D01*
X138492600Y-104077618D01*
X138545039Y-104123790D01*
X138564191Y-104190984D01*
X138543975Y-104257865D01*
X138492600Y-104302382D01*
X138397306Y-104346818D01*
X138397304Y-104346819D01*
X138213764Y-104475334D01*
X138055334Y-104633764D01*
X137926819Y-104817304D01*
X137926818Y-104817306D01*
X137832129Y-105020368D01*
X137832126Y-105020374D01*
X137774137Y-105236791D01*
X137774136Y-105236799D01*
X137754609Y-105459998D01*
X137754609Y-105460001D01*
X137774136Y-105683200D01*
X137774137Y-105683208D01*
X137832126Y-105899625D01*
X137832127Y-105899627D01*
X137832128Y-105899630D01*
X137926819Y-106102696D01*
X137926821Y-106102700D01*
X138055329Y-106286228D01*
X138055334Y-106286234D01*
X138213765Y-106444665D01*
X138213771Y-106444670D01*
X138397299Y-106573178D01*
X138397301Y-106573179D01*
X138397304Y-106573181D01*
X138600370Y-106667872D01*
X138816794Y-106725863D01*
X138976226Y-106739811D01*
X139039998Y-106745391D01*
X139040000Y-106745391D01*
X139040002Y-106745391D01*
X139095801Y-106740509D01*
X139263206Y-106725863D01*
X139479630Y-106667872D01*
X139682696Y-106573181D01*
X139866233Y-106444667D01*
X140024667Y-106286233D01*
X140153181Y-106102696D01*
X140247872Y-105899630D01*
X140305863Y-105683206D01*
X140325391Y-105460000D01*
X140305863Y-105236794D01*
X140247872Y-105020370D01*
X140153181Y-104817305D01*
X140024667Y-104633767D01*
X139866233Y-104475333D01*
X139866229Y-104475330D01*
X139866228Y-104475329D01*
X139682700Y-104346821D01*
X139682692Y-104346817D01*
X139587400Y-104302382D01*
X139534960Y-104256210D01*
X139515808Y-104189017D01*
X139536023Y-104122135D01*
X139587400Y-104077618D01*
X139682696Y-104033181D01*
X139866233Y-103904667D01*
X140024667Y-103746233D01*
X140153181Y-103562696D01*
X140247872Y-103359630D01*
X140305863Y-103143206D01*
X140325391Y-102920000D01*
X140305863Y-102696794D01*
X140247872Y-102480370D01*
X140153181Y-102277305D01*
X140024667Y-102093767D01*
X139866233Y-101935333D01*
X139866229Y-101935330D01*
X139866228Y-101935329D01*
X139682700Y-101806821D01*
X139682692Y-101806817D01*
X139624895Y-101779866D01*
X139587399Y-101762381D01*
X139534960Y-101716210D01*
X139515808Y-101649017D01*
X139536023Y-101582135D01*
X139587400Y-101537618D01*
X139682696Y-101493181D01*
X139866233Y-101364667D01*
X140024667Y-101206233D01*
X140153181Y-101022696D01*
X140247872Y-100819630D01*
X140305863Y-100603206D01*
X140325391Y-100380000D01*
X140305863Y-100156794D01*
X140247872Y-99940370D01*
X140153181Y-99737305D01*
X140024667Y-99553767D01*
X139866233Y-99395333D01*
X139866229Y-99395330D01*
X139866228Y-99395329D01*
X139682700Y-99266821D01*
X139682692Y-99266817D01*
X139587400Y-99222382D01*
X139534960Y-99176210D01*
X139515808Y-99109017D01*
X139536023Y-99042135D01*
X139587400Y-98997618D01*
X139682696Y-98953181D01*
X139866233Y-98824667D01*
X140024667Y-98666233D01*
X140153181Y-98482696D01*
X140247872Y-98279630D01*
X140305863Y-98063206D01*
X140325391Y-97840000D01*
X140305863Y-97616794D01*
X140247872Y-97400370D01*
X140153181Y-97197305D01*
X140024667Y-97013767D01*
X139866233Y-96855333D01*
X139866229Y-96855330D01*
X139866228Y-96855329D01*
X139682700Y-96726821D01*
X139682692Y-96726817D01*
X139587400Y-96682382D01*
X139534960Y-96636210D01*
X139515808Y-96569017D01*
X139536023Y-96502135D01*
X139587400Y-96457618D01*
X139682696Y-96413181D01*
X139866233Y-96284667D01*
X140024667Y-96126233D01*
X140153181Y-95942696D01*
X140247872Y-95739630D01*
X140305863Y-95523206D01*
X140325391Y-95300000D01*
X140305863Y-95076794D01*
X140247872Y-94860370D01*
X140153181Y-94657305D01*
X140043038Y-94500003D01*
X140024668Y-94473768D01*
X140024664Y-94473764D01*
X139866233Y-94315333D01*
X139866229Y-94315330D01*
X139866228Y-94315329D01*
X139682700Y-94186821D01*
X139682692Y-94186817D01*
X139587400Y-94142382D01*
X139534960Y-94096210D01*
X139515808Y-94029017D01*
X139536023Y-93962135D01*
X139587400Y-93917618D01*
X139587994Y-93917341D01*
X139682696Y-93873181D01*
X139866233Y-93744667D01*
X140024667Y-93586233D01*
X140153181Y-93402696D01*
X140247872Y-93199630D01*
X140305863Y-92983206D01*
X140325391Y-92760000D01*
X140305863Y-92536794D01*
X140247872Y-92320370D01*
X140153181Y-92117305D01*
X140024667Y-91933767D01*
X139866233Y-91775333D01*
X139866229Y-91775330D01*
X139866228Y-91775329D01*
X139682700Y-91646821D01*
X139682692Y-91646817D01*
X139587400Y-91602382D01*
X139534960Y-91556210D01*
X139515808Y-91489017D01*
X139536023Y-91422135D01*
X139587400Y-91377618D01*
X139682696Y-91333181D01*
X139866233Y-91204667D01*
X140024667Y-91046233D01*
X140153181Y-90862696D01*
X140247872Y-90659630D01*
X140305863Y-90443206D01*
X140325391Y-90220000D01*
X140305863Y-89996794D01*
X140247872Y-89780370D01*
X140153181Y-89577305D01*
X140024667Y-89393767D01*
X139866233Y-89235333D01*
X139866229Y-89235330D01*
X139866228Y-89235329D01*
X139682700Y-89106821D01*
X139682692Y-89106817D01*
X139587400Y-89062382D01*
X139534960Y-89016210D01*
X139515808Y-88949017D01*
X139536023Y-88882135D01*
X139587400Y-88837618D01*
X139682696Y-88793181D01*
X139866233Y-88664667D01*
X140024667Y-88506233D01*
X140153181Y-88322696D01*
X140247872Y-88119630D01*
X140305863Y-87903206D01*
X140325391Y-87680000D01*
X140324949Y-87674953D01*
X140305863Y-87456799D01*
X140305863Y-87456794D01*
X140247872Y-87240370D01*
X140153181Y-87037305D01*
X140024667Y-86853767D01*
X139866233Y-86695333D01*
X139866229Y-86695330D01*
X139866228Y-86695329D01*
X139682700Y-86566821D01*
X139682692Y-86566817D01*
X139587400Y-86522382D01*
X139534960Y-86476210D01*
X139515808Y-86409017D01*
X139536023Y-86342135D01*
X139587400Y-86297618D01*
X139682696Y-86253181D01*
X139866233Y-86124667D01*
X140024667Y-85966233D01*
X140153181Y-85782696D01*
X140247872Y-85579630D01*
X140305863Y-85363206D01*
X140325391Y-85140000D01*
X140305863Y-84916794D01*
X140247872Y-84700370D01*
X140153181Y-84497305D01*
X140024667Y-84313767D01*
X139866233Y-84155333D01*
X139866229Y-84155330D01*
X139866228Y-84155329D01*
X139682700Y-84026821D01*
X139682692Y-84026817D01*
X139587400Y-83982382D01*
X139534960Y-83936210D01*
X139515808Y-83869017D01*
X139536023Y-83802135D01*
X139587400Y-83757618D01*
X139682696Y-83713181D01*
X139866233Y-83584667D01*
X140024667Y-83426233D01*
X140153181Y-83242696D01*
X140247872Y-83039630D01*
X140305863Y-82823206D01*
X140325391Y-82600000D01*
X140305863Y-82376794D01*
X140247872Y-82160370D01*
X140153181Y-81957305D01*
X140024667Y-81773767D01*
X139866233Y-81615333D01*
X139866229Y-81615330D01*
X139866228Y-81615329D01*
X139682700Y-81486821D01*
X139682692Y-81486817D01*
X139587400Y-81442382D01*
X139534960Y-81396210D01*
X139515808Y-81329017D01*
X139536023Y-81262135D01*
X139587400Y-81217618D01*
X139682696Y-81173181D01*
X139866233Y-81044667D01*
X140024667Y-80886233D01*
X140153181Y-80702696D01*
X140247872Y-80499630D01*
X140305863Y-80283206D01*
X140325391Y-80060000D01*
X140305863Y-79836794D01*
X140247872Y-79620370D01*
X140153181Y-79417305D01*
X140024667Y-79233767D01*
X139866233Y-79075333D01*
X139866229Y-79075330D01*
X139866228Y-79075329D01*
X139682700Y-78946821D01*
X139682692Y-78946817D01*
X139587400Y-78902382D01*
X139534960Y-78856210D01*
X139515808Y-78789017D01*
X139536023Y-78722135D01*
X139587400Y-78677618D01*
X139682696Y-78633181D01*
X139866233Y-78504667D01*
X140024667Y-78346233D01*
X140153181Y-78162696D01*
X140247872Y-77959630D01*
X140305863Y-77743206D01*
X140325391Y-77520000D01*
X140322147Y-77482926D01*
X140307534Y-77315894D01*
X140305863Y-77296794D01*
X140247872Y-77080370D01*
X140153181Y-76877305D01*
X140024667Y-76693767D01*
X139866233Y-76535333D01*
X139866229Y-76535330D01*
X139866228Y-76535329D01*
X139682700Y-76406821D01*
X139682696Y-76406819D01*
X139586808Y-76362106D01*
X139534369Y-76315934D01*
X139515217Y-76248740D01*
X139535433Y-76181859D01*
X139586809Y-76137341D01*
X139682450Y-76092743D01*
X139682451Y-76092742D01*
X139751112Y-76044665D01*
X139185739Y-75479292D01*
X139240712Y-75464563D01*
X139359287Y-75396104D01*
X139456104Y-75299287D01*
X139524563Y-75180712D01*
X139539292Y-75125739D01*
X140104665Y-75691112D01*
X140152742Y-75622451D01*
X140152746Y-75622445D01*
X140247399Y-75419459D01*
X140247403Y-75419450D01*
X140305367Y-75203124D01*
X140305369Y-75203113D01*
X140324889Y-74980002D01*
X140324889Y-74979997D01*
X140305369Y-74756886D01*
X140305367Y-74756875D01*
X140247403Y-74540549D01*
X140247399Y-74540540D01*
X140152747Y-74337557D01*
X140152746Y-74337555D01*
X140104664Y-74268887D01*
X140104664Y-74268886D01*
X139539292Y-74834259D01*
X139524563Y-74779288D01*
X139456104Y-74660713D01*
X139359287Y-74563896D01*
X139240712Y-74495437D01*
X139185740Y-74480707D01*
X139751112Y-73915334D01*
X139751112Y-73915333D01*
X139682445Y-73867253D01*
X139682443Y-73867252D01*
X139586808Y-73822657D01*
X139534369Y-73776485D01*
X139515217Y-73709291D01*
X139535433Y-73642410D01*
X139586804Y-73597895D01*
X139682696Y-73553181D01*
X139866233Y-73424667D01*
X140024667Y-73266233D01*
X140153181Y-73082696D01*
X140247872Y-72879630D01*
X140305863Y-72663206D01*
X140325391Y-72440000D01*
X140324949Y-72434953D01*
X140305863Y-72216799D01*
X140305863Y-72216794D01*
X140247872Y-72000370D01*
X140153181Y-71797305D01*
X140024667Y-71613767D01*
X139866233Y-71455333D01*
X139866229Y-71455330D01*
X139866228Y-71455329D01*
X139682700Y-71326821D01*
X139682692Y-71326817D01*
X139587400Y-71282382D01*
X139534960Y-71236210D01*
X139515808Y-71169017D01*
X139536023Y-71102135D01*
X139587400Y-71057618D01*
X139682696Y-71013181D01*
X139866233Y-70884667D01*
X140024667Y-70726233D01*
X140153181Y-70542696D01*
X140247872Y-70339630D01*
X140305863Y-70123206D01*
X140325391Y-69900000D01*
X140305863Y-69676794D01*
X140247872Y-69460370D01*
X140153181Y-69257305D01*
X140024667Y-69073767D01*
X139866233Y-68915333D01*
X139866229Y-68915330D01*
X139866228Y-68915329D01*
X139682700Y-68786821D01*
X139682692Y-68786817D01*
X139587400Y-68742382D01*
X139534960Y-68696210D01*
X139515808Y-68629017D01*
X139536023Y-68562135D01*
X139587400Y-68517618D01*
X139682696Y-68473181D01*
X139866233Y-68344667D01*
X140024667Y-68186233D01*
X140153181Y-68002696D01*
X140247872Y-67799630D01*
X140305863Y-67583206D01*
X140325391Y-67360000D01*
X140305863Y-67136794D01*
X140247872Y-66920370D01*
X140153181Y-66717305D01*
X140024667Y-66533767D01*
X139866233Y-66375333D01*
X139866229Y-66375330D01*
X139866228Y-66375329D01*
X139682700Y-66246821D01*
X139682692Y-66246817D01*
X139587400Y-66202382D01*
X139534960Y-66156210D01*
X139515808Y-66089017D01*
X139536023Y-66022135D01*
X139587400Y-65977618D01*
X139682696Y-65933181D01*
X139866233Y-65804667D01*
X140024667Y-65646233D01*
X140153181Y-65462696D01*
X140247872Y-65259630D01*
X140305863Y-65043206D01*
X140325391Y-64820000D01*
X140305863Y-64596794D01*
X140247872Y-64380370D01*
X140153181Y-64177305D01*
X140024667Y-63993767D01*
X139866233Y-63835333D01*
X139866229Y-63835330D01*
X139866228Y-63835329D01*
X139682700Y-63706821D01*
X139682692Y-63706817D01*
X139587400Y-63662382D01*
X139534960Y-63616210D01*
X139515808Y-63549017D01*
X139536023Y-63482135D01*
X139587400Y-63437618D01*
X139682696Y-63393181D01*
X139866233Y-63264667D01*
X140024667Y-63106233D01*
X140153181Y-62922696D01*
X140247872Y-62719630D01*
X140305863Y-62503206D01*
X140325391Y-62280000D01*
X140305863Y-62056794D01*
X140247872Y-61840370D01*
X140153181Y-61637305D01*
X140024667Y-61453767D01*
X139866233Y-61295333D01*
X139866229Y-61295330D01*
X139866228Y-61295329D01*
X139682700Y-61166821D01*
X139682696Y-61166819D01*
X139586807Y-61122105D01*
X139534369Y-61075934D01*
X139515217Y-61008740D01*
X139535433Y-60941859D01*
X139586809Y-60897341D01*
X139682450Y-60852743D01*
X139682451Y-60852742D01*
X139751112Y-60804665D01*
X139185739Y-60239292D01*
X139240712Y-60224563D01*
X139359287Y-60156104D01*
X139456104Y-60059287D01*
X139524563Y-59940712D01*
X139539292Y-59885739D01*
X140104665Y-60451112D01*
X140152742Y-60382451D01*
X140152746Y-60382445D01*
X140247399Y-60179459D01*
X140247403Y-60179450D01*
X140305367Y-59963124D01*
X140305369Y-59963113D01*
X140324889Y-59740002D01*
X140324889Y-59739997D01*
X140305369Y-59516886D01*
X140305367Y-59516875D01*
X140247403Y-59300549D01*
X140247399Y-59300540D01*
X140152747Y-59097557D01*
X140152746Y-59097555D01*
X140104664Y-59028887D01*
X140104664Y-59028886D01*
X139539292Y-59594259D01*
X139524563Y-59539288D01*
X139456104Y-59420713D01*
X139359287Y-59323896D01*
X139240712Y-59255437D01*
X139185740Y-59240707D01*
X139751112Y-58675334D01*
X139751112Y-58675333D01*
X139682445Y-58627253D01*
X139682443Y-58627252D01*
X139479459Y-58532600D01*
X139479450Y-58532596D01*
X139263124Y-58474632D01*
X139263113Y-58474630D01*
X139040002Y-58455111D01*
X139039998Y-58455111D01*
X138816886Y-58474630D01*
X138816875Y-58474632D01*
X138600549Y-58532596D01*
X138600540Y-58532600D01*
X138397556Y-58627253D01*
X138328887Y-58675334D01*
X138894260Y-59240707D01*
X138839288Y-59255437D01*
X138720713Y-59323896D01*
X138623896Y-59420713D01*
X138555437Y-59539288D01*
X138540707Y-59594260D01*
X137975334Y-59028887D01*
X137927253Y-59097556D01*
X137832600Y-59300540D01*
X137832596Y-59300549D01*
X137774632Y-59516875D01*
X137774630Y-59516886D01*
X137755111Y-59739997D01*
X137755111Y-59740002D01*
X137774630Y-59963113D01*
X137774632Y-59963124D01*
X137832596Y-60179450D01*
X137832600Y-60179459D01*
X137927252Y-60382443D01*
X137927253Y-60382445D01*
X137975334Y-60451112D01*
X138540707Y-59885739D01*
X138555437Y-59940712D01*
X138623896Y-60059287D01*
X138720713Y-60156104D01*
X138839288Y-60224563D01*
X138894259Y-60239292D01*
X138328886Y-60804664D01*
X138397556Y-60852747D01*
X138397558Y-60852748D01*
X138493190Y-60897342D01*
X138545630Y-60943514D01*
X138564782Y-61010707D01*
X138544567Y-61077588D01*
X138493191Y-61122106D01*
X138407389Y-61162117D01*
X138397303Y-61166820D01*
X138213764Y-61295334D01*
X138055334Y-61453764D01*
X137926819Y-61637304D01*
X137926818Y-61637306D01*
X137832129Y-61840368D01*
X137832126Y-61840374D01*
X137774137Y-62056791D01*
X137774136Y-62056799D01*
X137754609Y-62279998D01*
X114925391Y-62279998D01*
X114905863Y-62056794D01*
X114847872Y-61840370D01*
X114753181Y-61637305D01*
X114624667Y-61453767D01*
X114466233Y-61295333D01*
X114466229Y-61295330D01*
X114466228Y-61295329D01*
X114395884Y-61246074D01*
X114352259Y-61191497D01*
X114345065Y-61121999D01*
X114376588Y-61059644D01*
X114436817Y-61024230D01*
X114464570Y-61020800D01*
X114464564Y-61020676D01*
X114466347Y-61020580D01*
X114467007Y-61020499D01*
X114467871Y-61020499D01*
X114467872Y-61020499D01*
X114527483Y-61014091D01*
X114662331Y-60963796D01*
X114777546Y-60877546D01*
X114863796Y-60762331D01*
X114914091Y-60627483D01*
X114920500Y-60567873D01*
X114920500Y-59893713D01*
X123649500Y-59893713D01*
X123649500Y-60106287D01*
X123682754Y-60316243D01*
X123704266Y-60382451D01*
X123748444Y-60518414D01*
X123844951Y-60707820D01*
X123969890Y-60879786D01*
X124120213Y-61030109D01*
X124292179Y-61155048D01*
X124292181Y-61155049D01*
X124292184Y-61155051D01*
X124481588Y-61251557D01*
X124683757Y-61317246D01*
X124893713Y-61350500D01*
X124893714Y-61350500D01*
X125106286Y-61350500D01*
X125106287Y-61350500D01*
X125316243Y-61317246D01*
X125518412Y-61251557D01*
X125707816Y-61155051D01*
X125753161Y-61122106D01*
X125879786Y-61030109D01*
X125879788Y-61030106D01*
X125879792Y-61030104D01*
X126030104Y-60879792D01*
X126030106Y-60879788D01*
X126030109Y-60879786D01*
X126155048Y-60707820D01*
X126155047Y-60707820D01*
X126155051Y-60707816D01*
X126251557Y-60518412D01*
X126317246Y-60316243D01*
X126350500Y-60106287D01*
X126350500Y-59893713D01*
X126317246Y-59683757D01*
X126251557Y-59481588D01*
X126155051Y-59292184D01*
X126155049Y-59292181D01*
X126155048Y-59292179D01*
X126030109Y-59120213D01*
X125879786Y-58969890D01*
X125707820Y-58844951D01*
X125518414Y-58748444D01*
X125518413Y-58748443D01*
X125518412Y-58748443D01*
X125316243Y-58682754D01*
X125316241Y-58682753D01*
X125316240Y-58682753D01*
X125154957Y-58657208D01*
X125106287Y-58649500D01*
X124893713Y-58649500D01*
X124845042Y-58657208D01*
X124683760Y-58682753D01*
X124481585Y-58748444D01*
X124292179Y-58844951D01*
X124120213Y-58969890D01*
X123969890Y-59120213D01*
X123844951Y-59292179D01*
X123748444Y-59481585D01*
X123682753Y-59683760D01*
X123663003Y-59808459D01*
X123649500Y-59893713D01*
X114920500Y-59893713D01*
X114920499Y-58912128D01*
X114914091Y-58852517D01*
X114911268Y-58844949D01*
X114863797Y-58717671D01*
X114863793Y-58717664D01*
X114777547Y-58602455D01*
X114777544Y-58602452D01*
X114662335Y-58516206D01*
X114662328Y-58516202D01*
X114527482Y-58465908D01*
X114527483Y-58465908D01*
X114467883Y-58459501D01*
X114467881Y-58459500D01*
X114467873Y-58459500D01*
X114467864Y-58459500D01*
X112812129Y-58459500D01*
X112812123Y-58459501D01*
X112752516Y-58465908D01*
X112617671Y-58516202D01*
X112617664Y-58516206D01*
X112502455Y-58602452D01*
X112502452Y-58602455D01*
X112416206Y-58717664D01*
X112416202Y-58717671D01*
X112365908Y-58852517D01*
X112361650Y-58892127D01*
X112359501Y-58912123D01*
X112359500Y-58912135D01*
X112359500Y-60567870D01*
X112359501Y-60567876D01*
X112365908Y-60627483D01*
X112416202Y-60762328D01*
X112416206Y-60762335D01*
X112502452Y-60877544D01*
X112502455Y-60877547D01*
X112617664Y-60963793D01*
X112617671Y-60963797D01*
X112662618Y-60980561D01*
X112752517Y-61014091D01*
X112812127Y-61020500D01*
X112812964Y-61020499D01*
X112813149Y-61020554D01*
X112815453Y-61020678D01*
X112815423Y-61021221D01*
X112880006Y-61040168D01*
X112925773Y-61092961D01*
X112935733Y-61162117D01*
X112906723Y-61225679D01*
X112884115Y-61246073D01*
X112813766Y-61295332D01*
X112655334Y-61453764D01*
X112526819Y-61637304D01*
X112526818Y-61637306D01*
X112432129Y-61840368D01*
X112432126Y-61840374D01*
X112374137Y-62056791D01*
X112374136Y-62056799D01*
X112354609Y-62279998D01*
X100500500Y-62279998D01*
X100500500Y-57239997D01*
X105375034Y-57239997D01*
X105375034Y-57240002D01*
X105394858Y-57466599D01*
X105394860Y-57466610D01*
X105453730Y-57686317D01*
X105453735Y-57686331D01*
X105549863Y-57892478D01*
X105600974Y-57965472D01*
X106280000Y-57286446D01*
X106280000Y-57292661D01*
X106307259Y-57394394D01*
X106359920Y-57485606D01*
X106434394Y-57560080D01*
X106525606Y-57612741D01*
X106627339Y-57640000D01*
X106633553Y-57640000D01*
X105949352Y-58324199D01*
X105939506Y-58373194D01*
X105890890Y-58423377D01*
X105835367Y-58438049D01*
X105835423Y-58439099D01*
X105835429Y-58439146D01*
X105835426Y-58439146D01*
X105835436Y-58439324D01*
X105832123Y-58439501D01*
X105772516Y-58445908D01*
X105637671Y-58496202D01*
X105637664Y-58496206D01*
X105522455Y-58582452D01*
X105522452Y-58582455D01*
X105436206Y-58697664D01*
X105436202Y-58697671D01*
X105385908Y-58832517D01*
X105379501Y-58892116D01*
X105379501Y-58892123D01*
X105379500Y-58892135D01*
X105379500Y-60587870D01*
X105379501Y-60587876D01*
X105385908Y-60647483D01*
X105436202Y-60782328D01*
X105436206Y-60782335D01*
X105522452Y-60897544D01*
X105522455Y-60897547D01*
X105637664Y-60983793D01*
X105637671Y-60983797D01*
X105772517Y-61034091D01*
X105772516Y-61034091D01*
X105779444Y-61034835D01*
X105832127Y-61040500D01*
X107527872Y-61040499D01*
X107587483Y-61034091D01*
X107722331Y-60983796D01*
X107837546Y-60897546D01*
X107923796Y-60782331D01*
X107974091Y-60647483D01*
X107980500Y-60587873D01*
X107980499Y-58892128D01*
X107974091Y-58832517D01*
X107942733Y-58748443D01*
X107923797Y-58697671D01*
X107923793Y-58697664D01*
X107837547Y-58582455D01*
X107837544Y-58582452D01*
X107722335Y-58496206D01*
X107722328Y-58496202D01*
X107587482Y-58445908D01*
X107587483Y-58445908D01*
X107527883Y-58439501D01*
X107527881Y-58439500D01*
X107527873Y-58439500D01*
X107527864Y-58439500D01*
X107524548Y-58439322D01*
X107524627Y-58437847D01*
X107463215Y-58419815D01*
X107417460Y-58367011D01*
X107409969Y-58323522D01*
X106726447Y-57640000D01*
X106732661Y-57640000D01*
X106834394Y-57612741D01*
X106925606Y-57560080D01*
X107000080Y-57485606D01*
X107052741Y-57394394D01*
X107080000Y-57292661D01*
X107080000Y-57286447D01*
X107759024Y-57965471D01*
X107810136Y-57892478D01*
X107906264Y-57686331D01*
X107906269Y-57686317D01*
X107965139Y-57466610D01*
X107965141Y-57466599D01*
X107984966Y-57240002D01*
X107984966Y-57239997D01*
X107965141Y-57013400D01*
X107965139Y-57013389D01*
X107906269Y-56793682D01*
X107906264Y-56793668D01*
X107810136Y-56587521D01*
X107810132Y-56587513D01*
X107759025Y-56514526D01*
X107080000Y-57193551D01*
X107080000Y-57187339D01*
X107052741Y-57085606D01*
X107000080Y-56994394D01*
X106925606Y-56919920D01*
X106834394Y-56867259D01*
X106732661Y-56840000D01*
X106726448Y-56840000D01*
X107405472Y-56160974D01*
X107332478Y-56109863D01*
X107126331Y-56013735D01*
X107126317Y-56013730D01*
X106906610Y-55954860D01*
X106906599Y-55954858D01*
X106680002Y-55935034D01*
X106679998Y-55935034D01*
X106453400Y-55954858D01*
X106453389Y-55954860D01*
X106233682Y-56013730D01*
X106233673Y-56013734D01*
X106027516Y-56109866D01*
X106027512Y-56109868D01*
X105954526Y-56160973D01*
X105954526Y-56160974D01*
X106633553Y-56840000D01*
X106627339Y-56840000D01*
X106525606Y-56867259D01*
X106434394Y-56919920D01*
X106359920Y-56994394D01*
X106307259Y-57085606D01*
X106280000Y-57187339D01*
X106280000Y-57193552D01*
X105600974Y-56514526D01*
X105600973Y-56514526D01*
X105549868Y-56587512D01*
X105549866Y-56587516D01*
X105453734Y-56793673D01*
X105453730Y-56793682D01*
X105394860Y-57013389D01*
X105394858Y-57013400D01*
X105375034Y-57239997D01*
X100500500Y-57239997D01*
X100500500Y-50624500D01*
X100520185Y-50557461D01*
X100572989Y-50511706D01*
X100624500Y-50500500D01*
X141375500Y-50500500D01*
X141442539Y-50520185D01*
G37*
%TD.AperFunction*%
%TD*%
M02*
