%TF.GenerationSoftware,KiCad,Pcbnew,8.0.6*%
%TF.CreationDate,2025-06-17T18:16:51-05:00*%
%TF.ProjectId,ESP32_Devkitv4_WLED_Controller,45535033-325f-4446-9576-6b697476345f,rev?*%
%TF.SameCoordinates,Original*%
%TF.FileFunction,Soldermask,Top*%
%TF.FilePolarity,Negative*%
%FSLAX46Y46*%
G04 Gerber Fmt 4.6, Leading zero omitted, Abs format (unit mm)*
G04 Created by KiCad (PCBNEW 8.0.6) date 2025-06-17 18:16:51*
%MOMM*%
%LPD*%
G01*
G04 APERTURE LIST*
G04 Aperture macros list*
%AMRoundRect*
0 Rectangle with rounded corners*
0 $1 Rounding radius*
0 $2 $3 $4 $5 $6 $7 $8 $9 X,Y pos of 4 corners*
0 Add a 4 corners polygon primitive as box body*
4,1,4,$2,$3,$4,$5,$6,$7,$8,$9,$2,$3,0*
0 Add four circle primitives for the rounded corners*
1,1,$1+$1,$2,$3*
1,1,$1+$1,$4,$5*
1,1,$1+$1,$6,$7*
1,1,$1+$1,$8,$9*
0 Add four rect primitives between the rounded corners*
20,1,$1+$1,$2,$3,$4,$5,0*
20,1,$1+$1,$4,$5,$6,$7,0*
20,1,$1+$1,$6,$7,$8,$9,0*
20,1,$1+$1,$8,$9,$2,$3,0*%
G04 Aperture macros list end*
%ADD10RoundRect,0.102000X-0.780000X-0.780000X0.780000X-0.780000X0.780000X0.780000X-0.780000X0.780000X0*%
%ADD11C,1.764000*%
%ADD12R,1.200000X0.400000*%
%ADD13RoundRect,0.237500X0.237500X-0.250000X0.237500X0.250000X-0.237500X0.250000X-0.237500X-0.250000X0*%
%ADD14O,1.600000X1.600000*%
%ADD15C,1.600000*%
%ADD16O,1.700000X1.700000*%
%ADD17R,1.700000X1.700000*%
%ADD18C,2.200000*%
%ADD19RoundRect,0.237500X0.237500X-0.300000X0.237500X0.300000X-0.237500X0.300000X-0.237500X-0.300000X0*%
%ADD20R,1.600000X1.600000*%
G04 APERTURE END LIST*
D10*
%TO.C,U1*%
X113640000Y-59740000D03*
D11*
X113640000Y-62280000D03*
X113640000Y-64820000D03*
X113640000Y-67360000D03*
X113640000Y-69900000D03*
X113640000Y-72440000D03*
X113640000Y-74980000D03*
X113640000Y-77520000D03*
X113640000Y-80060000D03*
X113640000Y-82600000D03*
X113640000Y-85140000D03*
X113640000Y-87680000D03*
X113640000Y-90220000D03*
X113640000Y-92760000D03*
X113640000Y-95300000D03*
X113640000Y-97840000D03*
X113640000Y-100380000D03*
X113640000Y-102920000D03*
X113640000Y-105460000D03*
X139040000Y-59740000D03*
X139040000Y-62280000D03*
X139040000Y-64820000D03*
X139040000Y-67360000D03*
X139040000Y-69900000D03*
X139040000Y-72440000D03*
X139040000Y-74980000D03*
X139040000Y-77520000D03*
X139040000Y-80060000D03*
X139040000Y-82600000D03*
X139040000Y-85140000D03*
X139040000Y-87680000D03*
X139040000Y-90220000D03*
X139040000Y-92760000D03*
X139040000Y-95300000D03*
X139040000Y-97840000D03*
X139040000Y-100380000D03*
X139040000Y-102920000D03*
X139040000Y-105460000D03*
%TD*%
D12*
%TO.C,U3*%
X134620000Y-87540000D03*
X134620000Y-88190000D03*
X134620000Y-88840000D03*
X134620000Y-89490000D03*
X134620000Y-90140000D03*
X134620000Y-90790000D03*
X134620000Y-91440000D03*
X127720000Y-91440000D03*
X127720000Y-90790000D03*
X127720000Y-90140000D03*
X127720000Y-89490000D03*
X127720000Y-88840000D03*
X127720000Y-88190000D03*
X127720000Y-87540000D03*
%TD*%
D13*
%TO.C,R4*%
X117500000Y-91000000D03*
X117500000Y-89175000D03*
%TD*%
D14*
%TO.C,R3*%
X120000000Y-75380000D03*
D15*
X120000000Y-90620000D03*
%TD*%
D13*
%TO.C,R2*%
X122500000Y-87175000D03*
X122500000Y-89000000D03*
%TD*%
D14*
%TO.C,R1*%
X125040000Y-73435000D03*
D15*
X125040000Y-88675000D03*
%TD*%
D16*
%TO.C,J3*%
X106680000Y-78354000D03*
X106680000Y-80894000D03*
D17*
X106680000Y-83434000D03*
%TD*%
D16*
%TO.C,J2*%
X106680000Y-66354000D03*
X106680000Y-68894000D03*
D17*
X106680000Y-71434000D03*
%TD*%
D16*
%TO.C,J1*%
X106680000Y-95000000D03*
D17*
X106680000Y-92460000D03*
%TD*%
D18*
%TO.C,H2*%
X125000000Y-60000000D03*
%TD*%
%TO.C,H1*%
X125000000Y-100000000D03*
%TD*%
D19*
%TO.C,C6*%
X134620000Y-83111000D03*
X134620000Y-84836000D03*
%TD*%
D15*
%TO.C,C4*%
X106680000Y-57240000D03*
D20*
X106680000Y-59740000D03*
%TD*%
D15*
%TO.C,C1*%
X106680000Y-102910000D03*
D20*
X106680000Y-105410000D03*
%TD*%
M02*
