%TF.GenerationSoftware,KiCad,Pcbnew,8.0.6*%
%TF.CreationDate,2025-06-17T18:16:51-05:00*%
%TF.ProjectId,ESP32_Devkitv4_WLED_Controller,45535033-325f-4446-9576-6b697476345f,rev?*%
%TF.SameCoordinates,Original*%
%TF.FileFunction,Copper,L1,Top*%
%TF.FilePolarity,Positive*%
%FSLAX46Y46*%
G04 Gerber Fmt 4.6, Leading zero omitted, Abs format (unit mm)*
G04 Created by KiCad (PCBNEW 8.0.6) date 2025-06-17 18:16:51*
%MOMM*%
%LPD*%
G01*
G04 APERTURE LIST*
G04 Aperture macros list*
%AMRoundRect*
0 Rectangle with rounded corners*
0 $1 Rounding radius*
0 $2 $3 $4 $5 $6 $7 $8 $9 X,Y pos of 4 corners*
0 Add a 4 corners polygon primitive as box body*
4,1,4,$2,$3,$4,$5,$6,$7,$8,$9,$2,$3,0*
0 Add four circle primitives for the rounded corners*
1,1,$1+$1,$2,$3*
1,1,$1+$1,$4,$5*
1,1,$1+$1,$6,$7*
1,1,$1+$1,$8,$9*
0 Add four rect primitives between the rounded corners*
20,1,$1+$1,$2,$3,$4,$5,0*
20,1,$1+$1,$4,$5,$6,$7,0*
20,1,$1+$1,$6,$7,$8,$9,0*
20,1,$1+$1,$8,$9,$2,$3,0*%
G04 Aperture macros list end*
%TA.AperFunction,ComponentPad*%
%ADD10R,1.560000X1.560000*%
%TD*%
%TA.AperFunction,ComponentPad*%
%ADD11C,1.560000*%
%TD*%
%TA.AperFunction,SMDPad,CuDef*%
%ADD12R,1.200000X0.400000*%
%TD*%
%TA.AperFunction,SMDPad,CuDef*%
%ADD13RoundRect,0.237500X0.237500X-0.250000X0.237500X0.250000X-0.237500X0.250000X-0.237500X-0.250000X0*%
%TD*%
%TA.AperFunction,ComponentPad*%
%ADD14O,1.600000X1.600000*%
%TD*%
%TA.AperFunction,ComponentPad*%
%ADD15C,1.600000*%
%TD*%
%TA.AperFunction,ComponentPad*%
%ADD16O,1.700000X1.700000*%
%TD*%
%TA.AperFunction,ComponentPad*%
%ADD17R,1.700000X1.700000*%
%TD*%
%TA.AperFunction,SMDPad,CuDef*%
%ADD18RoundRect,0.237500X0.237500X-0.300000X0.237500X0.300000X-0.237500X0.300000X-0.237500X-0.300000X0*%
%TD*%
%TA.AperFunction,ComponentPad*%
%ADD19R,1.600000X1.600000*%
%TD*%
%TA.AperFunction,ViaPad*%
%ADD20C,0.600000*%
%TD*%
%TA.AperFunction,Conductor*%
%ADD21C,0.500000*%
%TD*%
%TA.AperFunction,Conductor*%
%ADD22C,0.300000*%
%TD*%
%TA.AperFunction,Conductor*%
%ADD23C,0.200000*%
%TD*%
G04 APERTURE END LIST*
D10*
%TO.P,U1,J2-1,3V3*%
%TO.N,+3.3V*%
X113640000Y-59740000D03*
D11*
%TO.P,U1,J2-2,EN*%
%TO.N,unconnected-(U1-EN-PadJ2-2)*%
X113640000Y-62280000D03*
%TO.P,U1,J2-3,SENSOR_VP*%
%TO.N,unconnected-(U1-SENSOR_VP-PadJ2-3)*%
X113640000Y-64820000D03*
%TO.P,U1,J2-4,SENSOR_VN*%
%TO.N,unconnected-(U1-SENSOR_VN-PadJ2-4)*%
X113640000Y-67360000D03*
%TO.P,U1,J2-5,IO34*%
%TO.N,unconnected-(U1-IO34-PadJ2-5)*%
X113640000Y-69900000D03*
%TO.P,U1,J2-6,IO35*%
%TO.N,unconnected-(U1-IO35-PadJ2-6)*%
X113640000Y-72440000D03*
%TO.P,U1,J2-7,IO32*%
%TO.N,unconnected-(U1-IO32-PadJ2-7)*%
X113640000Y-74980000D03*
%TO.P,U1,J2-8,IO33*%
%TO.N,unconnected-(U1-IO33-PadJ2-8)*%
X113640000Y-77520000D03*
%TO.P,U1,J2-9,IO25*%
%TO.N,unconnected-(U1-IO25-PadJ2-9)*%
X113640000Y-80060000D03*
%TO.P,U1,J2-10,IO26*%
%TO.N,unconnected-(U1-IO26-PadJ2-10)*%
X113640000Y-82600000D03*
%TO.P,U1,J2-11,IO27*%
%TO.N,unconnected-(U1-IO27-PadJ2-11)*%
X113640000Y-85140000D03*
%TO.P,U1,J2-12,IO14*%
%TO.N,unconnected-(U1-IO14-PadJ2-12)*%
X113640000Y-87680000D03*
%TO.P,U1,J2-13,IO12*%
%TO.N,unconnected-(U1-IO12-PadJ2-13)*%
X113640000Y-90220000D03*
%TO.P,U1,J2-14,GND1*%
%TO.N,GND*%
X113640000Y-92760000D03*
%TO.P,U1,J2-15,IO13*%
%TO.N,unconnected-(U1-IO13-PadJ2-15)*%
X113640000Y-95300000D03*
%TO.P,U1,J2-16,SD2*%
%TO.N,unconnected-(U1-SD2-PadJ2-16)*%
X113640000Y-97840000D03*
%TO.P,U1,J2-17,SD3*%
%TO.N,unconnected-(U1-SD3-PadJ2-17)*%
X113640000Y-100380000D03*
%TO.P,U1,J2-18,CMD*%
%TO.N,unconnected-(U1-CMD-PadJ2-18)*%
X113640000Y-102920000D03*
%TO.P,U1,J2-19,EXT_5V*%
%TO.N,+5V*%
X113640000Y-105460000D03*
%TO.P,U1,J3-1,GND3*%
%TO.N,GND*%
X139040000Y-59740000D03*
%TO.P,U1,J3-2,IO23*%
%TO.N,unconnected-(U1-IO23-PadJ3-2)*%
X139040000Y-62280000D03*
%TO.P,U1,J3-3,IO22*%
%TO.N,unconnected-(U1-IO22-PadJ3-3)*%
X139040000Y-64820000D03*
%TO.P,U1,J3-4,TXD0*%
%TO.N,unconnected-(U1-TXD0-PadJ3-4)*%
X139040000Y-67360000D03*
%TO.P,U1,J3-5,RXD0*%
%TO.N,unconnected-(U1-RXD0-PadJ3-5)*%
X139040000Y-69900000D03*
%TO.P,U1,J3-6,IO21*%
%TO.N,unconnected-(U1-IO21-PadJ3-6)*%
X139040000Y-72440000D03*
%TO.P,U1,J3-7,GND2*%
%TO.N,GND*%
X139040000Y-74980000D03*
%TO.P,U1,J3-8,IO19*%
%TO.N,unconnected-(U1-IO19-PadJ3-8)*%
X139040000Y-77520000D03*
%TO.P,U1,J3-9,IO18*%
%TO.N,unconnected-(U1-IO18-PadJ3-9)*%
X139040000Y-80060000D03*
%TO.P,U1,J3-10,IO5*%
%TO.N,unconnected-(U1-IO5-PadJ3-10)*%
X139040000Y-82600000D03*
%TO.P,U1,J3-11,IO17*%
%TO.N,unconnected-(U1-IO17-PadJ3-11)*%
X139040000Y-85140000D03*
%TO.P,U1,J3-12,IO16*%
%TO.N,D0_uC*%
X139040000Y-87680000D03*
%TO.P,U1,J3-13,IO4*%
%TO.N,D1_uC*%
X139040000Y-90220000D03*
%TO.P,U1,J3-14,IO0*%
%TO.N,unconnected-(U1-IO0-PadJ3-14)*%
X139040000Y-92760000D03*
%TO.P,U1,J3-15,IO2*%
%TO.N,unconnected-(U1-IO2-PadJ3-15)*%
X139040000Y-95300000D03*
%TO.P,U1,J3-16,IO15*%
%TO.N,unconnected-(U1-IO15-PadJ3-16)*%
X139040000Y-97840000D03*
%TO.P,U1,J3-17,SD1*%
%TO.N,unconnected-(U1-SD1-PadJ3-17)*%
X139040000Y-100380000D03*
%TO.P,U1,J3-18,SD0*%
%TO.N,unconnected-(U1-SD0-PadJ3-18)*%
X139040000Y-102920000D03*
%TO.P,U1,J3-19,CLK*%
%TO.N,unconnected-(U1-CLK-PadJ3-19)*%
X139040000Y-105460000D03*
%TD*%
D12*
%TO.P,U3,14,VCC*%
%TO.N,+5V*%
X134620000Y-87540000D03*
%TO.P,U3,13*%
%TO.N,unconnected-(U3-Pad13)*%
X134620000Y-88190000D03*
%TO.P,U3,12*%
%TO.N,unconnected-(U3-Pad12)*%
X134620000Y-88840000D03*
%TO.P,U3,11*%
%TO.N,unconnected-(U3-Pad11)*%
X134620000Y-89490000D03*
%TO.P,U3,10*%
%TO.N,unconnected-(U3-Pad10)*%
X134620000Y-90140000D03*
%TO.P,U3,9*%
%TO.N,unconnected-(U3-Pad9)*%
X134620000Y-90790000D03*
%TO.P,U3,8*%
%TO.N,unconnected-(U3-Pad8)*%
X134620000Y-91440000D03*
%TO.P,U3,7,GND*%
%TO.N,GND*%
X127720000Y-91440000D03*
%TO.P,U3,6*%
%TO.N,Net-(R3-Pad1)*%
X127720000Y-90790000D03*
%TO.P,U3,5*%
%TO.N,D1_uC*%
X127720000Y-90140000D03*
%TO.P,U3,4*%
%TO.N,GND*%
X127720000Y-89490000D03*
%TO.P,U3,3*%
%TO.N,Net-(R1-Pad1)*%
X127720000Y-88840000D03*
%TO.P,U3,2*%
%TO.N,D0_uC*%
X127720000Y-88190000D03*
%TO.P,U3,1*%
%TO.N,GND*%
X127720000Y-87540000D03*
%TD*%
D13*
%TO.P,R4,1*%
%TO.N,Net-(R3-Pad1)*%
X117500000Y-91000000D03*
%TO.P,R4,2*%
%TO.N,D1*%
X117500000Y-89175000D03*
%TD*%
D14*
%TO.P,R3,2*%
%TO.N,D1*%
X120000000Y-75380000D03*
D15*
%TO.P,R3,1*%
%TO.N,Net-(R3-Pad1)*%
X120000000Y-90620000D03*
%TD*%
D13*
%TO.P,R2,2*%
%TO.N,D0*%
X122500000Y-87175000D03*
%TO.P,R2,1*%
%TO.N,Net-(R1-Pad1)*%
X122500000Y-89000000D03*
%TD*%
D14*
%TO.P,R1,2*%
%TO.N,D0*%
X125040000Y-73435000D03*
D15*
%TO.P,R1,1*%
%TO.N,Net-(R1-Pad1)*%
X125040000Y-88675000D03*
%TD*%
D16*
%TO.P,J3,3,Pin_3*%
%TO.N,GND*%
X106680000Y-78354000D03*
%TO.P,J3,2,Pin_2*%
%TO.N,D1*%
X106680000Y-80894000D03*
D17*
%TO.P,J3,1,Pin_1*%
%TO.N,+5V*%
X106680000Y-83434000D03*
%TD*%
D16*
%TO.P,J2,3,Pin_3*%
%TO.N,GND*%
X106680000Y-66354000D03*
%TO.P,J2,2,Pin_2*%
%TO.N,D0*%
X106680000Y-68894000D03*
D17*
%TO.P,J2,1,Pin_1*%
%TO.N,+5V*%
X106680000Y-71434000D03*
%TD*%
D16*
%TO.P,J1,2,Pin_2*%
%TO.N,GND*%
X106680000Y-95000000D03*
D17*
%TO.P,J1,1,Pin_1*%
%TO.N,+5V*%
X106680000Y-92460000D03*
%TD*%
D18*
%TO.P,C6,2*%
%TO.N,GND*%
X134620000Y-83111000D03*
%TO.P,C6,1*%
%TO.N,+5V*%
X134620000Y-84836000D03*
%TD*%
D15*
%TO.P,C4,2*%
%TO.N,GND*%
X106680000Y-57240000D03*
D19*
%TO.P,C4,1*%
%TO.N,+3.3V*%
X106680000Y-59740000D03*
%TD*%
D15*
%TO.P,C1,2*%
%TO.N,GND*%
X106680000Y-102910000D03*
D19*
%TO.P,C1,1*%
%TO.N,+5V*%
X106680000Y-105410000D03*
%TD*%
D20*
%TO.N,+5V*%
X136500000Y-94500000D03*
X136500000Y-89500000D03*
%TO.N,GND*%
X126500000Y-93000000D03*
X128979727Y-89390000D03*
X134500000Y-81500000D03*
X127000000Y-85000000D03*
%TD*%
D21*
%TO.N,+3.3V*%
X106680000Y-59740000D02*
X113640000Y-59740000D01*
%TO.N,+5V*%
X136500000Y-88000000D02*
X136500000Y-89500000D01*
D22*
%TO.N,D0*%
X108816000Y-71030000D02*
X106680000Y-68894000D01*
X125040000Y-73435000D02*
X122635000Y-71030000D01*
X122635000Y-71030000D02*
X108816000Y-71030000D01*
X122500000Y-75975000D02*
X125040000Y-73435000D01*
X122500000Y-87175000D02*
X122500000Y-75975000D01*
%TO.N,Net-(R1-Pad1)*%
X125040000Y-88675000D02*
X122825000Y-88675000D01*
X122825000Y-88675000D02*
X122500000Y-89000000D01*
X125205000Y-88840000D02*
X125040000Y-88675000D01*
X127720000Y-88840000D02*
X125205000Y-88840000D01*
%TO.N,D1*%
X117000000Y-79940000D02*
X115470000Y-81470000D01*
X117000000Y-78380000D02*
X117000000Y-79940000D01*
X120000000Y-75380000D02*
X117000000Y-78380000D01*
X107256000Y-81470000D02*
X106680000Y-80894000D01*
X117500000Y-83500000D02*
X115470000Y-81470000D01*
X115470000Y-81470000D02*
X107256000Y-81470000D01*
X117500000Y-89175000D02*
X117500000Y-83500000D01*
%TO.N,Net-(R3-Pad1)*%
X117880000Y-90620000D02*
X117500000Y-91000000D01*
X120000000Y-90620000D02*
X117880000Y-90620000D01*
X120170000Y-90790000D02*
X120000000Y-90620000D01*
X127720000Y-90790000D02*
X120170000Y-90790000D01*
D23*
%TO.N,GND*%
X127720000Y-91780000D02*
X126500000Y-93000000D01*
X127720000Y-91440000D02*
X127720000Y-91780000D01*
X128879727Y-89490000D02*
X128979727Y-89390000D01*
X127720000Y-89490000D02*
X128879727Y-89490000D01*
D21*
%TO.N,D1_uC*%
X129140000Y-90140000D02*
X127720000Y-90140000D01*
X137170000Y-92090000D02*
X131090000Y-92090000D01*
X131090000Y-92090000D02*
X129140000Y-90140000D01*
X139040000Y-90220000D02*
X137170000Y-92090000D01*
%TO.N,+5V*%
X136040000Y-87540000D02*
X136500000Y-88000000D01*
X134620000Y-87540000D02*
X136040000Y-87540000D01*
%TO.N,D0_uC*%
X129810000Y-88190000D02*
X128059949Y-88190000D01*
X137860000Y-86500000D02*
X131500000Y-86500000D01*
X131500000Y-86500000D02*
X129810000Y-88190000D01*
X139040000Y-87680000D02*
X137860000Y-86500000D01*
%TO.N,GND*%
X134620000Y-81620000D02*
X134500000Y-81500000D01*
X134620000Y-83111000D02*
X134620000Y-81620000D01*
X127720000Y-85720000D02*
X127000000Y-85000000D01*
X127720000Y-87540000D02*
X127720000Y-85720000D01*
%TD*%
%TA.AperFunction,Conductor*%
%TO.N,+5V*%
G36*
X137564809Y-87270185D02*
G01*
X137585451Y-87286819D01*
X137731744Y-87433112D01*
X137765229Y-87494435D01*
X137767591Y-87531599D01*
X137754609Y-87679996D01*
X137754609Y-87680001D01*
X137774136Y-87903200D01*
X137774137Y-87903208D01*
X137832126Y-88119625D01*
X137832127Y-88119627D01*
X137832128Y-88119630D01*
X137864709Y-88189500D01*
X137926819Y-88322696D01*
X137926821Y-88322700D01*
X138055329Y-88506228D01*
X138055334Y-88506234D01*
X138213765Y-88664665D01*
X138213771Y-88664670D01*
X138397299Y-88793178D01*
X138397301Y-88793179D01*
X138397304Y-88793181D01*
X138492600Y-88837618D01*
X138545039Y-88883790D01*
X138564191Y-88950984D01*
X138543975Y-89017865D01*
X138492600Y-89062382D01*
X138397306Y-89106818D01*
X138397304Y-89106819D01*
X138213764Y-89235334D01*
X138055334Y-89393764D01*
X137926819Y-89577304D01*
X137926818Y-89577306D01*
X137832129Y-89780368D01*
X137832126Y-89780374D01*
X137774137Y-89996791D01*
X137774136Y-89996799D01*
X137754609Y-90219998D01*
X137754609Y-90220002D01*
X137767591Y-90368398D01*
X137753824Y-90436898D01*
X137731744Y-90466886D01*
X136895451Y-91303181D01*
X136834128Y-91336666D01*
X136807770Y-91339500D01*
X135844499Y-91339500D01*
X135777460Y-91319815D01*
X135731705Y-91267011D01*
X135720499Y-91215500D01*
X135720499Y-91192129D01*
X135720499Y-91192128D01*
X135714091Y-91132517D01*
X135714089Y-91132513D01*
X135713632Y-91128255D01*
X135713632Y-91101745D01*
X135714089Y-91097486D01*
X135714091Y-91097483D01*
X135720500Y-91037873D01*
X135720499Y-90542128D01*
X135714091Y-90482517D01*
X135714089Y-90482513D01*
X135713632Y-90478255D01*
X135713632Y-90451745D01*
X135714089Y-90447486D01*
X135714091Y-90447483D01*
X135720500Y-90387873D01*
X135720499Y-89892128D01*
X135714091Y-89832517D01*
X135714089Y-89832513D01*
X135713632Y-89828255D01*
X135713632Y-89801745D01*
X135714089Y-89797486D01*
X135714091Y-89797483D01*
X135720500Y-89737873D01*
X135720499Y-89242128D01*
X135714091Y-89182517D01*
X135714089Y-89182513D01*
X135713632Y-89178255D01*
X135713632Y-89151745D01*
X135714089Y-89147486D01*
X135714091Y-89147483D01*
X135720500Y-89087873D01*
X135720499Y-88592128D01*
X135714091Y-88532517D01*
X135714089Y-88532513D01*
X135713632Y-88528255D01*
X135713632Y-88501745D01*
X135714089Y-88497486D01*
X135714091Y-88497483D01*
X135720500Y-88437873D01*
X135720499Y-87942128D01*
X135714091Y-87882517D01*
X135714090Y-87882516D01*
X135713380Y-87875904D01*
X135713381Y-87849393D01*
X135719999Y-87787842D01*
X135720000Y-87787827D01*
X135720000Y-87740000D01*
X135719948Y-87739948D01*
X135653085Y-87720315D01*
X135620859Y-87690313D01*
X135577546Y-87632454D01*
X135556810Y-87616931D01*
X135485124Y-87563266D01*
X135443253Y-87507332D01*
X135438269Y-87437641D01*
X135471755Y-87376318D01*
X135533078Y-87342834D01*
X135559435Y-87340000D01*
X135720000Y-87340000D01*
X135734341Y-87325658D01*
X135739685Y-87307461D01*
X135792489Y-87261706D01*
X135844000Y-87250500D01*
X137497770Y-87250500D01*
X137564809Y-87270185D01*
G37*
%TD.AperFunction*%
%TA.AperFunction,Conductor*%
G36*
X141442539Y-50520185D02*
G01*
X141488294Y-50572989D01*
X141499500Y-50624500D01*
X141499500Y-109375500D01*
X141479815Y-109442539D01*
X141427011Y-109488294D01*
X141375500Y-109499500D01*
X100624500Y-109499500D01*
X100557461Y-109479815D01*
X100511706Y-109427011D01*
X100500500Y-109375500D01*
X100500500Y-102909998D01*
X105374532Y-102909998D01*
X105374532Y-102910001D01*
X105394364Y-103136686D01*
X105394366Y-103136697D01*
X105453258Y-103356488D01*
X105453261Y-103356497D01*
X105549431Y-103562732D01*
X105549432Y-103562734D01*
X105679954Y-103749141D01*
X105837506Y-103906693D01*
X105870991Y-103968016D01*
X105866007Y-104037708D01*
X105824135Y-104093641D01*
X105778343Y-104115050D01*
X105772626Y-104116401D01*
X105637913Y-104166645D01*
X105637906Y-104166649D01*
X105522812Y-104252809D01*
X105522809Y-104252812D01*
X105436649Y-104367906D01*
X105436645Y-104367913D01*
X105386403Y-104502620D01*
X105386401Y-104502627D01*
X105380000Y-104562155D01*
X105380000Y-105160000D01*
X106364314Y-105160000D01*
X106359920Y-105164394D01*
X106307259Y-105255606D01*
X106280000Y-105357339D01*
X106280000Y-105462661D01*
X106307259Y-105564394D01*
X106359920Y-105655606D01*
X106364314Y-105660000D01*
X105380000Y-105660000D01*
X105380000Y-106257844D01*
X105386401Y-106317372D01*
X105386403Y-106317379D01*
X105436645Y-106452086D01*
X105436649Y-106452093D01*
X105522809Y-106567187D01*
X105522812Y-106567190D01*
X105637906Y-106653350D01*
X105637913Y-106653354D01*
X105772620Y-106703596D01*
X105772627Y-106703598D01*
X105832155Y-106709999D01*
X105832172Y-106710000D01*
X106430000Y-106710000D01*
X106430000Y-105725686D01*
X106434394Y-105730080D01*
X106525606Y-105782741D01*
X106627339Y-105810000D01*
X106732661Y-105810000D01*
X106834394Y-105782741D01*
X106925606Y-105730080D01*
X106930000Y-105725686D01*
X106930000Y-106710000D01*
X107527828Y-106710000D01*
X107527844Y-106709999D01*
X107587372Y-106703598D01*
X107587379Y-106703596D01*
X107722086Y-106653354D01*
X107722093Y-106653350D01*
X107837187Y-106567190D01*
X107837190Y-106567187D01*
X107923350Y-106452093D01*
X107923354Y-106452086D01*
X107973596Y-106317379D01*
X107973598Y-106317372D01*
X107979999Y-106257844D01*
X107980000Y-106257827D01*
X107980000Y-105660000D01*
X106995686Y-105660000D01*
X107000080Y-105655606D01*
X107052741Y-105564394D01*
X107080000Y-105462661D01*
X107080000Y-105357339D01*
X107052741Y-105255606D01*
X107000080Y-105164394D01*
X106995686Y-105160000D01*
X107980000Y-105160000D01*
X107980000Y-104562172D01*
X107979999Y-104562155D01*
X107973598Y-104502627D01*
X107973596Y-104502620D01*
X107923354Y-104367913D01*
X107923350Y-104367906D01*
X107837190Y-104252812D01*
X107837187Y-104252809D01*
X107722093Y-104166649D01*
X107722086Y-104166645D01*
X107587378Y-104116402D01*
X107581658Y-104115051D01*
X107520942Y-104080477D01*
X107488557Y-104018566D01*
X107494784Y-103948974D01*
X107522491Y-103906694D01*
X107680047Y-103749139D01*
X107810568Y-103562734D01*
X107906739Y-103356496D01*
X107965635Y-103136692D01*
X107985468Y-102910000D01*
X107965635Y-102683308D01*
X107906739Y-102463504D01*
X107810568Y-102257266D01*
X107680047Y-102070861D01*
X107680045Y-102070858D01*
X107519141Y-101909954D01*
X107332734Y-101779432D01*
X107332732Y-101779431D01*
X107126497Y-101683261D01*
X107126488Y-101683258D01*
X106906697Y-101624366D01*
X106906693Y-101624365D01*
X106906692Y-101624365D01*
X106906691Y-101624364D01*
X106906686Y-101624364D01*
X106680002Y-101604532D01*
X106679998Y-101604532D01*
X106453313Y-101624364D01*
X106453302Y-101624366D01*
X106233511Y-101683258D01*
X106233502Y-101683261D01*
X106027267Y-101779431D01*
X106027265Y-101779432D01*
X105840858Y-101909954D01*
X105679954Y-102070858D01*
X105549432Y-102257265D01*
X105549431Y-102257267D01*
X105453261Y-102463502D01*
X105453258Y-102463511D01*
X105394366Y-102683302D01*
X105394364Y-102683313D01*
X105374532Y-102909998D01*
X100500500Y-102909998D01*
X100500500Y-94999999D01*
X105324341Y-94999999D01*
X105324341Y-95000000D01*
X105344936Y-95235403D01*
X105344938Y-95235413D01*
X105406094Y-95463655D01*
X105406096Y-95463659D01*
X105406097Y-95463663D01*
X105505965Y-95677830D01*
X105505967Y-95677834D01*
X105614281Y-95832521D01*
X105641505Y-95871401D01*
X105808599Y-96038495D01*
X105905384Y-96106265D01*
X106002165Y-96174032D01*
X106002167Y-96174033D01*
X106002170Y-96174035D01*
X106216337Y-96273903D01*
X106444592Y-96335063D01*
X106632918Y-96351539D01*
X106679999Y-96355659D01*
X106680000Y-96355659D01*
X106680001Y-96355659D01*
X106719234Y-96352226D01*
X106915408Y-96335063D01*
X107143663Y-96273903D01*
X107357830Y-96174035D01*
X107551401Y-96038495D01*
X107718495Y-95871401D01*
X107854035Y-95677830D01*
X107953903Y-95463663D01*
X108015063Y-95235408D01*
X108035659Y-95000000D01*
X108015063Y-94764592D01*
X107953903Y-94536337D01*
X107854035Y-94322171D01*
X107849244Y-94315329D01*
X107718496Y-94128600D01*
X107682024Y-94092128D01*
X107596179Y-94006283D01*
X107562696Y-93944963D01*
X107567680Y-93875271D01*
X107609551Y-93819337D01*
X107640529Y-93802422D01*
X107772086Y-93753354D01*
X107772093Y-93753350D01*
X107887187Y-93667190D01*
X107887190Y-93667187D01*
X107973350Y-93552093D01*
X107973354Y-93552086D01*
X108023596Y-93417379D01*
X108023598Y-93417372D01*
X108029999Y-93357844D01*
X108030000Y-93357827D01*
X108030000Y-92710000D01*
X107113012Y-92710000D01*
X107145925Y-92652993D01*
X107180000Y-92525826D01*
X107180000Y-92394174D01*
X107145925Y-92267007D01*
X107113012Y-92210000D01*
X108030000Y-92210000D01*
X108030000Y-91562172D01*
X108029999Y-91562155D01*
X108023598Y-91502627D01*
X108023596Y-91502620D01*
X107973354Y-91367913D01*
X107973350Y-91367906D01*
X107887190Y-91252812D01*
X107887187Y-91252809D01*
X107772093Y-91166649D01*
X107772086Y-91166645D01*
X107637379Y-91116403D01*
X107637372Y-91116401D01*
X107577844Y-91110000D01*
X106930000Y-91110000D01*
X106930000Y-92026988D01*
X106872993Y-91994075D01*
X106745826Y-91960000D01*
X106614174Y-91960000D01*
X106487007Y-91994075D01*
X106430000Y-92026988D01*
X106430000Y-91110000D01*
X105782155Y-91110000D01*
X105722627Y-91116401D01*
X105722620Y-91116403D01*
X105587913Y-91166645D01*
X105587906Y-91166649D01*
X105472812Y-91252809D01*
X105472809Y-91252812D01*
X105386649Y-91367906D01*
X105386645Y-91367913D01*
X105336403Y-91502620D01*
X105336401Y-91502627D01*
X105330000Y-91562155D01*
X105330000Y-92210000D01*
X106246988Y-92210000D01*
X106214075Y-92267007D01*
X106180000Y-92394174D01*
X106180000Y-92525826D01*
X106214075Y-92652993D01*
X106246988Y-92710000D01*
X105330000Y-92710000D01*
X105330000Y-93357844D01*
X105336401Y-93417372D01*
X105336403Y-93417379D01*
X105386645Y-93552086D01*
X105386649Y-93552093D01*
X105472809Y-93667187D01*
X105472812Y-93667190D01*
X105587906Y-93753350D01*
X105587913Y-93753354D01*
X105719470Y-93802421D01*
X105775403Y-93844292D01*
X105799821Y-93909756D01*
X105784970Y-93978029D01*
X105763819Y-94006284D01*
X105641503Y-94128600D01*
X105505965Y-94322169D01*
X105505964Y-94322171D01*
X105406098Y-94536335D01*
X105406094Y-94536344D01*
X105344938Y-94764586D01*
X105344936Y-94764596D01*
X105324341Y-94999999D01*
X100500500Y-94999999D01*
X100500500Y-66353999D01*
X105324341Y-66353999D01*
X105324341Y-66354000D01*
X105344936Y-66589403D01*
X105344938Y-66589413D01*
X105406094Y-66817655D01*
X105406096Y-66817659D01*
X105406097Y-66817663D01*
X105453990Y-66920370D01*
X105505965Y-67031830D01*
X105505967Y-67031834D01*
X105641501Y-67225395D01*
X105641506Y-67225402D01*
X105808597Y-67392493D01*
X105808603Y-67392498D01*
X105994158Y-67522425D01*
X106037783Y-67577002D01*
X106044977Y-67646500D01*
X106013454Y-67708855D01*
X105994158Y-67725575D01*
X105808597Y-67855505D01*
X105641505Y-68022597D01*
X105505965Y-68216169D01*
X105505964Y-68216171D01*
X105406098Y-68430335D01*
X105406094Y-68430344D01*
X105344938Y-68658586D01*
X105344936Y-68658596D01*
X105324341Y-68893999D01*
X105324341Y-68894000D01*
X105344936Y-69129403D01*
X105344938Y-69129413D01*
X105406094Y-69357655D01*
X105406096Y-69357659D01*
X105406097Y-69357663D01*
X105453990Y-69460370D01*
X105505965Y-69571830D01*
X105505967Y-69571834D01*
X105641501Y-69765395D01*
X105641506Y-69765402D01*
X105763818Y-69887714D01*
X105797303Y-69949037D01*
X105792319Y-70018729D01*
X105750447Y-70074662D01*
X105719471Y-70091577D01*
X105587912Y-70140646D01*
X105587906Y-70140649D01*
X105472812Y-70226809D01*
X105472809Y-70226812D01*
X105386649Y-70341906D01*
X105386645Y-70341913D01*
X105336403Y-70476620D01*
X105336401Y-70476627D01*
X105330000Y-70536155D01*
X105330000Y-71184000D01*
X106246988Y-71184000D01*
X106214075Y-71241007D01*
X106180000Y-71368174D01*
X106180000Y-71499826D01*
X106214075Y-71626993D01*
X106246988Y-71684000D01*
X105330000Y-71684000D01*
X105330000Y-72331844D01*
X105336401Y-72391372D01*
X105336403Y-72391379D01*
X105386645Y-72526086D01*
X105386649Y-72526093D01*
X105472809Y-72641187D01*
X105472812Y-72641190D01*
X105587906Y-72727350D01*
X105587913Y-72727354D01*
X105722620Y-72777596D01*
X105722627Y-72777598D01*
X105782155Y-72783999D01*
X105782172Y-72784000D01*
X106430000Y-72784000D01*
X106430000Y-71867012D01*
X106487007Y-71899925D01*
X106614174Y-71934000D01*
X106745826Y-71934000D01*
X106872993Y-71899925D01*
X106930000Y-71867012D01*
X106930000Y-72784000D01*
X107577828Y-72784000D01*
X107577844Y-72783999D01*
X107637372Y-72777598D01*
X107637379Y-72777596D01*
X107772086Y-72727354D01*
X107772093Y-72727350D01*
X107887187Y-72641190D01*
X107887190Y-72641187D01*
X107973350Y-72526093D01*
X107973354Y-72526086D01*
X108023596Y-72391379D01*
X108023598Y-72391372D01*
X108029999Y-72331844D01*
X108030000Y-72331827D01*
X108030000Y-71684000D01*
X107113012Y-71684000D01*
X107145925Y-71626993D01*
X107180000Y-71499826D01*
X107180000Y-71368174D01*
X107145925Y-71241007D01*
X107113012Y-71184000D01*
X107998693Y-71184000D01*
X108065732Y-71203685D01*
X108086373Y-71220318D01*
X108310724Y-71444669D01*
X108365881Y-71499826D01*
X108401332Y-71535277D01*
X108507866Y-71606461D01*
X108507875Y-71606466D01*
X108525504Y-71613768D01*
X108626256Y-71655501D01*
X108626260Y-71655501D01*
X108626261Y-71655502D01*
X108751928Y-71680500D01*
X108751931Y-71680500D01*
X112386645Y-71680500D01*
X112453684Y-71700185D01*
X112499439Y-71752989D01*
X112509383Y-71822147D01*
X112499027Y-71856905D01*
X112432129Y-72000368D01*
X112432126Y-72000374D01*
X112374137Y-72216791D01*
X112374136Y-72216799D01*
X112354609Y-72439998D01*
X112354609Y-72440001D01*
X112374136Y-72663200D01*
X112374137Y-72663208D01*
X112432126Y-72879625D01*
X112432127Y-72879627D01*
X112432128Y-72879630D01*
X112526819Y-73082696D01*
X112526821Y-73082700D01*
X112655329Y-73266228D01*
X112655334Y-73266234D01*
X112813765Y-73424665D01*
X112813771Y-73424670D01*
X112997299Y-73553178D01*
X112997301Y-73553179D01*
X112997304Y-73553181D01*
X113092600Y-73597618D01*
X113145039Y-73643790D01*
X113164191Y-73710984D01*
X113143975Y-73777865D01*
X113092600Y-73822382D01*
X112997306Y-73866818D01*
X112997304Y-73866819D01*
X112813764Y-73995334D01*
X112655334Y-74153764D01*
X112526819Y-74337304D01*
X112526818Y-74337306D01*
X112432129Y-74540368D01*
X112432126Y-74540374D01*
X112374137Y-74756791D01*
X112374136Y-74756799D01*
X112354609Y-74979998D01*
X112354609Y-74980001D01*
X112374136Y-75203200D01*
X112374137Y-75203208D01*
X112432126Y-75419625D01*
X112432127Y-75419627D01*
X112432128Y-75419630D01*
X112497738Y-75560331D01*
X112526819Y-75622696D01*
X112526821Y-75622700D01*
X112655329Y-75806228D01*
X112655334Y-75806234D01*
X112813765Y-75964665D01*
X112813771Y-75964670D01*
X112997299Y-76093178D01*
X112997301Y-76093179D01*
X112997304Y-76093181D01*
X113092600Y-76137618D01*
X113145039Y-76183790D01*
X113164191Y-76250984D01*
X113143975Y-76317865D01*
X113092600Y-76362382D01*
X112997306Y-76406818D01*
X112997304Y-76406819D01*
X112813764Y-76535334D01*
X112655334Y-76693764D01*
X112526819Y-76877304D01*
X112526818Y-76877306D01*
X112432129Y-77080368D01*
X112432126Y-77080374D01*
X112374137Y-77296791D01*
X112374136Y-77296799D01*
X112354609Y-77519998D01*
X112354609Y-77520001D01*
X112374136Y-77743200D01*
X112374137Y-77743208D01*
X112432126Y-77959625D01*
X112432127Y-77959627D01*
X112432128Y-77959630D01*
X112484468Y-78071873D01*
X112526819Y-78162696D01*
X112526821Y-78162700D01*
X112655329Y-78346228D01*
X112655334Y-78346234D01*
X112813765Y-78504665D01*
X112813771Y-78504670D01*
X112997299Y-78633178D01*
X112997301Y-78633179D01*
X112997304Y-78633181D01*
X113092600Y-78677618D01*
X113145039Y-78723790D01*
X113164191Y-78790984D01*
X113143975Y-78857865D01*
X113092600Y-78902382D01*
X112997306Y-78946818D01*
X112997304Y-78946819D01*
X112813764Y-79075334D01*
X112655334Y-79233764D01*
X112526819Y-79417304D01*
X112526818Y-79417306D01*
X112432129Y-79620368D01*
X112432126Y-79620374D01*
X112374137Y-79836791D01*
X112374136Y-79836799D01*
X112354609Y-80059998D01*
X112354609Y-80060001D01*
X112374136Y-80283200D01*
X112374137Y-80283208D01*
X112432126Y-80499625D01*
X112432127Y-80499627D01*
X112432128Y-80499630D01*
X112499027Y-80643095D01*
X112509519Y-80712173D01*
X112480999Y-80775957D01*
X112422523Y-80814196D01*
X112386645Y-80819500D01*
X108142766Y-80819500D01*
X108075727Y-80799815D01*
X108029972Y-80747011D01*
X108019238Y-80706309D01*
X108015063Y-80658596D01*
X108015063Y-80658592D01*
X107953903Y-80430337D01*
X107854035Y-80216171D01*
X107744684Y-80060000D01*
X107718494Y-80022597D01*
X107551402Y-79855506D01*
X107551396Y-79855501D01*
X107365842Y-79725575D01*
X107322217Y-79670998D01*
X107315023Y-79601500D01*
X107346546Y-79539145D01*
X107365842Y-79522425D01*
X107515967Y-79417306D01*
X107551401Y-79392495D01*
X107718495Y-79225401D01*
X107854035Y-79031830D01*
X107953903Y-78817663D01*
X108015063Y-78589408D01*
X108035659Y-78354000D01*
X108034979Y-78346233D01*
X108018922Y-78162700D01*
X108015063Y-78118592D01*
X107953903Y-77890337D01*
X107854035Y-77676171D01*
X107744684Y-77520000D01*
X107718494Y-77482597D01*
X107551402Y-77315506D01*
X107551395Y-77315501D01*
X107357834Y-77179967D01*
X107357830Y-77179965D01*
X107357828Y-77179964D01*
X107143663Y-77080097D01*
X107143659Y-77080096D01*
X107143655Y-77080094D01*
X106915413Y-77018938D01*
X106915403Y-77018936D01*
X106680001Y-76998341D01*
X106679999Y-76998341D01*
X106444596Y-77018936D01*
X106444586Y-77018938D01*
X106216344Y-77080094D01*
X106216335Y-77080098D01*
X106002171Y-77179964D01*
X106002169Y-77179965D01*
X105808597Y-77315505D01*
X105641505Y-77482597D01*
X105505965Y-77676169D01*
X105505964Y-77676171D01*
X105406098Y-77890335D01*
X105406094Y-77890344D01*
X105344938Y-78118586D01*
X105344936Y-78118596D01*
X105324341Y-78353999D01*
X105324341Y-78354000D01*
X105344936Y-78589403D01*
X105344938Y-78589413D01*
X105406094Y-78817655D01*
X105406096Y-78817659D01*
X105406097Y-78817663D01*
X105466323Y-78946817D01*
X105505965Y-79031830D01*
X105505967Y-79031834D01*
X105641501Y-79225395D01*
X105641506Y-79225402D01*
X105808597Y-79392493D01*
X105808603Y-79392498D01*
X105994158Y-79522425D01*
X106037783Y-79577002D01*
X106044977Y-79646500D01*
X106013454Y-79708855D01*
X105994158Y-79725575D01*
X105808597Y-79855505D01*
X105641505Y-80022597D01*
X105505965Y-80216169D01*
X105505964Y-80216171D01*
X105406098Y-80430335D01*
X105406094Y-80430344D01*
X105344938Y-80658586D01*
X105344936Y-80658596D01*
X105324341Y-80893999D01*
X105324341Y-80894000D01*
X105344936Y-81129403D01*
X105344938Y-81129413D01*
X105406094Y-81357655D01*
X105406096Y-81357659D01*
X105406097Y-81357663D01*
X105499367Y-81557681D01*
X105505965Y-81571830D01*
X105505967Y-81571834D01*
X105641501Y-81765395D01*
X105641506Y-81765402D01*
X105763818Y-81887714D01*
X105797303Y-81949037D01*
X105792319Y-82018729D01*
X105750447Y-82074662D01*
X105719471Y-82091577D01*
X105587912Y-82140646D01*
X105587906Y-82140649D01*
X105472812Y-82226809D01*
X105472809Y-82226812D01*
X105386649Y-82341906D01*
X105386645Y-82341913D01*
X105336403Y-82476620D01*
X105336401Y-82476627D01*
X105330000Y-82536155D01*
X105330000Y-83184000D01*
X106246988Y-83184000D01*
X106214075Y-83241007D01*
X106180000Y-83368174D01*
X106180000Y-83499826D01*
X106214075Y-83626993D01*
X106246988Y-83684000D01*
X105330000Y-83684000D01*
X105330000Y-84331844D01*
X105336401Y-84391372D01*
X105336403Y-84391379D01*
X105386645Y-84526086D01*
X105386649Y-84526093D01*
X105472809Y-84641187D01*
X105472812Y-84641190D01*
X105587906Y-84727350D01*
X105587913Y-84727354D01*
X105722620Y-84777596D01*
X105722627Y-84777598D01*
X105782155Y-84783999D01*
X105782172Y-84784000D01*
X106430000Y-84784000D01*
X106430000Y-83867012D01*
X106487007Y-83899925D01*
X106614174Y-83934000D01*
X106745826Y-83934000D01*
X106872993Y-83899925D01*
X106930000Y-83867012D01*
X106930000Y-84784000D01*
X107577828Y-84784000D01*
X107577844Y-84783999D01*
X107637372Y-84777598D01*
X107637379Y-84777596D01*
X107772086Y-84727354D01*
X107772093Y-84727350D01*
X107887187Y-84641190D01*
X107887190Y-84641187D01*
X107973350Y-84526093D01*
X107973354Y-84526086D01*
X108023596Y-84391379D01*
X108023598Y-84391372D01*
X108029999Y-84331844D01*
X108030000Y-84331827D01*
X108030000Y-83684000D01*
X107113012Y-83684000D01*
X107145925Y-83626993D01*
X107180000Y-83499826D01*
X107180000Y-83368174D01*
X107145925Y-83241007D01*
X107113012Y-83184000D01*
X108030000Y-83184000D01*
X108030000Y-82536172D01*
X108029999Y-82536155D01*
X108023598Y-82476627D01*
X108023596Y-82476620D01*
X107973354Y-82341913D01*
X107973352Y-82341910D01*
X107956061Y-82318812D01*
X107931643Y-82253348D01*
X107946494Y-82185074D01*
X107995899Y-82135669D01*
X108055327Y-82120500D01*
X112281211Y-82120500D01*
X112348250Y-82140185D01*
X112394005Y-82192989D01*
X112403949Y-82262147D01*
X112400986Y-82276594D01*
X112374137Y-82376792D01*
X112374136Y-82376799D01*
X112354609Y-82599998D01*
X112354609Y-82600001D01*
X112374136Y-82823200D01*
X112374137Y-82823208D01*
X112432126Y-83039625D01*
X112432127Y-83039627D01*
X112432128Y-83039630D01*
X112503124Y-83191881D01*
X112526819Y-83242696D01*
X112526821Y-83242700D01*
X112655329Y-83426228D01*
X112655334Y-83426234D01*
X112813765Y-83584665D01*
X112813771Y-83584670D01*
X112997299Y-83713178D01*
X112997301Y-83713179D01*
X112997304Y-83713181D01*
X113092600Y-83757618D01*
X113145039Y-83803790D01*
X113164191Y-83870984D01*
X113143975Y-83937865D01*
X113092600Y-83982382D01*
X112997306Y-84026818D01*
X112997304Y-84026819D01*
X112813764Y-84155334D01*
X112655334Y-84313764D01*
X112526819Y-84497304D01*
X112526818Y-84497306D01*
X112432129Y-84700368D01*
X112432126Y-84700374D01*
X112374137Y-84916791D01*
X112374136Y-84916799D01*
X112354609Y-85139998D01*
X112354609Y-85140001D01*
X112374136Y-85363200D01*
X112374137Y-85363208D01*
X112432126Y-85579625D01*
X112432127Y-85579627D01*
X112432128Y-85579630D01*
X112513115Y-85753307D01*
X112526819Y-85782696D01*
X112526821Y-85782700D01*
X112655329Y-85966228D01*
X112655334Y-85966234D01*
X112813765Y-86124665D01*
X112813771Y-86124670D01*
X112997299Y-86253178D01*
X112997301Y-86253179D01*
X112997304Y-86253181D01*
X113064556Y-86284541D01*
X113092600Y-86297618D01*
X113145039Y-86343790D01*
X113164191Y-86410984D01*
X113143975Y-86477865D01*
X113092600Y-86522382D01*
X112997306Y-86566818D01*
X112997304Y-86566819D01*
X112813764Y-86695334D01*
X112655334Y-86853764D01*
X112526819Y-87037304D01*
X112526818Y-87037306D01*
X112432129Y-87240368D01*
X112432126Y-87240374D01*
X112374137Y-87456791D01*
X112374136Y-87456799D01*
X112354609Y-87679998D01*
X112354609Y-87680001D01*
X112374136Y-87903200D01*
X112374137Y-87903208D01*
X112432126Y-88119625D01*
X112432127Y-88119627D01*
X112432128Y-88119630D01*
X112464709Y-88189500D01*
X112526819Y-88322696D01*
X112526821Y-88322700D01*
X112655329Y-88506228D01*
X112655334Y-88506234D01*
X112813765Y-88664665D01*
X112813771Y-88664670D01*
X112997299Y-88793178D01*
X112997301Y-88793179D01*
X112997304Y-88793181D01*
X113092600Y-88837618D01*
X113145039Y-88883790D01*
X113164191Y-88950984D01*
X113143975Y-89017865D01*
X113092600Y-89062382D01*
X112997306Y-89106818D01*
X112997304Y-89106819D01*
X112813764Y-89235334D01*
X112655334Y-89393764D01*
X112526819Y-89577304D01*
X112526818Y-89577306D01*
X112432129Y-89780368D01*
X112432126Y-89780374D01*
X112374137Y-89996791D01*
X112374136Y-89996799D01*
X112354609Y-90219998D01*
X112354609Y-90220001D01*
X112374136Y-90443200D01*
X112374137Y-90443208D01*
X112432126Y-90659625D01*
X112432127Y-90659627D01*
X112432128Y-90659630D01*
X112451333Y-90700815D01*
X112526819Y-90862696D01*
X112526821Y-90862700D01*
X112655329Y-91046228D01*
X112655334Y-91046234D01*
X112813765Y-91204665D01*
X112813771Y-91204670D01*
X112997299Y-91333178D01*
X112997301Y-91333179D01*
X112997304Y-91333181D01*
X113092600Y-91377618D01*
X113145039Y-91423790D01*
X113164191Y-91490984D01*
X113143975Y-91557865D01*
X113092600Y-91602382D01*
X112997306Y-91646818D01*
X112997304Y-91646819D01*
X112813764Y-91775334D01*
X112655334Y-91933764D01*
X112526819Y-92117304D01*
X112526818Y-92117306D01*
X112432129Y-92320368D01*
X112432126Y-92320374D01*
X112374137Y-92536791D01*
X112374136Y-92536799D01*
X112354609Y-92759998D01*
X112354609Y-92760001D01*
X112374136Y-92983200D01*
X112374137Y-92983208D01*
X112432126Y-93199625D01*
X112432127Y-93199627D01*
X112432128Y-93199630D01*
X112502023Y-93349521D01*
X112526819Y-93402696D01*
X112526821Y-93402700D01*
X112655329Y-93586228D01*
X112655334Y-93586234D01*
X112813765Y-93744665D01*
X112813771Y-93744670D01*
X112997299Y-93873178D01*
X112997301Y-93873179D01*
X112997304Y-93873181D01*
X113075740Y-93909756D01*
X113092600Y-93917618D01*
X113145039Y-93963790D01*
X113164191Y-94030984D01*
X113143975Y-94097865D01*
X113092600Y-94142382D01*
X112997306Y-94186818D01*
X112997304Y-94186819D01*
X112813764Y-94315334D01*
X112655334Y-94473764D01*
X112526819Y-94657304D01*
X112526818Y-94657306D01*
X112432129Y-94860368D01*
X112432126Y-94860374D01*
X112374137Y-95076791D01*
X112374136Y-95076799D01*
X112354609Y-95299998D01*
X112354609Y-95300001D01*
X112374136Y-95523200D01*
X112374137Y-95523208D01*
X112432126Y-95739625D01*
X112432127Y-95739627D01*
X112432128Y-95739630D01*
X112493571Y-95871395D01*
X112526819Y-95942696D01*
X112526821Y-95942700D01*
X112655329Y-96126228D01*
X112655334Y-96126234D01*
X112813765Y-96284665D01*
X112813771Y-96284670D01*
X112997299Y-96413178D01*
X112997301Y-96413179D01*
X112997304Y-96413181D01*
X113092600Y-96457618D01*
X113145039Y-96503790D01*
X113164191Y-96570984D01*
X113143975Y-96637865D01*
X113092600Y-96682382D01*
X112997306Y-96726818D01*
X112997304Y-96726819D01*
X112813764Y-96855334D01*
X112655334Y-97013764D01*
X112526819Y-97197304D01*
X112526818Y-97197306D01*
X112432129Y-97400368D01*
X112432126Y-97400374D01*
X112374137Y-97616791D01*
X112374136Y-97616799D01*
X112354609Y-97839998D01*
X112354609Y-97840001D01*
X112374136Y-98063200D01*
X112374137Y-98063208D01*
X112432126Y-98279625D01*
X112432127Y-98279627D01*
X112432128Y-98279630D01*
X112526819Y-98482696D01*
X112526821Y-98482700D01*
X112655329Y-98666228D01*
X112655334Y-98666234D01*
X112813765Y-98824665D01*
X112813771Y-98824670D01*
X112997299Y-98953178D01*
X112997301Y-98953179D01*
X112997304Y-98953181D01*
X113033137Y-98969890D01*
X113092600Y-98997618D01*
X113145039Y-99043790D01*
X113164191Y-99110984D01*
X113143975Y-99177865D01*
X113092600Y-99222382D01*
X112997306Y-99266818D01*
X112997304Y-99266819D01*
X112813764Y-99395334D01*
X112655334Y-99553764D01*
X112526819Y-99737304D01*
X112526818Y-99737306D01*
X112432129Y-99940368D01*
X112432126Y-99940374D01*
X112374137Y-100156791D01*
X112374136Y-100156799D01*
X112354609Y-100379998D01*
X112354609Y-100380001D01*
X112374136Y-100603200D01*
X112374137Y-100603208D01*
X112432126Y-100819625D01*
X112432127Y-100819627D01*
X112432128Y-100819630D01*
X112460182Y-100879792D01*
X112526819Y-101022696D01*
X112526821Y-101022700D01*
X112655329Y-101206228D01*
X112655334Y-101206234D01*
X112813765Y-101364665D01*
X112813771Y-101364670D01*
X112997299Y-101493178D01*
X112997301Y-101493179D01*
X112997304Y-101493181D01*
X113092600Y-101537618D01*
X113145039Y-101583790D01*
X113164191Y-101650984D01*
X113143975Y-101717865D01*
X113092600Y-101762382D01*
X112997306Y-101806818D01*
X112997304Y-101806819D01*
X112813764Y-101935334D01*
X112655334Y-102093764D01*
X112526819Y-102277304D01*
X112526818Y-102277306D01*
X112432129Y-102480368D01*
X112432126Y-102480374D01*
X112374137Y-102696791D01*
X112374136Y-102696799D01*
X112354609Y-102919998D01*
X112354609Y-102920001D01*
X112374136Y-103143200D01*
X112374137Y-103143208D01*
X112432126Y-103359625D01*
X112432127Y-103359627D01*
X112432128Y-103359630D01*
X112526819Y-103562696D01*
X112526821Y-103562700D01*
X112655329Y-103746228D01*
X112655334Y-103746234D01*
X112813765Y-103904665D01*
X112813771Y-103904670D01*
X112997299Y-104033178D01*
X112997301Y-104033179D01*
X112997304Y-104033181D01*
X113093190Y-104077893D01*
X113145630Y-104124065D01*
X113164782Y-104191258D01*
X113144567Y-104258139D01*
X113093192Y-104302657D01*
X112997554Y-104347254D01*
X112928887Y-104395334D01*
X113494260Y-104960707D01*
X113439288Y-104975437D01*
X113320713Y-105043896D01*
X113223896Y-105140713D01*
X113155437Y-105259288D01*
X113140707Y-105314260D01*
X112575334Y-104748887D01*
X112527253Y-104817556D01*
X112432600Y-105020540D01*
X112432596Y-105020549D01*
X112374632Y-105236875D01*
X112374630Y-105236886D01*
X112355111Y-105459997D01*
X112355111Y-105460002D01*
X112374630Y-105683113D01*
X112374632Y-105683124D01*
X112432596Y-105899450D01*
X112432600Y-105899459D01*
X112527252Y-106102443D01*
X112527253Y-106102445D01*
X112575334Y-106171112D01*
X113140707Y-105605739D01*
X113155437Y-105660712D01*
X113223896Y-105779287D01*
X113320713Y-105876104D01*
X113439288Y-105944563D01*
X113494259Y-105959292D01*
X112928886Y-106524664D01*
X112997555Y-106572746D01*
X113200540Y-106667399D01*
X113200549Y-106667403D01*
X113416875Y-106725367D01*
X113416886Y-106725369D01*
X113639998Y-106744889D01*
X113640002Y-106744889D01*
X113863113Y-106725369D01*
X113863124Y-106725367D01*
X114079450Y-106667403D01*
X114079459Y-106667399D01*
X114282445Y-106572746D01*
X114282451Y-106572742D01*
X114351112Y-106524665D01*
X113785739Y-105959292D01*
X113840712Y-105944563D01*
X113959287Y-105876104D01*
X114056104Y-105779287D01*
X114124563Y-105660712D01*
X114139292Y-105605739D01*
X114704665Y-106171112D01*
X114752742Y-106102451D01*
X114752746Y-106102445D01*
X114847399Y-105899459D01*
X114847403Y-105899450D01*
X114905367Y-105683124D01*
X114905369Y-105683113D01*
X114924889Y-105460002D01*
X114924889Y-105459997D01*
X114905369Y-105236886D01*
X114905367Y-105236875D01*
X114847403Y-105020549D01*
X114847399Y-105020540D01*
X114752747Y-104817557D01*
X114752746Y-104817555D01*
X114704664Y-104748887D01*
X114704664Y-104748886D01*
X114139292Y-105314259D01*
X114124563Y-105259288D01*
X114056104Y-105140713D01*
X113959287Y-105043896D01*
X113840712Y-104975437D01*
X113785740Y-104960707D01*
X114351112Y-104395334D01*
X114351112Y-104395333D01*
X114282445Y-104347253D01*
X114282443Y-104347252D01*
X114186808Y-104302657D01*
X114134369Y-104256485D01*
X114115217Y-104189291D01*
X114135433Y-104122410D01*
X114186804Y-104077895D01*
X114282696Y-104033181D01*
X114466233Y-103904667D01*
X114624667Y-103746233D01*
X114753181Y-103562696D01*
X114847872Y-103359630D01*
X114905863Y-103143206D01*
X114925391Y-102920000D01*
X114905863Y-102696794D01*
X114847872Y-102480370D01*
X114753181Y-102277305D01*
X114624667Y-102093767D01*
X114466233Y-101935333D01*
X114466229Y-101935330D01*
X114466228Y-101935329D01*
X114282700Y-101806821D01*
X114282692Y-101806817D01*
X114187400Y-101762382D01*
X114134960Y-101716210D01*
X114115808Y-101649017D01*
X114136023Y-101582135D01*
X114187400Y-101537618D01*
X114282696Y-101493181D01*
X114466233Y-101364667D01*
X114624667Y-101206233D01*
X114753181Y-101022696D01*
X114847872Y-100819630D01*
X114905863Y-100603206D01*
X114925391Y-100380000D01*
X114905863Y-100156794D01*
X114847872Y-99940370D01*
X114826115Y-99893713D01*
X123649500Y-99893713D01*
X123649500Y-100106287D01*
X123682754Y-100316243D01*
X123703470Y-100380001D01*
X123748444Y-100518414D01*
X123844951Y-100707820D01*
X123969890Y-100879786D01*
X124120213Y-101030109D01*
X124292179Y-101155048D01*
X124292181Y-101155049D01*
X124292184Y-101155051D01*
X124481588Y-101251557D01*
X124683757Y-101317246D01*
X124893713Y-101350500D01*
X124893714Y-101350500D01*
X125106286Y-101350500D01*
X125106287Y-101350500D01*
X125316243Y-101317246D01*
X125518412Y-101251557D01*
X125707816Y-101155051D01*
X125729789Y-101139086D01*
X125879786Y-101030109D01*
X125879788Y-101030106D01*
X125879792Y-101030104D01*
X126030104Y-100879792D01*
X126030106Y-100879788D01*
X126030109Y-100879786D01*
X126155048Y-100707820D01*
X126155047Y-100707820D01*
X126155051Y-100707816D01*
X126251557Y-100518412D01*
X126317246Y-100316243D01*
X126350500Y-100106287D01*
X126350500Y-99893713D01*
X126317246Y-99683757D01*
X126251557Y-99481588D01*
X126155051Y-99292184D01*
X126155049Y-99292181D01*
X126155048Y-99292179D01*
X126030109Y-99120213D01*
X125879786Y-98969890D01*
X125707820Y-98844951D01*
X125518414Y-98748444D01*
X125518413Y-98748443D01*
X125518412Y-98748443D01*
X125316243Y-98682754D01*
X125316241Y-98682753D01*
X125316240Y-98682753D01*
X125154957Y-98657208D01*
X125106287Y-98649500D01*
X124893713Y-98649500D01*
X124845042Y-98657208D01*
X124683760Y-98682753D01*
X124481585Y-98748444D01*
X124292179Y-98844951D01*
X124120213Y-98969890D01*
X123969890Y-99120213D01*
X123844951Y-99292179D01*
X123748444Y-99481585D01*
X123682753Y-99683760D01*
X123649500Y-99893713D01*
X114826115Y-99893713D01*
X114753181Y-99737305D01*
X114624667Y-99553767D01*
X114466233Y-99395333D01*
X114466229Y-99395330D01*
X114466228Y-99395329D01*
X114282700Y-99266821D01*
X114282692Y-99266817D01*
X114187400Y-99222382D01*
X114134960Y-99176210D01*
X114115808Y-99109017D01*
X114136023Y-99042135D01*
X114187400Y-98997618D01*
X114282696Y-98953181D01*
X114466233Y-98824667D01*
X114624667Y-98666233D01*
X114753181Y-98482696D01*
X114847872Y-98279630D01*
X114905863Y-98063206D01*
X114925391Y-97840000D01*
X114905863Y-97616794D01*
X114847872Y-97400370D01*
X114753181Y-97197305D01*
X114624667Y-97013767D01*
X114466233Y-96855333D01*
X114466229Y-96855330D01*
X114466228Y-96855329D01*
X114282700Y-96726821D01*
X114282692Y-96726817D01*
X114187400Y-96682382D01*
X114134960Y-96636210D01*
X114115808Y-96569017D01*
X114136023Y-96502135D01*
X114187400Y-96457618D01*
X114282696Y-96413181D01*
X114466233Y-96284667D01*
X114624667Y-96126233D01*
X114753181Y-95942696D01*
X114847872Y-95739630D01*
X114905863Y-95523206D01*
X114925391Y-95300000D01*
X114905863Y-95076794D01*
X114847872Y-94860370D01*
X114753181Y-94657305D01*
X114624667Y-94473767D01*
X114466233Y-94315333D01*
X114466229Y-94315330D01*
X114466228Y-94315329D01*
X114282700Y-94186821D01*
X114282692Y-94186817D01*
X114187400Y-94142382D01*
X114134960Y-94096210D01*
X114115808Y-94029017D01*
X114136023Y-93962135D01*
X114187400Y-93917618D01*
X114204260Y-93909756D01*
X114282696Y-93873181D01*
X114466233Y-93744667D01*
X114624667Y-93586233D01*
X114753181Y-93402696D01*
X114847872Y-93199630D01*
X114905863Y-92983206D01*
X114925391Y-92760000D01*
X114905863Y-92536794D01*
X114847872Y-92320370D01*
X114753181Y-92117305D01*
X114662641Y-91988000D01*
X114624668Y-91933768D01*
X114565741Y-91874841D01*
X114466233Y-91775333D01*
X114466229Y-91775330D01*
X114466228Y-91775329D01*
X114282700Y-91646821D01*
X114282692Y-91646817D01*
X114187400Y-91602382D01*
X114134960Y-91556210D01*
X114115808Y-91489017D01*
X114136023Y-91422135D01*
X114187400Y-91377618D01*
X114282696Y-91333181D01*
X114466233Y-91204667D01*
X114624667Y-91046233D01*
X114753181Y-90862696D01*
X114847872Y-90659630D01*
X114905863Y-90443206D01*
X114925391Y-90220000D01*
X114905863Y-89996794D01*
X114847872Y-89780370D01*
X114753181Y-89577305D01*
X114624667Y-89393767D01*
X114466233Y-89235333D01*
X114466229Y-89235330D01*
X114466228Y-89235329D01*
X114282700Y-89106821D01*
X114282692Y-89106817D01*
X114187400Y-89062382D01*
X114134960Y-89016210D01*
X114115808Y-88949017D01*
X114136023Y-88882135D01*
X114187400Y-88837618D01*
X114282696Y-88793181D01*
X114466233Y-88664667D01*
X114624667Y-88506233D01*
X114753181Y-88322696D01*
X114847872Y-88119630D01*
X114905863Y-87903206D01*
X114925391Y-87680000D01*
X114924949Y-87674953D01*
X114913530Y-87544431D01*
X114905863Y-87456794D01*
X114847872Y-87240370D01*
X114753181Y-87037305D01*
X114640116Y-86875830D01*
X114624668Y-86853768D01*
X114545647Y-86774747D01*
X114466233Y-86695333D01*
X114466229Y-86695330D01*
X114466228Y-86695329D01*
X114282700Y-86566821D01*
X114282692Y-86566817D01*
X114187400Y-86522382D01*
X114134960Y-86476210D01*
X114115808Y-86409017D01*
X114136023Y-86342135D01*
X114187400Y-86297618D01*
X114282696Y-86253181D01*
X114466233Y-86124667D01*
X114624667Y-85966233D01*
X114753181Y-85782696D01*
X114847872Y-85579630D01*
X114905863Y-85363206D01*
X114925391Y-85140000D01*
X114905863Y-84916794D01*
X114847872Y-84700370D01*
X114753181Y-84497305D01*
X114675138Y-84385847D01*
X114624668Y-84313768D01*
X114585111Y-84274211D01*
X114466233Y-84155333D01*
X114466229Y-84155330D01*
X114466228Y-84155329D01*
X114282700Y-84026821D01*
X114282692Y-84026817D01*
X114187400Y-83982382D01*
X114134960Y-83936210D01*
X114115808Y-83869017D01*
X114136023Y-83802135D01*
X114187400Y-83757618D01*
X114282696Y-83713181D01*
X114466233Y-83584667D01*
X114624667Y-83426233D01*
X114753181Y-83242696D01*
X114847872Y-83039630D01*
X114905863Y-82823206D01*
X114925391Y-82600000D01*
X114905863Y-82376794D01*
X114879014Y-82276592D01*
X114880677Y-82206744D01*
X114919839Y-82148881D01*
X114984068Y-82121377D01*
X114998789Y-82120500D01*
X115149192Y-82120500D01*
X115216231Y-82140185D01*
X115236873Y-82156819D01*
X116813181Y-83733127D01*
X116846666Y-83794450D01*
X116849500Y-83820808D01*
X116849500Y-88244292D01*
X116829815Y-88311331D01*
X116806619Y-88336915D01*
X116806757Y-88337053D01*
X116803941Y-88339868D01*
X116802407Y-88341561D01*
X116801652Y-88342157D01*
X116679659Y-88464151D01*
X116589093Y-88610981D01*
X116589092Y-88610984D01*
X116534826Y-88774747D01*
X116534826Y-88774748D01*
X116534825Y-88774748D01*
X116524500Y-88875815D01*
X116524500Y-89474169D01*
X116524501Y-89474187D01*
X116534825Y-89575252D01*
X116563783Y-89662640D01*
X116588715Y-89737879D01*
X116589092Y-89739015D01*
X116589093Y-89739018D01*
X116679661Y-89885851D01*
X116793629Y-89999819D01*
X116827114Y-90061142D01*
X116822130Y-90130834D01*
X116793629Y-90175181D01*
X116679661Y-90289148D01*
X116589093Y-90435981D01*
X116589091Y-90435986D01*
X116583869Y-90451745D01*
X116534826Y-90599747D01*
X116534826Y-90599748D01*
X116534825Y-90599748D01*
X116524500Y-90700815D01*
X116524500Y-91299169D01*
X116524501Y-91299187D01*
X116534825Y-91400252D01*
X116565936Y-91494137D01*
X116588475Y-91562155D01*
X116589092Y-91564015D01*
X116589093Y-91564018D01*
X116612756Y-91602382D01*
X116679660Y-91710850D01*
X116801650Y-91832840D01*
X116948484Y-91923408D01*
X117112247Y-91977674D01*
X117213323Y-91988000D01*
X117786676Y-91987999D01*
X117786684Y-91987998D01*
X117786687Y-91987998D01*
X117842030Y-91982344D01*
X117887753Y-91977674D01*
X118051516Y-91923408D01*
X118198350Y-91832840D01*
X118320340Y-91710850D01*
X118410908Y-91564016D01*
X118465174Y-91400253D01*
X118467049Y-91381898D01*
X118493444Y-91317207D01*
X118550625Y-91277055D01*
X118590407Y-91270500D01*
X118803317Y-91270500D01*
X118870356Y-91290185D01*
X118904892Y-91323377D01*
X118999954Y-91459141D01*
X119160858Y-91620045D01*
X119160861Y-91620047D01*
X119347266Y-91750568D01*
X119553504Y-91846739D01*
X119773308Y-91905635D01*
X119935230Y-91919801D01*
X119999998Y-91925468D01*
X120000000Y-91925468D01*
X120000002Y-91925468D01*
X120056673Y-91920509D01*
X120226692Y-91905635D01*
X120446496Y-91846739D01*
X120652734Y-91750568D01*
X120839139Y-91620047D01*
X120907058Y-91552128D01*
X120982368Y-91476819D01*
X121043691Y-91443334D01*
X121070049Y-91440500D01*
X126495501Y-91440500D01*
X126562540Y-91460185D01*
X126608295Y-91512989D01*
X126619501Y-91564500D01*
X126619501Y-91687876D01*
X126625909Y-91747484D01*
X126673409Y-91874841D01*
X126678393Y-91944532D01*
X126644909Y-92005854D01*
X126481466Y-92169298D01*
X126420142Y-92202783D01*
X126407668Y-92204837D01*
X126320750Y-92214630D01*
X126150478Y-92274210D01*
X125997737Y-92370184D01*
X125870184Y-92497737D01*
X125774211Y-92650476D01*
X125714631Y-92820745D01*
X125714630Y-92820750D01*
X125694435Y-92999996D01*
X125694435Y-93000003D01*
X125714630Y-93179249D01*
X125714631Y-93179254D01*
X125774211Y-93349523D01*
X125807622Y-93402696D01*
X125870184Y-93502262D01*
X125997738Y-93629816D01*
X126150478Y-93725789D01*
X126320745Y-93785368D01*
X126320750Y-93785369D01*
X126499996Y-93805565D01*
X126500000Y-93805565D01*
X126500004Y-93805565D01*
X126679249Y-93785369D01*
X126679252Y-93785368D01*
X126679255Y-93785368D01*
X126849522Y-93725789D01*
X127002262Y-93629816D01*
X127129816Y-93502262D01*
X127225789Y-93349522D01*
X127285368Y-93179255D01*
X127295161Y-93092329D01*
X127322226Y-93027918D01*
X127330690Y-93018544D01*
X128172418Y-92176818D01*
X128233741Y-92143333D01*
X128260099Y-92140499D01*
X128367871Y-92140499D01*
X128367872Y-92140499D01*
X128427483Y-92134091D01*
X128562331Y-92083796D01*
X128677546Y-91997546D01*
X128763796Y-91882331D01*
X128814091Y-91747483D01*
X128820500Y-91687873D01*
X128820499Y-91192128D01*
X128820498Y-91192127D01*
X128820321Y-91188805D01*
X128821645Y-91188734D01*
X128833098Y-91125223D01*
X128880703Y-91074081D01*
X128948401Y-91056796D01*
X129014697Y-91078854D01*
X129031668Y-91093036D01*
X129771471Y-91832838D01*
X130507048Y-92568415D01*
X130507049Y-92568416D01*
X130589109Y-92650476D01*
X130611585Y-92672952D01*
X130734498Y-92755080D01*
X130734511Y-92755087D01*
X130871082Y-92811656D01*
X130871087Y-92811658D01*
X130871091Y-92811658D01*
X130871092Y-92811659D01*
X131016079Y-92840500D01*
X131016082Y-92840500D01*
X137243920Y-92840500D01*
X137343231Y-92820745D01*
X137388913Y-92811658D01*
X137525495Y-92755084D01*
X137567385Y-92727092D01*
X137634058Y-92706214D01*
X137701439Y-92724696D01*
X137748131Y-92776674D01*
X137759804Y-92819386D01*
X137774136Y-92983201D01*
X137774137Y-92983208D01*
X137832126Y-93199625D01*
X137832127Y-93199627D01*
X137832128Y-93199630D01*
X137902023Y-93349521D01*
X137926819Y-93402696D01*
X137926821Y-93402700D01*
X138055329Y-93586228D01*
X138055334Y-93586234D01*
X138213765Y-93744665D01*
X138213771Y-93744670D01*
X138397299Y-93873178D01*
X138397301Y-93873179D01*
X138397304Y-93873181D01*
X138475740Y-93909756D01*
X138492600Y-93917618D01*
X138545039Y-93963790D01*
X138564191Y-94030984D01*
X138543975Y-94097865D01*
X138492600Y-94142382D01*
X138397306Y-94186818D01*
X138397304Y-94186819D01*
X138213764Y-94315334D01*
X138055334Y-94473764D01*
X137926819Y-94657304D01*
X137926818Y-94657306D01*
X137832129Y-94860368D01*
X137832126Y-94860374D01*
X137774137Y-95076791D01*
X137774136Y-95076799D01*
X137754609Y-95299998D01*
X137754609Y-95300001D01*
X137774136Y-95523200D01*
X137774137Y-95523208D01*
X137832126Y-95739625D01*
X137832127Y-95739627D01*
X137832128Y-95739630D01*
X137893571Y-95871395D01*
X137926819Y-95942696D01*
X137926821Y-95942700D01*
X138055329Y-96126228D01*
X138055334Y-96126234D01*
X138213765Y-96284665D01*
X138213771Y-96284670D01*
X138397299Y-96413178D01*
X138397301Y-96413179D01*
X138397304Y-96413181D01*
X138492600Y-96457618D01*
X138545039Y-96503790D01*
X138564191Y-96570984D01*
X138543975Y-96637865D01*
X138492600Y-96682382D01*
X138397306Y-96726818D01*
X138397304Y-96726819D01*
X138213764Y-96855334D01*
X138055334Y-97013764D01*
X137926819Y-97197304D01*
X137926818Y-97197306D01*
X137832129Y-97400368D01*
X137832126Y-97400374D01*
X137774137Y-97616791D01*
X137774136Y-97616799D01*
X137754609Y-97839998D01*
X137754609Y-97840001D01*
X137774136Y-98063200D01*
X137774137Y-98063208D01*
X137832126Y-98279625D01*
X137832127Y-98279627D01*
X137832128Y-98279630D01*
X137926819Y-98482696D01*
X137926821Y-98482700D01*
X138055329Y-98666228D01*
X138055334Y-98666234D01*
X138213765Y-98824665D01*
X138213771Y-98824670D01*
X138397299Y-98953178D01*
X138397301Y-98953179D01*
X138397304Y-98953181D01*
X138433137Y-98969890D01*
X138492600Y-98997618D01*
X138545039Y-99043790D01*
X138564191Y-99110984D01*
X138543975Y-99177865D01*
X138492600Y-99222382D01*
X138397306Y-99266818D01*
X138397304Y-99266819D01*
X138213764Y-99395334D01*
X138055334Y-99553764D01*
X137926819Y-99737304D01*
X137926818Y-99737306D01*
X137832129Y-99940368D01*
X137832126Y-99940374D01*
X137774137Y-100156791D01*
X137774136Y-100156799D01*
X137754609Y-100379998D01*
X137754609Y-100380001D01*
X137774136Y-100603200D01*
X137774137Y-100603208D01*
X137832126Y-100819625D01*
X137832127Y-100819627D01*
X137832128Y-100819630D01*
X137860182Y-100879792D01*
X137926819Y-101022696D01*
X137926821Y-101022700D01*
X138055329Y-101206228D01*
X138055334Y-101206234D01*
X138213765Y-101364665D01*
X138213771Y-101364670D01*
X138397299Y-101493178D01*
X138397301Y-101493179D01*
X138397304Y-101493181D01*
X138492600Y-101537618D01*
X138545039Y-101583790D01*
X138564191Y-101650984D01*
X138543975Y-101717865D01*
X138492600Y-101762382D01*
X138397306Y-101806818D01*
X138397304Y-101806819D01*
X138213764Y-101935334D01*
X138055334Y-102093764D01*
X137926819Y-102277304D01*
X137926818Y-102277306D01*
X137832129Y-102480368D01*
X137832126Y-102480374D01*
X137774137Y-102696791D01*
X137774136Y-102696799D01*
X137754609Y-102919998D01*
X137754609Y-102920001D01*
X137774136Y-103143200D01*
X137774137Y-103143208D01*
X137832126Y-103359625D01*
X137832127Y-103359627D01*
X137832128Y-103359630D01*
X137926819Y-103562696D01*
X137926821Y-103562700D01*
X138055329Y-103746228D01*
X138055334Y-103746234D01*
X138213765Y-103904665D01*
X138213771Y-103904670D01*
X138397299Y-104033178D01*
X138397301Y-104033179D01*
X138397304Y-104033181D01*
X138492600Y-104077618D01*
X138545039Y-104123790D01*
X138564191Y-104190984D01*
X138543975Y-104257865D01*
X138492600Y-104302382D01*
X138397306Y-104346818D01*
X138397304Y-104346819D01*
X138213764Y-104475334D01*
X138055334Y-104633764D01*
X137926819Y-104817304D01*
X137926818Y-104817306D01*
X137832129Y-105020368D01*
X137832126Y-105020374D01*
X137774137Y-105236791D01*
X137774136Y-105236799D01*
X137754609Y-105459998D01*
X137754609Y-105460001D01*
X137774136Y-105683200D01*
X137774137Y-105683208D01*
X137832126Y-105899625D01*
X137832127Y-105899627D01*
X137832128Y-105899630D01*
X137853081Y-105944563D01*
X137926819Y-106102696D01*
X137926821Y-106102700D01*
X138055329Y-106286228D01*
X138055334Y-106286234D01*
X138213765Y-106444665D01*
X138213771Y-106444670D01*
X138397299Y-106573178D01*
X138397301Y-106573179D01*
X138397304Y-106573181D01*
X138600370Y-106667872D01*
X138816794Y-106725863D01*
X138976226Y-106739811D01*
X139039998Y-106745391D01*
X139040000Y-106745391D01*
X139040002Y-106745391D01*
X139095801Y-106740509D01*
X139263206Y-106725863D01*
X139479630Y-106667872D01*
X139682696Y-106573181D01*
X139866233Y-106444667D01*
X140024667Y-106286233D01*
X140153181Y-106102696D01*
X140247872Y-105899630D01*
X140305863Y-105683206D01*
X140325391Y-105460000D01*
X140305863Y-105236794D01*
X140247872Y-105020370D01*
X140153181Y-104817305D01*
X140024667Y-104633767D01*
X139866233Y-104475333D01*
X139866229Y-104475330D01*
X139866228Y-104475329D01*
X139682700Y-104346821D01*
X139682692Y-104346817D01*
X139587400Y-104302382D01*
X139534960Y-104256210D01*
X139515808Y-104189017D01*
X139536023Y-104122135D01*
X139587400Y-104077618D01*
X139682696Y-104033181D01*
X139866233Y-103904667D01*
X140024667Y-103746233D01*
X140153181Y-103562696D01*
X140247872Y-103359630D01*
X140305863Y-103143206D01*
X140325391Y-102920000D01*
X140305863Y-102696794D01*
X140247872Y-102480370D01*
X140153181Y-102277305D01*
X140024667Y-102093767D01*
X139866233Y-101935333D01*
X139866229Y-101935330D01*
X139866228Y-101935329D01*
X139682700Y-101806821D01*
X139682692Y-101806817D01*
X139587400Y-101762382D01*
X139534960Y-101716210D01*
X139515808Y-101649017D01*
X139536023Y-101582135D01*
X139587400Y-101537618D01*
X139682696Y-101493181D01*
X139866233Y-101364667D01*
X140024667Y-101206233D01*
X140153181Y-101022696D01*
X140247872Y-100819630D01*
X140305863Y-100603206D01*
X140325391Y-100380000D01*
X140305863Y-100156794D01*
X140247872Y-99940370D01*
X140153181Y-99737305D01*
X140024667Y-99553767D01*
X139866233Y-99395333D01*
X139866229Y-99395330D01*
X139866228Y-99395329D01*
X139682700Y-99266821D01*
X139682692Y-99266817D01*
X139587400Y-99222382D01*
X139534960Y-99176210D01*
X139515808Y-99109017D01*
X139536023Y-99042135D01*
X139587400Y-98997618D01*
X139682696Y-98953181D01*
X139866233Y-98824667D01*
X140024667Y-98666233D01*
X140153181Y-98482696D01*
X140247872Y-98279630D01*
X140305863Y-98063206D01*
X140325391Y-97840000D01*
X140305863Y-97616794D01*
X140247872Y-97400370D01*
X140153181Y-97197305D01*
X140024667Y-97013767D01*
X139866233Y-96855333D01*
X139866229Y-96855330D01*
X139866228Y-96855329D01*
X139682700Y-96726821D01*
X139682692Y-96726817D01*
X139587400Y-96682382D01*
X139534960Y-96636210D01*
X139515808Y-96569017D01*
X139536023Y-96502135D01*
X139587400Y-96457618D01*
X139682696Y-96413181D01*
X139866233Y-96284667D01*
X140024667Y-96126233D01*
X140153181Y-95942696D01*
X140247872Y-95739630D01*
X140305863Y-95523206D01*
X140325391Y-95300000D01*
X140305863Y-95076794D01*
X140247872Y-94860370D01*
X140153181Y-94657305D01*
X140024667Y-94473767D01*
X139866233Y-94315333D01*
X139866229Y-94315330D01*
X139866228Y-94315329D01*
X139682700Y-94186821D01*
X139682692Y-94186817D01*
X139587400Y-94142382D01*
X139534960Y-94096210D01*
X139515808Y-94029017D01*
X139536023Y-93962135D01*
X139587400Y-93917618D01*
X139604260Y-93909756D01*
X139682696Y-93873181D01*
X139866233Y-93744667D01*
X140024667Y-93586233D01*
X140153181Y-93402696D01*
X140247872Y-93199630D01*
X140305863Y-92983206D01*
X140325391Y-92760000D01*
X140305863Y-92536794D01*
X140247872Y-92320370D01*
X140153181Y-92117305D01*
X140062641Y-91988000D01*
X140024668Y-91933768D01*
X139965741Y-91874841D01*
X139866233Y-91775333D01*
X139866229Y-91775330D01*
X139866228Y-91775329D01*
X139682700Y-91646821D01*
X139682692Y-91646817D01*
X139587400Y-91602382D01*
X139534960Y-91556210D01*
X139515808Y-91489017D01*
X139536023Y-91422135D01*
X139587400Y-91377618D01*
X139682696Y-91333181D01*
X139866233Y-91204667D01*
X140024667Y-91046233D01*
X140153181Y-90862696D01*
X140247872Y-90659630D01*
X140305863Y-90443206D01*
X140325391Y-90220000D01*
X140305863Y-89996794D01*
X140247872Y-89780370D01*
X140153181Y-89577305D01*
X140024667Y-89393767D01*
X139866233Y-89235333D01*
X139866229Y-89235330D01*
X139866228Y-89235329D01*
X139682700Y-89106821D01*
X139682692Y-89106817D01*
X139587400Y-89062382D01*
X139534960Y-89016210D01*
X139515808Y-88949017D01*
X139536023Y-88882135D01*
X139587400Y-88837618D01*
X139682696Y-88793181D01*
X139866233Y-88664667D01*
X140024667Y-88506233D01*
X140153181Y-88322696D01*
X140247872Y-88119630D01*
X140305863Y-87903206D01*
X140325391Y-87680000D01*
X140324949Y-87674953D01*
X140313530Y-87544431D01*
X140305863Y-87456794D01*
X140247872Y-87240370D01*
X140153181Y-87037305D01*
X140040116Y-86875830D01*
X140024668Y-86853768D01*
X139945647Y-86774747D01*
X139866233Y-86695333D01*
X139866229Y-86695330D01*
X139866228Y-86695329D01*
X139682700Y-86566821D01*
X139682692Y-86566817D01*
X139587400Y-86522382D01*
X139534960Y-86476210D01*
X139515808Y-86409017D01*
X139536023Y-86342135D01*
X139587400Y-86297618D01*
X139682696Y-86253181D01*
X139866233Y-86124667D01*
X140024667Y-85966233D01*
X140153181Y-85782696D01*
X140247872Y-85579630D01*
X140305863Y-85363206D01*
X140325391Y-85140000D01*
X140305863Y-84916794D01*
X140247872Y-84700370D01*
X140153181Y-84497305D01*
X140075138Y-84385847D01*
X140024668Y-84313768D01*
X139985111Y-84274211D01*
X139866233Y-84155333D01*
X139866229Y-84155330D01*
X139866228Y-84155329D01*
X139682700Y-84026821D01*
X139682692Y-84026817D01*
X139587400Y-83982382D01*
X139534960Y-83936210D01*
X139515808Y-83869017D01*
X139536023Y-83802135D01*
X139587400Y-83757618D01*
X139682696Y-83713181D01*
X139866233Y-83584667D01*
X140024667Y-83426233D01*
X140153181Y-83242696D01*
X140247872Y-83039630D01*
X140305863Y-82823206D01*
X140325391Y-82600000D01*
X140305863Y-82376794D01*
X140247872Y-82160370D01*
X140153181Y-81957305D01*
X140024667Y-81773767D01*
X139866233Y-81615333D01*
X139866229Y-81615330D01*
X139866228Y-81615329D01*
X139682700Y-81486821D01*
X139682692Y-81486817D01*
X139587400Y-81442382D01*
X139534960Y-81396210D01*
X139515808Y-81329017D01*
X139536023Y-81262135D01*
X139587400Y-81217618D01*
X139617541Y-81203563D01*
X139682696Y-81173181D01*
X139866233Y-81044667D01*
X140024667Y-80886233D01*
X140153181Y-80702696D01*
X140247872Y-80499630D01*
X140305863Y-80283206D01*
X140325391Y-80060000D01*
X140305863Y-79836794D01*
X140247872Y-79620370D01*
X140153181Y-79417305D01*
X140024667Y-79233767D01*
X139866233Y-79075333D01*
X139866229Y-79075330D01*
X139866228Y-79075329D01*
X139682700Y-78946821D01*
X139682692Y-78946817D01*
X139587400Y-78902382D01*
X139534960Y-78856210D01*
X139515808Y-78789017D01*
X139536023Y-78722135D01*
X139587400Y-78677618D01*
X139682696Y-78633181D01*
X139866233Y-78504667D01*
X140024667Y-78346233D01*
X140153181Y-78162696D01*
X140247872Y-77959630D01*
X140305863Y-77743206D01*
X140325391Y-77520000D01*
X140305863Y-77296794D01*
X140247872Y-77080370D01*
X140153181Y-76877305D01*
X140024667Y-76693767D01*
X139866233Y-76535333D01*
X139866229Y-76535330D01*
X139866228Y-76535329D01*
X139682700Y-76406821D01*
X139682692Y-76406817D01*
X139587400Y-76362382D01*
X139534960Y-76316210D01*
X139515808Y-76249017D01*
X139536023Y-76182135D01*
X139587400Y-76137618D01*
X139682696Y-76093181D01*
X139866233Y-75964667D01*
X140024667Y-75806233D01*
X140153181Y-75622696D01*
X140247872Y-75419630D01*
X140305863Y-75203206D01*
X140325391Y-74980000D01*
X140305863Y-74756794D01*
X140247872Y-74540370D01*
X140153181Y-74337305D01*
X140024667Y-74153767D01*
X139866233Y-73995333D01*
X139866229Y-73995330D01*
X139866228Y-73995329D01*
X139682700Y-73866821D01*
X139682692Y-73866817D01*
X139587400Y-73822382D01*
X139534960Y-73776210D01*
X139515808Y-73709017D01*
X139536023Y-73642135D01*
X139587400Y-73597618D01*
X139682696Y-73553181D01*
X139866233Y-73424667D01*
X140024667Y-73266233D01*
X140153181Y-73082696D01*
X140247872Y-72879630D01*
X140305863Y-72663206D01*
X140325391Y-72440000D01*
X140324949Y-72434953D01*
X140319811Y-72376226D01*
X140305863Y-72216794D01*
X140247872Y-72000370D01*
X140153181Y-71797305D01*
X140024667Y-71613767D01*
X139866233Y-71455333D01*
X139866229Y-71455330D01*
X139866228Y-71455329D01*
X139682700Y-71326821D01*
X139682692Y-71326817D01*
X139587400Y-71282382D01*
X139534960Y-71236210D01*
X139515808Y-71169017D01*
X139536023Y-71102135D01*
X139587400Y-71057618D01*
X139682696Y-71013181D01*
X139866233Y-70884667D01*
X140024667Y-70726233D01*
X140153181Y-70542696D01*
X140247872Y-70339630D01*
X140305863Y-70123206D01*
X140325391Y-69900000D01*
X140305863Y-69676794D01*
X140247872Y-69460370D01*
X140153181Y-69257305D01*
X140024667Y-69073767D01*
X139866233Y-68915333D01*
X139866229Y-68915330D01*
X139866228Y-68915329D01*
X139682700Y-68786821D01*
X139682692Y-68786817D01*
X139587400Y-68742382D01*
X139534960Y-68696210D01*
X139515808Y-68629017D01*
X139536023Y-68562135D01*
X139587400Y-68517618D01*
X139682696Y-68473181D01*
X139866233Y-68344667D01*
X140024667Y-68186233D01*
X140153181Y-68002696D01*
X140247872Y-67799630D01*
X140305863Y-67583206D01*
X140325391Y-67360000D01*
X140305863Y-67136794D01*
X140247872Y-66920370D01*
X140153181Y-66717305D01*
X140024667Y-66533767D01*
X139866233Y-66375333D01*
X139866229Y-66375330D01*
X139866228Y-66375329D01*
X139682700Y-66246821D01*
X139682692Y-66246817D01*
X139587400Y-66202382D01*
X139534960Y-66156210D01*
X139515808Y-66089017D01*
X139536023Y-66022135D01*
X139587400Y-65977618D01*
X139682696Y-65933181D01*
X139866233Y-65804667D01*
X140024667Y-65646233D01*
X140153181Y-65462696D01*
X140247872Y-65259630D01*
X140305863Y-65043206D01*
X140325391Y-64820000D01*
X140305863Y-64596794D01*
X140247872Y-64380370D01*
X140153181Y-64177305D01*
X140024667Y-63993767D01*
X139866233Y-63835333D01*
X139866229Y-63835330D01*
X139866228Y-63835329D01*
X139682700Y-63706821D01*
X139682692Y-63706817D01*
X139587400Y-63662382D01*
X139534960Y-63616210D01*
X139515808Y-63549017D01*
X139536023Y-63482135D01*
X139587400Y-63437618D01*
X139682696Y-63393181D01*
X139866233Y-63264667D01*
X140024667Y-63106233D01*
X140153181Y-62922696D01*
X140247872Y-62719630D01*
X140305863Y-62503206D01*
X140325391Y-62280000D01*
X140305863Y-62056794D01*
X140247872Y-61840370D01*
X140153181Y-61637305D01*
X140024667Y-61453767D01*
X139866233Y-61295333D01*
X139866229Y-61295330D01*
X139866228Y-61295329D01*
X139682700Y-61166821D01*
X139682692Y-61166817D01*
X139587400Y-61122382D01*
X139534960Y-61076210D01*
X139515808Y-61009017D01*
X139536023Y-60942135D01*
X139587400Y-60897618D01*
X139682696Y-60853181D01*
X139866233Y-60724667D01*
X140024667Y-60566233D01*
X140153181Y-60382696D01*
X140247872Y-60179630D01*
X140305863Y-59963206D01*
X140325391Y-59740000D01*
X140305863Y-59516794D01*
X140247872Y-59300370D01*
X140153181Y-59097305D01*
X140063912Y-58969815D01*
X140024668Y-58913768D01*
X139955849Y-58844949D01*
X139866233Y-58755333D01*
X139866229Y-58755330D01*
X139866228Y-58755329D01*
X139682700Y-58626821D01*
X139682696Y-58626819D01*
X139630445Y-58602454D01*
X139479630Y-58532128D01*
X139479627Y-58532127D01*
X139479625Y-58532126D01*
X139263208Y-58474137D01*
X139263200Y-58474136D01*
X139040002Y-58454609D01*
X139039998Y-58454609D01*
X138816799Y-58474136D01*
X138816791Y-58474137D01*
X138600374Y-58532126D01*
X138600368Y-58532129D01*
X138397306Y-58626818D01*
X138397304Y-58626819D01*
X138213764Y-58755334D01*
X138055334Y-58913764D01*
X137926819Y-59097304D01*
X137926818Y-59097306D01*
X137832129Y-59300368D01*
X137832126Y-59300374D01*
X137774137Y-59516791D01*
X137774136Y-59516799D01*
X137754609Y-59739998D01*
X137754609Y-59740001D01*
X137774136Y-59963200D01*
X137774137Y-59963208D01*
X137832126Y-60179625D01*
X137832127Y-60179627D01*
X137832128Y-60179630D01*
X137895830Y-60316239D01*
X137926819Y-60382696D01*
X137926821Y-60382700D01*
X138055329Y-60566228D01*
X138055334Y-60566234D01*
X138213765Y-60724665D01*
X138213771Y-60724670D01*
X138397299Y-60853178D01*
X138397301Y-60853179D01*
X138397304Y-60853181D01*
X138492600Y-60897618D01*
X138545039Y-60943790D01*
X138564191Y-61010984D01*
X138543975Y-61077865D01*
X138492600Y-61122382D01*
X138397306Y-61166818D01*
X138397304Y-61166819D01*
X138213764Y-61295334D01*
X138055334Y-61453764D01*
X137926819Y-61637304D01*
X137926818Y-61637306D01*
X137832129Y-61840368D01*
X137832126Y-61840374D01*
X137774137Y-62056791D01*
X137774136Y-62056799D01*
X137754609Y-62279998D01*
X137754609Y-62280001D01*
X137774136Y-62503200D01*
X137774137Y-62503208D01*
X137832126Y-62719625D01*
X137832127Y-62719627D01*
X137832128Y-62719630D01*
X137926819Y-62922696D01*
X137926821Y-62922700D01*
X138055329Y-63106228D01*
X138055334Y-63106234D01*
X138213765Y-63264665D01*
X138213771Y-63264670D01*
X138397299Y-63393178D01*
X138397301Y-63393179D01*
X138397304Y-63393181D01*
X138492600Y-63437618D01*
X138545039Y-63483790D01*
X138564191Y-63550984D01*
X138543975Y-63617865D01*
X138492600Y-63662382D01*
X138397306Y-63706818D01*
X138397304Y-63706819D01*
X138213764Y-63835334D01*
X138055334Y-63993764D01*
X137926819Y-64177304D01*
X137926818Y-64177306D01*
X137832129Y-64380368D01*
X137832126Y-64380374D01*
X137774137Y-64596791D01*
X137774136Y-64596799D01*
X137754609Y-64819998D01*
X137754609Y-64820001D01*
X137774136Y-65043200D01*
X137774137Y-65043208D01*
X137832126Y-65259625D01*
X137832127Y-65259627D01*
X137832128Y-65259630D01*
X137926819Y-65462696D01*
X137926821Y-65462700D01*
X138055329Y-65646228D01*
X138055334Y-65646234D01*
X138213765Y-65804665D01*
X138213771Y-65804670D01*
X138397299Y-65933178D01*
X138397301Y-65933179D01*
X138397304Y-65933181D01*
X138492600Y-65977618D01*
X138545039Y-66023790D01*
X138564191Y-66090984D01*
X138543975Y-66157865D01*
X138492600Y-66202382D01*
X138397306Y-66246818D01*
X138397304Y-66246819D01*
X138213764Y-66375334D01*
X138055334Y-66533764D01*
X137926819Y-66717304D01*
X137926818Y-66717306D01*
X137832129Y-66920368D01*
X137832126Y-66920374D01*
X137774137Y-67136791D01*
X137774136Y-67136799D01*
X137754609Y-67359998D01*
X137754609Y-67360001D01*
X137774136Y-67583200D01*
X137774137Y-67583208D01*
X137832126Y-67799625D01*
X137832127Y-67799627D01*
X137832128Y-67799630D01*
X137926819Y-68002696D01*
X137926821Y-68002700D01*
X138055329Y-68186228D01*
X138055334Y-68186234D01*
X138213765Y-68344665D01*
X138213771Y-68344670D01*
X138397299Y-68473178D01*
X138397301Y-68473179D01*
X138397304Y-68473181D01*
X138492600Y-68517618D01*
X138545039Y-68563790D01*
X138564191Y-68630984D01*
X138543975Y-68697865D01*
X138492600Y-68742382D01*
X138397306Y-68786818D01*
X138397304Y-68786819D01*
X138213764Y-68915334D01*
X138055334Y-69073764D01*
X137926819Y-69257304D01*
X137926818Y-69257306D01*
X137832129Y-69460368D01*
X137832126Y-69460374D01*
X137774137Y-69676791D01*
X137774136Y-69676799D01*
X137754609Y-69899998D01*
X137754609Y-69900001D01*
X137774136Y-70123200D01*
X137774137Y-70123208D01*
X137832126Y-70339625D01*
X137832127Y-70339627D01*
X137832128Y-70339630D01*
X137918440Y-70524727D01*
X137926819Y-70542696D01*
X137926821Y-70542700D01*
X138055329Y-70726228D01*
X138055334Y-70726234D01*
X138213765Y-70884665D01*
X138213771Y-70884670D01*
X138397299Y-71013178D01*
X138397301Y-71013179D01*
X138397304Y-71013181D01*
X138492600Y-71057618D01*
X138545039Y-71103790D01*
X138564191Y-71170984D01*
X138543975Y-71237865D01*
X138492600Y-71282382D01*
X138397306Y-71326818D01*
X138397304Y-71326819D01*
X138213764Y-71455334D01*
X138055334Y-71613764D01*
X137926819Y-71797304D01*
X137926818Y-71797306D01*
X137832129Y-72000368D01*
X137832126Y-72000374D01*
X137774137Y-72216791D01*
X137774136Y-72216799D01*
X137754609Y-72439998D01*
X137754609Y-72440001D01*
X137774136Y-72663200D01*
X137774137Y-72663208D01*
X137832126Y-72879625D01*
X137832127Y-72879627D01*
X137832128Y-72879630D01*
X137926819Y-73082696D01*
X137926821Y-73082700D01*
X138055329Y-73266228D01*
X138055334Y-73266234D01*
X138213765Y-73424665D01*
X138213771Y-73424670D01*
X138397299Y-73553178D01*
X138397301Y-73553179D01*
X138397304Y-73553181D01*
X138492600Y-73597618D01*
X138545039Y-73643790D01*
X138564191Y-73710984D01*
X138543975Y-73777865D01*
X138492600Y-73822382D01*
X138397306Y-73866818D01*
X138397304Y-73866819D01*
X138213764Y-73995334D01*
X138055334Y-74153764D01*
X137926819Y-74337304D01*
X137926818Y-74337306D01*
X137832129Y-74540368D01*
X137832126Y-74540374D01*
X137774137Y-74756791D01*
X137774136Y-74756799D01*
X137754609Y-74979998D01*
X137754609Y-74980001D01*
X137774136Y-75203200D01*
X137774137Y-75203208D01*
X137832126Y-75419625D01*
X137832127Y-75419627D01*
X137832128Y-75419630D01*
X137897738Y-75560331D01*
X137926819Y-75622696D01*
X137926821Y-75622700D01*
X138055329Y-75806228D01*
X138055334Y-75806234D01*
X138213765Y-75964665D01*
X138213771Y-75964670D01*
X138397299Y-76093178D01*
X138397301Y-76093179D01*
X138397304Y-76093181D01*
X138492600Y-76137618D01*
X138545039Y-76183790D01*
X138564191Y-76250984D01*
X138543975Y-76317865D01*
X138492600Y-76362382D01*
X138397306Y-76406818D01*
X138397304Y-76406819D01*
X138213764Y-76535334D01*
X138055334Y-76693764D01*
X137926819Y-76877304D01*
X137926818Y-76877306D01*
X137832129Y-77080368D01*
X137832126Y-77080374D01*
X137774137Y-77296791D01*
X137774136Y-77296799D01*
X137754609Y-77519998D01*
X137754609Y-77520001D01*
X137774136Y-77743200D01*
X137774137Y-77743208D01*
X137832126Y-77959625D01*
X137832127Y-77959627D01*
X137832128Y-77959630D01*
X137884468Y-78071873D01*
X137926819Y-78162696D01*
X137926821Y-78162700D01*
X138055329Y-78346228D01*
X138055334Y-78346234D01*
X138213765Y-78504665D01*
X138213771Y-78504670D01*
X138397299Y-78633178D01*
X138397301Y-78633179D01*
X138397304Y-78633181D01*
X138492600Y-78677618D01*
X138545039Y-78723790D01*
X138564191Y-78790984D01*
X138543975Y-78857865D01*
X138492600Y-78902382D01*
X138397306Y-78946818D01*
X138397304Y-78946819D01*
X138213764Y-79075334D01*
X138055334Y-79233764D01*
X137926819Y-79417304D01*
X137926818Y-79417306D01*
X137832129Y-79620368D01*
X137832126Y-79620374D01*
X137774137Y-79836791D01*
X137774136Y-79836799D01*
X137754609Y-80059998D01*
X137754609Y-80060001D01*
X137774136Y-80283200D01*
X137774137Y-80283208D01*
X137832126Y-80499625D01*
X137832127Y-80499627D01*
X137832128Y-80499630D01*
X137899027Y-80643095D01*
X137926819Y-80702696D01*
X137926821Y-80702700D01*
X138055329Y-80886228D01*
X138055334Y-80886234D01*
X138213765Y-81044665D01*
X138213771Y-81044670D01*
X138397299Y-81173178D01*
X138397301Y-81173179D01*
X138397304Y-81173181D01*
X138462459Y-81203563D01*
X138492600Y-81217618D01*
X138545039Y-81263790D01*
X138564191Y-81330984D01*
X138543975Y-81397865D01*
X138492600Y-81442382D01*
X138397306Y-81486818D01*
X138397304Y-81486819D01*
X138213764Y-81615334D01*
X138055334Y-81773764D01*
X137926819Y-81957304D01*
X137926818Y-81957306D01*
X137832129Y-82160368D01*
X137832126Y-82160374D01*
X137774137Y-82376791D01*
X137774136Y-82376799D01*
X137754609Y-82599998D01*
X137754609Y-82600001D01*
X137774136Y-82823200D01*
X137774137Y-82823208D01*
X137832126Y-83039625D01*
X137832127Y-83039627D01*
X137832128Y-83039630D01*
X137903124Y-83191881D01*
X137926819Y-83242696D01*
X137926821Y-83242700D01*
X138055329Y-83426228D01*
X138055334Y-83426234D01*
X138213765Y-83584665D01*
X138213771Y-83584670D01*
X138397299Y-83713178D01*
X138397301Y-83713179D01*
X138397304Y-83713181D01*
X138492600Y-83757618D01*
X138545039Y-83803790D01*
X138564191Y-83870984D01*
X138543975Y-83937865D01*
X138492600Y-83982382D01*
X138397306Y-84026818D01*
X138397304Y-84026819D01*
X138213764Y-84155334D01*
X138055334Y-84313764D01*
X137926819Y-84497304D01*
X137926818Y-84497306D01*
X137832129Y-84700368D01*
X137832126Y-84700374D01*
X137774137Y-84916791D01*
X137774136Y-84916799D01*
X137754609Y-85139998D01*
X137754609Y-85140001D01*
X137774136Y-85363200D01*
X137774137Y-85363208D01*
X137832129Y-85579635D01*
X137833386Y-85583088D01*
X137833489Y-85584710D01*
X137833529Y-85584859D01*
X137833499Y-85584867D01*
X137837819Y-85652817D01*
X137803849Y-85713873D01*
X137742263Y-85746871D01*
X137716865Y-85749500D01*
X135567772Y-85749500D01*
X135500733Y-85729815D01*
X135454978Y-85677011D01*
X135445034Y-85607853D01*
X135462234Y-85560403D01*
X135530448Y-85449811D01*
X135530453Y-85449800D01*
X135584680Y-85286152D01*
X135594999Y-85185154D01*
X135595000Y-85185141D01*
X135595000Y-85086000D01*
X133645001Y-85086000D01*
X133645001Y-85185154D01*
X133655319Y-85286152D01*
X133709546Y-85449800D01*
X133709551Y-85449811D01*
X133777766Y-85560403D01*
X133796207Y-85627795D01*
X133775285Y-85694459D01*
X133721643Y-85739228D01*
X133672228Y-85749500D01*
X131426080Y-85749500D01*
X131281092Y-85778340D01*
X131281086Y-85778342D01*
X131144508Y-85834914D01*
X131144496Y-85834921D01*
X131095269Y-85867813D01*
X131021588Y-85917044D01*
X131021580Y-85917050D01*
X129535451Y-87403181D01*
X129474128Y-87436666D01*
X129447770Y-87439500D01*
X128944499Y-87439500D01*
X128877460Y-87419815D01*
X128831705Y-87367011D01*
X128820499Y-87315500D01*
X128820499Y-87292129D01*
X128820498Y-87292123D01*
X128814091Y-87232516D01*
X128763797Y-87097671D01*
X128763793Y-87097664D01*
X128677547Y-86982455D01*
X128677544Y-86982452D01*
X128562335Y-86896206D01*
X128562332Y-86896205D01*
X128562331Y-86896204D01*
X128551161Y-86892038D01*
X128495231Y-86850166D01*
X128470816Y-86784701D01*
X128470500Y-86775858D01*
X128470500Y-85646079D01*
X128441659Y-85501092D01*
X128441658Y-85501091D01*
X128441658Y-85501087D01*
X128385084Y-85364505D01*
X128352186Y-85315270D01*
X128332731Y-85286152D01*
X128302956Y-85241589D01*
X128302952Y-85241584D01*
X127753307Y-84691939D01*
X127730653Y-84655869D01*
X127728813Y-84656756D01*
X127725792Y-84650484D01*
X127725789Y-84650480D01*
X127725789Y-84650478D01*
X127629816Y-84497738D01*
X127502262Y-84370184D01*
X127349523Y-84274211D01*
X127179254Y-84214631D01*
X127179249Y-84214630D01*
X127000004Y-84194435D01*
X126999996Y-84194435D01*
X126820750Y-84214630D01*
X126820745Y-84214631D01*
X126650476Y-84274211D01*
X126497737Y-84370184D01*
X126370184Y-84497737D01*
X126274211Y-84650476D01*
X126214631Y-84820745D01*
X126214630Y-84820750D01*
X126194435Y-84999996D01*
X126194435Y-85000003D01*
X126214630Y-85179249D01*
X126214631Y-85179254D01*
X126274211Y-85349523D01*
X126337220Y-85449800D01*
X126370184Y-85502262D01*
X126497738Y-85629816D01*
X126650478Y-85725789D01*
X126650480Y-85725789D01*
X126650484Y-85725792D01*
X126656756Y-85728813D01*
X126655869Y-85730653D01*
X126691939Y-85753307D01*
X126933181Y-85994549D01*
X126966666Y-86055872D01*
X126969500Y-86082230D01*
X126969500Y-86775858D01*
X126949815Y-86842897D01*
X126897011Y-86888652D01*
X126888847Y-86892034D01*
X126877669Y-86896204D01*
X126877664Y-86896206D01*
X126762455Y-86982452D01*
X126762452Y-86982455D01*
X126676206Y-87097664D01*
X126676202Y-87097671D01*
X126625910Y-87232513D01*
X126625909Y-87232517D01*
X126619500Y-87292127D01*
X126619500Y-87292134D01*
X126619500Y-87292135D01*
X126619500Y-87787870D01*
X126619501Y-87787879D01*
X126626367Y-87851751D01*
X126626367Y-87878257D01*
X126625909Y-87882516D01*
X126625909Y-87882517D01*
X126619500Y-87942127D01*
X126619500Y-87942128D01*
X126619500Y-87942132D01*
X126619500Y-88065500D01*
X126599815Y-88132539D01*
X126547011Y-88178294D01*
X126495500Y-88189500D01*
X126327547Y-88189500D01*
X126260508Y-88169815D01*
X126215165Y-88117905D01*
X126171609Y-88024500D01*
X126170568Y-88022266D01*
X126040047Y-87835861D01*
X126040045Y-87835858D01*
X125879141Y-87674954D01*
X125692734Y-87544432D01*
X125692732Y-87544431D01*
X125486497Y-87448261D01*
X125486488Y-87448258D01*
X125266697Y-87389366D01*
X125266693Y-87389365D01*
X125266692Y-87389365D01*
X125266691Y-87389364D01*
X125266686Y-87389364D01*
X125040002Y-87369532D01*
X125039998Y-87369532D01*
X124813313Y-87389364D01*
X124813302Y-87389366D01*
X124593511Y-87448258D01*
X124593502Y-87448261D01*
X124387267Y-87544431D01*
X124387265Y-87544432D01*
X124200858Y-87674954D01*
X124039954Y-87835858D01*
X123944892Y-87971623D01*
X123890315Y-88015248D01*
X123843317Y-88024500D01*
X123456994Y-88024500D01*
X123389955Y-88004815D01*
X123344200Y-87952011D01*
X123334256Y-87882853D01*
X123351456Y-87835403D01*
X123410903Y-87739024D01*
X123410902Y-87739024D01*
X123410908Y-87739016D01*
X123465174Y-87575253D01*
X123475500Y-87474177D01*
X123475499Y-86875824D01*
X123465174Y-86774747D01*
X123410908Y-86610984D01*
X123320340Y-86464150D01*
X123198350Y-86342160D01*
X123198349Y-86342159D01*
X123198347Y-86342157D01*
X123197593Y-86341561D01*
X123197209Y-86341019D01*
X123193243Y-86337053D01*
X123193920Y-86336375D01*
X123157214Y-86284541D01*
X123150500Y-86244292D01*
X123150500Y-82761815D01*
X133644500Y-82761815D01*
X133644500Y-83460169D01*
X133644501Y-83460187D01*
X133654825Y-83561252D01*
X133676610Y-83626993D01*
X133709092Y-83725016D01*
X133799659Y-83871849D01*
X133799661Y-83871851D01*
X133813982Y-83886172D01*
X133847467Y-83947495D01*
X133842483Y-84017187D01*
X133813985Y-84061532D01*
X133800052Y-84075465D01*
X133709551Y-84222188D01*
X133709546Y-84222199D01*
X133655319Y-84385847D01*
X133645000Y-84486845D01*
X133645000Y-84586000D01*
X135594999Y-84586000D01*
X135594999Y-84486860D01*
X135594998Y-84486845D01*
X135584680Y-84385847D01*
X135530453Y-84222199D01*
X135530448Y-84222188D01*
X135439947Y-84075465D01*
X135439944Y-84075461D01*
X135426017Y-84061534D01*
X135392532Y-84000211D01*
X135397516Y-83930519D01*
X135426017Y-83886172D01*
X135440340Y-83871850D01*
X135530908Y-83725016D01*
X135585174Y-83561253D01*
X135595500Y-83460177D01*
X135595499Y-82761824D01*
X135585174Y-82660747D01*
X135530908Y-82496984D01*
X135440340Y-82350150D01*
X135406819Y-82316629D01*
X135373334Y-82255306D01*
X135370500Y-82228948D01*
X135370500Y-81546081D01*
X135364763Y-81517242D01*
X135364763Y-81517240D01*
X135349873Y-81442382D01*
X135341659Y-81401088D01*
X135291608Y-81280256D01*
X135285084Y-81264505D01*
X135253106Y-81216647D01*
X135239167Y-81188711D01*
X135233733Y-81173181D01*
X135225789Y-81150478D01*
X135129816Y-80997738D01*
X135002262Y-80870184D01*
X134913158Y-80814196D01*
X134849523Y-80774211D01*
X134679254Y-80714631D01*
X134679249Y-80714630D01*
X134500004Y-80694435D01*
X134499996Y-80694435D01*
X134320750Y-80714630D01*
X134320745Y-80714631D01*
X134150476Y-80774211D01*
X133997737Y-80870184D01*
X133870184Y-80997737D01*
X133774211Y-81150476D01*
X133714631Y-81320745D01*
X133714630Y-81320750D01*
X133694435Y-81499996D01*
X133694435Y-81500003D01*
X133714630Y-81679249D01*
X133714631Y-81679254D01*
X133774211Y-81849522D01*
X133841936Y-81957306D01*
X133850494Y-81970925D01*
X133869500Y-82036897D01*
X133869500Y-82228948D01*
X133849815Y-82295987D01*
X133833181Y-82316629D01*
X133799661Y-82350148D01*
X133709093Y-82496981D01*
X133709092Y-82496984D01*
X133654826Y-82660747D01*
X133654826Y-82660748D01*
X133654825Y-82660748D01*
X133644500Y-82761815D01*
X123150500Y-82761815D01*
X123150500Y-76295807D01*
X123170185Y-76228768D01*
X123186814Y-76208131D01*
X124653062Y-74741882D01*
X124714383Y-74708399D01*
X124772834Y-74709790D01*
X124813308Y-74720635D01*
X124975230Y-74734801D01*
X125039998Y-74740468D01*
X125040000Y-74740468D01*
X125040002Y-74740468D01*
X125096673Y-74735509D01*
X125266692Y-74720635D01*
X125486496Y-74661739D01*
X125692734Y-74565568D01*
X125879139Y-74435047D01*
X126040047Y-74274139D01*
X126170568Y-74087734D01*
X126266739Y-73881496D01*
X126325635Y-73661692D01*
X126345468Y-73435000D01*
X126325635Y-73208308D01*
X126266739Y-72988504D01*
X126170568Y-72782266D01*
X126040047Y-72595861D01*
X126040045Y-72595858D01*
X125879141Y-72434954D01*
X125692734Y-72304432D01*
X125692732Y-72304431D01*
X125486497Y-72208261D01*
X125486488Y-72208258D01*
X125266697Y-72149366D01*
X125266693Y-72149365D01*
X125266692Y-72149365D01*
X125266691Y-72149364D01*
X125266686Y-72149364D01*
X125040002Y-72129532D01*
X125039998Y-72129532D01*
X124813313Y-72149364D01*
X124813299Y-72149367D01*
X124772834Y-72160209D01*
X124702984Y-72158545D01*
X124653061Y-72128115D01*
X123049674Y-70524727D01*
X123049673Y-70524726D01*
X122977687Y-70476627D01*
X122943127Y-70453535D01*
X122824744Y-70404499D01*
X122824738Y-70404497D01*
X122699071Y-70379500D01*
X122699069Y-70379500D01*
X114998789Y-70379500D01*
X114931750Y-70359815D01*
X114885995Y-70307011D01*
X114876051Y-70237853D01*
X114879014Y-70223406D01*
X114893886Y-70167903D01*
X114905863Y-70123206D01*
X114925391Y-69900000D01*
X114905863Y-69676794D01*
X114847872Y-69460370D01*
X114753181Y-69257305D01*
X114624667Y-69073767D01*
X114466233Y-68915333D01*
X114466229Y-68915330D01*
X114466228Y-68915329D01*
X114282700Y-68786821D01*
X114282692Y-68786817D01*
X114187400Y-68742382D01*
X114134960Y-68696210D01*
X114115808Y-68629017D01*
X114136023Y-68562135D01*
X114187400Y-68517618D01*
X114282696Y-68473181D01*
X114466233Y-68344667D01*
X114624667Y-68186233D01*
X114753181Y-68002696D01*
X114847872Y-67799630D01*
X114905863Y-67583206D01*
X114925391Y-67360000D01*
X114905863Y-67136794D01*
X114847872Y-66920370D01*
X114753181Y-66717305D01*
X114624667Y-66533767D01*
X114466233Y-66375333D01*
X114466229Y-66375330D01*
X114466228Y-66375329D01*
X114282700Y-66246821D01*
X114282692Y-66246817D01*
X114187400Y-66202382D01*
X114134960Y-66156210D01*
X114115808Y-66089017D01*
X114136023Y-66022135D01*
X114187400Y-65977618D01*
X114282696Y-65933181D01*
X114466233Y-65804667D01*
X114624667Y-65646233D01*
X114753181Y-65462696D01*
X114847872Y-65259630D01*
X114905863Y-65043206D01*
X114925391Y-64820000D01*
X114905863Y-64596794D01*
X114847872Y-64380370D01*
X114753181Y-64177305D01*
X114624667Y-63993767D01*
X114466233Y-63835333D01*
X114466229Y-63835330D01*
X114466228Y-63835329D01*
X114282700Y-63706821D01*
X114282692Y-63706817D01*
X114187400Y-63662382D01*
X114134960Y-63616210D01*
X114115808Y-63549017D01*
X114136023Y-63482135D01*
X114187400Y-63437618D01*
X114282696Y-63393181D01*
X114466233Y-63264667D01*
X114624667Y-63106233D01*
X114753181Y-62922696D01*
X114847872Y-62719630D01*
X114905863Y-62503206D01*
X114925391Y-62280000D01*
X114905863Y-62056794D01*
X114847872Y-61840370D01*
X114753181Y-61637305D01*
X114624667Y-61453767D01*
X114466233Y-61295333D01*
X114466229Y-61295330D01*
X114466228Y-61295329D01*
X114395884Y-61246074D01*
X114352259Y-61191497D01*
X114345065Y-61121999D01*
X114376588Y-61059644D01*
X114436817Y-61024230D01*
X114464570Y-61020800D01*
X114464564Y-61020676D01*
X114466347Y-61020580D01*
X114467007Y-61020499D01*
X114467871Y-61020499D01*
X114467872Y-61020499D01*
X114527483Y-61014091D01*
X114662331Y-60963796D01*
X114777546Y-60877546D01*
X114863796Y-60762331D01*
X114914091Y-60627483D01*
X114920500Y-60567873D01*
X114920500Y-59893713D01*
X123649500Y-59893713D01*
X123649500Y-60106287D01*
X123682754Y-60316243D01*
X123704347Y-60382700D01*
X123748444Y-60518414D01*
X123844951Y-60707820D01*
X123969890Y-60879786D01*
X124120213Y-61030109D01*
X124292179Y-61155048D01*
X124292181Y-61155049D01*
X124292184Y-61155051D01*
X124481588Y-61251557D01*
X124683757Y-61317246D01*
X124893713Y-61350500D01*
X124893714Y-61350500D01*
X125106286Y-61350500D01*
X125106287Y-61350500D01*
X125316243Y-61317246D01*
X125518412Y-61251557D01*
X125707816Y-61155051D01*
X125752781Y-61122382D01*
X125879786Y-61030109D01*
X125879788Y-61030106D01*
X125879792Y-61030104D01*
X126030104Y-60879792D01*
X126030106Y-60879788D01*
X126030109Y-60879786D01*
X126155048Y-60707820D01*
X126155047Y-60707820D01*
X126155051Y-60707816D01*
X126251557Y-60518412D01*
X126317246Y-60316243D01*
X126350500Y-60106287D01*
X126350500Y-59893713D01*
X126317246Y-59683757D01*
X126251557Y-59481588D01*
X126155051Y-59292184D01*
X126155049Y-59292181D01*
X126155048Y-59292179D01*
X126030109Y-59120213D01*
X125879786Y-58969890D01*
X125707820Y-58844951D01*
X125518414Y-58748444D01*
X125518413Y-58748443D01*
X125518412Y-58748443D01*
X125316243Y-58682754D01*
X125316241Y-58682753D01*
X125316240Y-58682753D01*
X125154957Y-58657208D01*
X125106287Y-58649500D01*
X124893713Y-58649500D01*
X124845042Y-58657208D01*
X124683760Y-58682753D01*
X124481585Y-58748444D01*
X124292179Y-58844951D01*
X124120213Y-58969890D01*
X123969890Y-59120213D01*
X123844951Y-59292179D01*
X123748444Y-59481585D01*
X123682753Y-59683760D01*
X123649500Y-59893713D01*
X114920500Y-59893713D01*
X114920499Y-58912128D01*
X114914091Y-58852517D01*
X114911268Y-58844949D01*
X114863797Y-58717671D01*
X114863793Y-58717664D01*
X114777547Y-58602455D01*
X114777544Y-58602452D01*
X114662335Y-58516206D01*
X114662328Y-58516202D01*
X114527482Y-58465908D01*
X114527483Y-58465908D01*
X114467883Y-58459501D01*
X114467881Y-58459500D01*
X114467873Y-58459500D01*
X114467864Y-58459500D01*
X112812129Y-58459500D01*
X112812123Y-58459501D01*
X112752516Y-58465908D01*
X112617671Y-58516202D01*
X112617664Y-58516206D01*
X112502455Y-58602452D01*
X112502452Y-58602455D01*
X112416206Y-58717664D01*
X112416202Y-58717671D01*
X112365910Y-58852513D01*
X112365909Y-58852517D01*
X112363087Y-58878758D01*
X112336351Y-58943306D01*
X112278959Y-58983154D01*
X112239799Y-58989500D01*
X108102351Y-58989500D01*
X108035312Y-58969815D01*
X107989557Y-58917011D01*
X107979061Y-58878752D01*
X107974091Y-58832516D01*
X107923797Y-58697671D01*
X107923793Y-58697664D01*
X107837547Y-58582455D01*
X107837544Y-58582452D01*
X107722335Y-58496206D01*
X107722328Y-58496202D01*
X107587483Y-58445908D01*
X107582079Y-58444632D01*
X107521363Y-58410060D01*
X107488976Y-58348149D01*
X107495202Y-58278558D01*
X107522910Y-58236275D01*
X107680047Y-58079139D01*
X107810568Y-57892734D01*
X107906739Y-57686496D01*
X107965635Y-57466692D01*
X107985468Y-57240000D01*
X107965635Y-57013308D01*
X107906739Y-56793504D01*
X107810568Y-56587266D01*
X107680047Y-56400861D01*
X107680045Y-56400858D01*
X107519141Y-56239954D01*
X107332734Y-56109432D01*
X107332732Y-56109431D01*
X107126497Y-56013261D01*
X107126488Y-56013258D01*
X106906697Y-55954366D01*
X106906693Y-55954365D01*
X106906692Y-55954365D01*
X106906691Y-55954364D01*
X106906686Y-55954364D01*
X106680002Y-55934532D01*
X106679998Y-55934532D01*
X106453313Y-55954364D01*
X106453302Y-55954366D01*
X106233511Y-56013258D01*
X106233502Y-56013261D01*
X106027267Y-56109431D01*
X106027265Y-56109432D01*
X105840858Y-56239954D01*
X105679954Y-56400858D01*
X105549432Y-56587265D01*
X105549431Y-56587267D01*
X105453261Y-56793502D01*
X105453258Y-56793511D01*
X105394366Y-57013302D01*
X105394364Y-57013313D01*
X105374532Y-57239998D01*
X105374532Y-57240001D01*
X105394364Y-57466686D01*
X105394366Y-57466697D01*
X105453258Y-57686488D01*
X105453261Y-57686497D01*
X105549431Y-57892732D01*
X105549432Y-57892734D01*
X105679954Y-58079141D01*
X105837086Y-58236273D01*
X105870571Y-58297596D01*
X105865587Y-58367288D01*
X105823715Y-58423221D01*
X105777932Y-58444628D01*
X105772522Y-58445906D01*
X105637671Y-58496202D01*
X105637664Y-58496206D01*
X105522455Y-58582452D01*
X105522452Y-58582455D01*
X105436206Y-58697664D01*
X105436202Y-58697671D01*
X105385908Y-58832517D01*
X105379501Y-58892116D01*
X105379500Y-58892135D01*
X105379500Y-60587870D01*
X105379501Y-60587876D01*
X105385908Y-60647483D01*
X105436202Y-60782328D01*
X105436206Y-60782335D01*
X105522452Y-60897544D01*
X105522455Y-60897547D01*
X105637664Y-60983793D01*
X105637671Y-60983797D01*
X105772517Y-61034091D01*
X105772516Y-61034091D01*
X105779444Y-61034835D01*
X105832127Y-61040500D01*
X107527872Y-61040499D01*
X107587483Y-61034091D01*
X107722331Y-60983796D01*
X107837546Y-60897546D01*
X107923796Y-60782331D01*
X107974091Y-60647483D01*
X107979062Y-60601242D01*
X108005799Y-60536694D01*
X108063191Y-60496846D01*
X108102351Y-60490500D01*
X112239799Y-60490500D01*
X112306838Y-60510185D01*
X112352593Y-60562989D01*
X112363089Y-60601248D01*
X112365908Y-60627483D01*
X112416202Y-60762328D01*
X112416206Y-60762335D01*
X112502452Y-60877544D01*
X112502455Y-60877547D01*
X112617664Y-60963793D01*
X112617671Y-60963797D01*
X112662618Y-60980561D01*
X112752517Y-61014091D01*
X112812127Y-61020500D01*
X112812964Y-61020499D01*
X112813149Y-61020554D01*
X112815453Y-61020678D01*
X112815423Y-61021221D01*
X112880006Y-61040168D01*
X112925773Y-61092961D01*
X112935733Y-61162117D01*
X112906723Y-61225679D01*
X112884115Y-61246073D01*
X112813766Y-61295332D01*
X112655334Y-61453764D01*
X112526819Y-61637304D01*
X112526818Y-61637306D01*
X112432129Y-61840368D01*
X112432126Y-61840374D01*
X112374137Y-62056791D01*
X112374136Y-62056799D01*
X112354609Y-62279998D01*
X112354609Y-62280001D01*
X112374136Y-62503200D01*
X112374137Y-62503208D01*
X112432126Y-62719625D01*
X112432127Y-62719627D01*
X112432128Y-62719630D01*
X112526819Y-62922696D01*
X112526821Y-62922700D01*
X112655329Y-63106228D01*
X112655334Y-63106234D01*
X112813765Y-63264665D01*
X112813771Y-63264670D01*
X112997299Y-63393178D01*
X112997301Y-63393179D01*
X112997304Y-63393181D01*
X113092600Y-63437618D01*
X113145039Y-63483790D01*
X113164191Y-63550984D01*
X113143975Y-63617865D01*
X113092600Y-63662382D01*
X112997306Y-63706818D01*
X112997304Y-63706819D01*
X112813764Y-63835334D01*
X112655334Y-63993764D01*
X112526819Y-64177304D01*
X112526818Y-64177306D01*
X112432129Y-64380368D01*
X112432126Y-64380374D01*
X112374137Y-64596791D01*
X112374136Y-64596799D01*
X112354609Y-64819998D01*
X112354609Y-64820001D01*
X112374136Y-65043200D01*
X112374137Y-65043208D01*
X112432126Y-65259625D01*
X112432127Y-65259627D01*
X112432128Y-65259630D01*
X112526819Y-65462696D01*
X112526821Y-65462700D01*
X112655329Y-65646228D01*
X112655334Y-65646234D01*
X112813765Y-65804665D01*
X112813771Y-65804670D01*
X112997299Y-65933178D01*
X112997301Y-65933179D01*
X112997304Y-65933181D01*
X113092600Y-65977618D01*
X113145039Y-66023790D01*
X113164191Y-66090984D01*
X113143975Y-66157865D01*
X113092600Y-66202382D01*
X112997306Y-66246818D01*
X112997304Y-66246819D01*
X112813764Y-66375334D01*
X112655334Y-66533764D01*
X112526819Y-66717304D01*
X112526818Y-66717306D01*
X112432129Y-66920368D01*
X112432126Y-66920374D01*
X112374137Y-67136791D01*
X112374136Y-67136799D01*
X112354609Y-67359998D01*
X112354609Y-67360001D01*
X112374136Y-67583200D01*
X112374137Y-67583208D01*
X112432126Y-67799625D01*
X112432127Y-67799627D01*
X112432128Y-67799630D01*
X112526819Y-68002696D01*
X112526821Y-68002700D01*
X112655329Y-68186228D01*
X112655334Y-68186234D01*
X112813765Y-68344665D01*
X112813771Y-68344670D01*
X112997299Y-68473178D01*
X112997301Y-68473179D01*
X112997304Y-68473181D01*
X113092600Y-68517618D01*
X113145039Y-68563790D01*
X113164191Y-68630984D01*
X113143975Y-68697865D01*
X113092600Y-68742382D01*
X112997306Y-68786818D01*
X112997304Y-68786819D01*
X112813764Y-68915334D01*
X112655334Y-69073764D01*
X112526819Y-69257304D01*
X112526818Y-69257306D01*
X112432129Y-69460368D01*
X112432126Y-69460374D01*
X112374137Y-69676791D01*
X112374136Y-69676799D01*
X112354609Y-69899998D01*
X112354609Y-69900001D01*
X112374136Y-70123200D01*
X112374137Y-70123207D01*
X112400986Y-70223406D01*
X112399323Y-70293256D01*
X112360161Y-70351119D01*
X112295932Y-70378623D01*
X112281211Y-70379500D01*
X109136807Y-70379500D01*
X109069768Y-70359815D01*
X109049126Y-70343181D01*
X108027709Y-69321763D01*
X107994224Y-69260440D01*
X107995615Y-69201989D01*
X107996545Y-69198517D01*
X108015063Y-69129408D01*
X108035659Y-68894000D01*
X108015063Y-68658592D01*
X107953903Y-68430337D01*
X107854035Y-68216171D01*
X107833073Y-68186233D01*
X107718494Y-68022597D01*
X107551402Y-67855506D01*
X107551396Y-67855501D01*
X107365842Y-67725575D01*
X107322217Y-67670998D01*
X107315023Y-67601500D01*
X107346546Y-67539145D01*
X107365842Y-67522425D01*
X107388026Y-67506891D01*
X107551401Y-67392495D01*
X107718495Y-67225401D01*
X107854035Y-67031830D01*
X107953903Y-66817663D01*
X108015063Y-66589408D01*
X108035659Y-66354000D01*
X108015063Y-66118592D01*
X107953903Y-65890337D01*
X107854035Y-65676171D01*
X107833073Y-65646233D01*
X107718494Y-65482597D01*
X107551402Y-65315506D01*
X107551395Y-65315501D01*
X107357834Y-65179967D01*
X107357830Y-65179965D01*
X107357828Y-65179964D01*
X107143663Y-65080097D01*
X107143659Y-65080096D01*
X107143655Y-65080094D01*
X106915413Y-65018938D01*
X106915403Y-65018936D01*
X106680001Y-64998341D01*
X106679999Y-64998341D01*
X106444596Y-65018936D01*
X106444586Y-65018938D01*
X106216344Y-65080094D01*
X106216335Y-65080098D01*
X106002171Y-65179964D01*
X106002169Y-65179965D01*
X105808597Y-65315505D01*
X105641505Y-65482597D01*
X105505965Y-65676169D01*
X105505964Y-65676171D01*
X105406098Y-65890335D01*
X105406094Y-65890344D01*
X105344938Y-66118586D01*
X105344936Y-66118596D01*
X105324341Y-66353999D01*
X100500500Y-66353999D01*
X100500500Y-50624500D01*
X100520185Y-50557461D01*
X100572989Y-50511706D01*
X100624500Y-50500500D01*
X141375500Y-50500500D01*
X141442539Y-50520185D01*
G37*
%TD.AperFunction*%
%TD*%
M02*
